<svg width="45" height="45" viewBox="0 0 45 45" fill="none" xmlns="http://www.w3.org/2000/svg">
<path d="M27.6501 43.4169C25.7501 43.4169 23.8501 43.4169 21.9501 43.4274C21.7801 43.4274 21.7901 43.3436 21.7901 43.218C21.7901 39.3754 21.7901 35.5224 21.7901 31.6799C21.7901 30.5596 21.7901 29.4288 21.7901 28.3085C21.7901 28.2457 21.8201 28.1619 21.7501 28.1095C20.1601 28.1095 18.5801 28.1095 16.9901 28.1095C16.8801 28.1095 16.8501 28.0781 16.8501 27.963C16.8501 26.0783 16.8501 24.1832 16.8501 22.2986C16.8501 22.1416 16.9201 22.1416 17.0301 22.1416C18.5401 22.1416 20.0501 22.1416 21.5701 22.152C21.7501 22.152 21.7801 22.0997 21.7801 21.9217C21.7701 20.5292 21.7701 19.1366 21.7801 17.7441C21.7801 16.739 21.8901 15.7548 22.1701 14.7915C22.9401 12.2263 24.6001 10.6768 27.0801 10.0695C27.7301 9.91243 28.3901 9.84961 29.0501 9.84961C30.4901 9.84961 31.9201 9.91243 33.3601 10.059C33.4901 10.0695 33.5201 10.1114 33.5201 10.2475C33.5201 11.9122 33.5201 13.577 33.5201 15.2522C33.5201 15.3988 33.4801 15.4302 33.3501 15.4302C32.4301 15.4197 31.5101 15.4302 30.5901 15.4302C30.4701 15.4302 30.3401 15.4093 30.2201 15.4511C30.1601 15.493 30.0901 15.4721 30.0201 15.4616C29.5601 15.4825 29.1201 15.5768 28.7101 15.8071C28.0901 16.1526 27.8301 16.7494 27.7301 17.4405C27.7101 17.5766 27.6801 17.7232 27.7001 17.8697C27.7401 18.0268 27.7001 18.1734 27.7001 18.3304C27.7001 19.5973 27.7001 20.8642 27.7001 22.1416C27.7601 22.1939 27.8301 22.1625 27.9001 22.1625C29.6501 22.1625 31.3901 22.1625 33.1401 22.1625C33.3101 22.1625 33.3301 22.2044 33.3101 22.3719C33.1401 23.7121 32.9801 25.0627 32.8101 26.4029C32.7501 26.9264 32.6801 27.4395 32.6201 27.963C32.6101 28.1095 32.5601 28.1305 32.4301 28.1305C30.9201 28.1305 29.4101 28.1305 27.8901 28.1305C27.8301 28.1305 27.7501 28.0991 27.7001 28.1619C27.7101 28.2352 27.7101 28.3085 27.7101 28.3818C27.7101 33.3132 27.7101 38.2342 27.7101 43.1656C27.6801 43.2284 27.7001 43.3227 27.6501 43.4169Z" fill="#D12B39"/>
<path fill-rule="evenodd" clip-rule="evenodd" d="M12.71 5.61768C8.55771 5.61768 5 9.17376 5 13.8077V31.7326C5 36.3665 8.55771 39.9226 12.71 39.9226H31.68C35.8326 39.9226 39.3911 36.3658 39.4 31.7409C39.4 31.7402 39.4 31.7395 39.4 31.7388L39.4 13.8077C39.4 9.17376 35.8423 5.61768 31.69 5.61768H12.71ZM0 13.8077C0 6.6313 5.58229 0.617676 12.71 0.617676H31.69C38.8177 0.617676 44.4 6.6313 44.4 13.8077L44.4 31.7473C44.3878 38.9108 38.8068 44.9226 31.68 44.9226H12.71C5.58229 44.9226 0 38.909 0 31.7326V13.8077Z" fill="#D12B39"/>
</svg>
