<svg width="421" height="126" viewBox="0 0 421 126" fill="none" xmlns="http://www.w3.org/2000/svg">
<path d="M71.2345 107.19V123.928H4.15376V110.613L38.3916 78.2776C42.0267 74.8115 44.4783 71.8527 45.7464 69.4011C47.0144 66.865 47.6485 64.3711 47.6485 61.9195C47.6485 58.3689 46.4227 55.6637 43.9711 53.8039C41.604 51.8595 38.0957 50.8873 33.4461 50.8873C29.5574 50.8873 26.0491 51.6482 22.9212 53.1698C19.7933 54.607 17.1726 56.805 15.0591 59.7638L0.0959473 50.1265C3.562 44.9697 8.33839 40.9541 14.4251 38.0798C20.5118 35.121 27.4862 33.6416 35.3482 33.6416C41.9422 33.6416 47.6907 34.7406 52.5939 36.9386C57.5817 39.052 61.4281 42.0954 64.1334 46.0687C66.9231 49.9574 68.318 54.5647 68.318 59.8906C68.318 64.7093 67.3035 69.232 65.2746 73.4589C63.2457 77.6858 59.3147 82.5045 53.4816 87.9149L33.0657 107.19H71.2345Z" fill="#D12B39"/>
<path d="M117.505 125.45C110.15 125.45 103.599 123.632 97.8501 119.997C92.1015 116.362 87.5787 111.121 84.2818 104.273C81.0693 97.3409 79.4631 89.0984 79.4631 79.5456C79.4631 69.9929 81.0693 61.7927 84.2818 54.9451C87.5787 48.013 92.1015 42.7294 97.8501 39.0943C103.599 35.4592 110.15 33.6416 117.505 33.6416C124.86 33.6416 131.412 35.4592 137.16 39.0943C142.909 42.7294 147.389 48.013 150.602 54.9451C153.899 61.7927 155.547 69.9929 155.547 79.5456C155.547 89.0984 153.899 97.3409 150.602 104.273C147.389 111.121 142.909 116.362 137.16 119.997C131.412 123.632 124.86 125.45 117.505 125.45ZM117.505 108.077C122.916 108.077 127.142 105.752 130.186 101.103C133.314 96.4532 134.878 89.2675 134.878 79.5456C134.878 69.8238 133.314 62.6381 130.186 57.9885C127.142 53.3389 122.916 51.0141 117.505 51.0141C112.179 51.0141 107.952 53.3389 104.824 57.9885C101.781 62.6381 100.259 69.8238 100.259 79.5456C100.259 89.2675 101.781 96.4532 104.824 101.103C107.952 105.752 112.179 108.077 117.505 108.077Z" fill="#D12B39"/>
<path d="M231.105 107.19V123.928H164.024V110.613L198.262 78.2776C201.897 74.8115 204.349 71.8527 205.617 69.4011C206.885 66.865 207.519 64.3711 207.519 61.9195C207.519 58.3689 206.293 55.6637 203.842 53.8039C201.475 51.8595 197.966 50.8873 193.317 50.8873C189.428 50.8873 185.92 51.6482 182.792 53.1698C179.664 54.607 177.043 56.805 174.93 59.7638L159.967 50.1265C163.433 44.9697 168.209 40.9541 174.296 38.0798C180.382 35.121 187.357 33.6416 195.219 33.6416C201.813 33.6416 207.561 34.7406 212.465 36.9386C217.452 39.052 221.299 42.0954 224.004 46.0687C226.794 49.9574 228.189 54.5647 228.189 59.8906C228.189 64.7093 227.174 69.232 225.145 73.4589C223.116 77.6858 219.185 82.5045 213.352 87.9149L192.936 107.19H231.105Z" fill="#D12B39"/>
<path d="M273.819 35.1633V123.928H253.277V51.6482H235.524V35.1633H273.819Z" fill="#D12B39"/>
<path d="M325.072 42.7745C323.009 39.7059 320.855 36.5443 317.882 33.6617C318.094 33.7547 318.337 33.8786 318.61 34.0336C323.252 36.4513 328.167 38.1561 333.324 39.117C333.931 39.21 334.477 38.869 334.69 38.3111C334.902 37.7222 334.659 37.1022 334.113 36.8233C327.469 33.1657 321.917 29.3532 317.609 25.4787C317.882 25.6337 318.215 25.8197 318.61 26.0986C326.164 31.089 333.415 34.9945 340.818 38.0631C341.395 38.3111 342.032 38.0631 342.335 37.5052C342.639 36.9473 342.487 36.2653 341.971 35.8934C338.634 33.4757 335.6 31.12 332.9 28.7953C337.511 32.2359 342.093 34.8085 346.249 36.9473C346.856 37.2572 347.584 37.0092 347.887 36.3893C348.009 36.1724 348.009 35.9244 347.978 35.7074C348.009 35.3045 347.887 34.9015 347.554 34.6535C341.061 29.1672 336.601 23.34 333.931 16.9238C339.332 23.6809 344.762 29.1362 350.497 33.6307C350.952 34.0026 351.619 33.9716 352.044 33.5687C352.469 33.1657 352.59 32.5148 352.287 32.0189C348.949 26.2846 347.068 20.8603 345.096 13.9482C345.005 13.5142 344.975 13.1733 345.005 12.9253C345.278 13.2662 345.673 13.9172 346.067 15.002C348.676 21.4802 352.165 27.9894 356.747 35.0255C356.838 35.1495 356.959 35.1805 357.08 35.2735C350.861 41.1007 345.127 47.8889 346.34 55.7929C333.871 55.6689 329.775 49.7176 325.072 42.7745Z" fill="white"/>
<path d="M354.592 65.3395C352.438 76.5601 332.081 78.6368 310.236 79.1948C309.66 79.1948 309.144 79.6597 309.053 80.2486C308.962 80.8376 309.326 81.4265 309.872 81.6125C311.116 82.0154 312.451 82.3874 313.877 82.6973C300.376 83.4722 294.187 85.115 288.725 86.5718C283.446 87.9667 278.895 89.1755 268.792 89.1755C253.532 89.1755 246.766 86.7888 238.908 83.9992C232.78 81.8294 225.862 79.3808 213.817 77.8C188.029 74.1114 179.655 77.614 168.915 83.8442C167.489 84.7741 165.851 85.301 163.241 86.0759C165.153 82.6973 167.125 81.2405 168.733 80.3726C192.458 68.8421 210.814 74.1114 230.261 79.6907C233.932 80.7446 237.664 81.8294 241.487 82.7903C244.824 83.8132 248.313 84.5881 252.045 85.084C252.682 85.146 253.319 84.7121 253.41 84.0302C253.501 83.3482 253.077 82.7283 252.409 82.6043C248.768 81.9534 245.219 81.1475 241.73 80.2486C232.506 77.366 224.588 72.5616 216.002 66.1764C232.901 77.335 252.5 85.115 267.518 83.2863C311.844 78.2649 323.494 73.7395 339.574 67.4783C342.73 66.2384 346.067 64.9676 349.859 63.5728C351.255 65.1226 352.742 65.4635 354.592 65.3395Z" fill="white"/>
<path d="M357.535 18.5664C357.96 19.0004 358.779 20.2402 359.325 22.9988C359.234 24.0527 359.447 25.3235 359.78 26.5634C360.144 28.0512 360.66 29.446 361.54 31.2128L361.328 31.3988C360.539 32.1117 359.72 32.8246 358.901 33.5685L357.414 20.6431C357.323 19.4963 357.414 18.8764 357.535 18.5664Z" fill="white"/>
<path d="M341.607 82.8835C343.154 83.0385 344.702 83.1935 346.34 83.3795C352.984 84.1234 361.661 85.0533 367.487 85.6422C376.406 86.5101 381.382 84.6193 386.176 81.9537C388.026 76.2814 390.454 70.7951 393.396 65.6807C393.427 62.2401 393.943 59.1715 394.853 56.3509C394.883 56.1339 394.944 55.9169 395.035 55.762C395.551 54.3051 396.157 52.9103 396.916 51.6085C397.007 51.4535 397.098 51.3295 397.25 51.2365C402.347 47.455 405.745 43.9524 407.444 40.7908L414.877 29.0123C415.484 28.0824 415.666 27.2766 415.393 26.7806C415.089 26.2537 414.27 25.9747 413.33 26.0367C412.844 26.0367 412.48 25.8507 412.237 25.4788C411.995 25.1068 411.964 24.6419 412.146 24.2389L415.544 17.2028C416.485 15.1261 416.121 13.3593 415.453 12.3674C415.18 11.9645 414.573 11.3136 413.572 11.4066C412.844 11.4685 410.933 12.1195 409.082 16.3659C408.839 16.9239 408.232 17.2028 407.656 17.0478C407.08 16.8929 406.716 16.3349 406.746 15.746C406.958 13.3593 406.716 10.3217 406.078 6.78814C405.472 3.9055 404.44 2.54168 403.742 2.47968C403.226 2.3247 402.074 3.47156 401.224 5.79627C400.071 9.29882 399.525 11.8715 399.131 15.622C399.07 16.2109 398.615 16.6759 398.038 16.7379C397.462 16.7689 396.916 16.4279 396.764 15.87L394.64 8.6789C393.366 4.7114 392.486 4.21546 392.486 4.15347C392.395 4.18447 391.576 4.7424 390.575 8.64791C389.574 12.0885 389.361 14.5992 389.21 19.2796C389.21 19.8375 388.815 20.3024 388.299 20.4574C387.814 20.5814 387.268 20.3644 386.995 19.8685C385.326 16.9549 384.659 15.0021 383.84 12.4604C383.263 9.94974 382.141 9.20584 381.716 9.14384C381.17 9.20584 380.533 10.1977 380.472 11.9335C380.381 16.4279 380.988 21.0463 382.323 25.6648C382.474 26.1917 382.262 26.7806 381.807 27.0596C381.352 27.3695 380.745 27.2766 380.35 26.9046C377.954 24.5799 375.891 21.8522 374.161 18.7216C372.068 14.9401 370.308 14.1962 370.065 14.3202C369.944 14.3822 369.368 15.3741 370.187 18.2877C371.916 23.619 373.888 27.6795 376.164 30.6861C376.497 31.1201 376.497 31.74 376.164 32.2049C375.83 32.6389 375.253 32.8249 374.738 32.6079C371.279 31.1511 367.699 28.7334 363.755 25.2308C362.723 24.2699 362.056 23.805 361.661 23.588C361.692 23.991 361.783 24.7349 362.116 25.9127C362.481 27.4935 363.027 28.8883 364.089 30.8411C364.362 31.337 364.24 31.988 363.815 32.3599L362.875 33.1968C354.805 40.3569 346.522 47.765 349.01 56.7538C349.708 58.6136 350.314 60.2254 351.164 61.4032C351.164 61.4032 351.164 61.4032 351.164 61.4342C352.256 62.984 353.045 63.046 355.806 62.7051C355.988 62.6741 356.17 62.7051 356.352 62.7671C362.723 62.2091 367.881 62.3331 371.886 63.201C372.28 63.294 372.614 63.573 372.735 63.9759C372.857 64.3789 372.796 64.7818 372.523 65.0918C369.883 68.2534 367.365 72.3449 364.726 77.8002C362.359 81.3027 357.99 83.1005 352.559 82.6666C349.495 82.2636 345.885 82.3256 341.607 82.8835ZM400.951 33.4448L406.078 18.7836C406.23 18.3807 406.655 18.1637 407.049 18.3187C407.444 18.4737 407.656 18.9076 407.504 19.3106L402.377 33.9717C402.256 34.2817 401.983 34.4986 401.649 34.4986C401.558 34.4986 401.467 34.4986 401.406 34.4676C401.012 34.3127 400.799 33.8477 400.951 33.4448ZM397.007 19.0316C397.007 18.5976 397.341 18.2567 397.765 18.2567C398.19 18.2567 398.524 18.5976 398.524 19.0316V34.1887C398.524 34.6226 398.19 34.9636 397.765 34.9636C397.341 34.9636 397.007 34.6226 397.007 34.1887V19.0316ZM388.239 23.65C388.117 23.2471 388.33 22.8131 388.724 22.6891C389.119 22.5651 389.543 22.7821 389.665 23.1851L393.123 33.9717C393.245 34.3747 393.032 34.8086 392.638 34.9326C392.547 34.9636 392.486 34.9636 392.395 34.9636C392.062 34.9636 391.788 34.7466 391.667 34.4366L388.239 23.65ZM386.54 35.4285L382.201 29.3843C381.958 29.0433 382.019 28.5474 382.353 28.2994C382.687 28.0515 383.172 28.1134 383.415 28.4544L387.753 34.4986C387.996 34.8396 387.935 35.3355 387.602 35.5835C387.48 35.6765 387.298 35.7385 387.147 35.7385C386.904 35.7385 386.691 35.6145 386.54 35.4285ZM377.772 33.2588C378.014 32.9178 378.5 32.8249 378.834 33.0728L383.233 36.2964C383.566 36.5444 383.658 37.0403 383.415 37.3813C383.263 37.5983 383.02 37.6912 382.808 37.6912C382.656 37.6912 382.505 37.6292 382.353 37.5363L377.954 34.3127C377.59 34.0957 377.529 33.5998 377.772 33.2588Z" fill="white"/>
<path d="M395.672 66.6414C393.184 70.9188 391.091 75.4443 389.392 80.1247C392.486 78.3269 395.702 76.4671 400.041 74.9483C404.076 73.5225 407.899 71.7867 411.388 69.803C411.661 69.648 411.995 69.617 412.298 69.679C414.027 70.1749 415.878 70.3919 417.881 70.2989L417.152 68.1602C417.061 67.9122 417.061 67.6023 417.152 67.3543C418.032 64.7196 417.911 62.6739 416.728 61.1551C415.059 58.9543 410.235 56.6296 397.037 57.5595C396.249 60.1012 395.824 62.8599 395.854 65.9595C395.854 66.2384 395.793 66.4554 395.672 66.6414ZM407.019 65.0296C407.019 64.2547 407.687 63.6038 408.536 63.6038C409.386 63.6038 410.053 64.2237 410.053 65.0296C410.053 65.8045 409.386 66.4554 408.536 66.4554C407.687 66.4554 407.019 65.8045 407.019 65.0296Z" fill="white"/>
<path d="M369.55 65.1223C367.244 68.1909 364.999 71.9724 362.784 76.6218C360.964 79.2875 357.323 80.6823 352.802 80.3413C347.493 79.6594 340.788 80.2793 331.807 82.2941C331.201 82.2941 330.563 82.2631 329.926 82.2631C326.346 81.9841 323.1 81.6742 320.157 81.2712C339.453 80.1554 355.563 76.6838 357.05 65.0293C362.026 64.6263 366.182 64.6263 369.55 65.1223Z" fill="#D12B39"/>
<path d="M196.706 50.8022C191.639 46.7107 186.057 42.2163 179.837 37.5359C178.775 36.668 177.622 35.8931 176.439 35.2422C181.506 37.3809 187.452 41.2244 193.884 47.9506C194.795 48.8805 195.735 49.8413 196.706 50.8022Z" fill="#333333"/>
<path d="M161.512 33.1655C161.269 33.2275 160.996 33.3205 160.753 33.3825C156.445 34.7773 152.926 37.7529 150.408 41.9684C151.409 37.35 154.382 34.2814 161.512 33.1655Z" fill="#333333"/>
<path d="M394.883 56.3507C394.914 56.1337 394.974 55.9167 395.065 55.7617C395.005 55.9477 394.944 56.1337 394.883 56.3507Z" fill="#333333"/>
<path d="M147.677 48.8182C147.708 49.4072 148.163 49.9031 148.739 49.9651C149.316 50.0271 149.862 49.6551 150.044 49.0662C152.562 40.2943 157.659 36.9777 161.482 35.7379C166.943 33.9711 173.405 35.3969 178.381 39.4574C186.391 45.5016 193.308 51.1429 199.437 56.1333C209.145 64.0373 217.428 70.7944 226.075 75.8468C207.932 70.7635 190.213 67.0749 167.641 78.0785C164.243 79.9383 161.755 82.9139 159.813 87.4393C159.631 87.8733 159.692 88.4002 159.995 88.7412C160.299 89.1131 160.784 89.2681 161.239 89.1131L162.21 88.8342C166.063 87.7493 168.187 87.1604 170.159 85.8895C180.414 79.9383 188.484 76.5907 213.484 80.1863C225.286 81.7361 232.112 84.1538 238.119 86.2925C246.159 89.1441 253.107 91.5928 268.793 91.5928C279.229 91.5928 283.902 90.353 289.332 88.8962C294.976 87.4083 301.377 85.7036 316.183 84.9907C330.806 84.2777 337.511 84.8357 346.067 85.7966C352.742 86.5405 361.389 87.4703 367.244 88.0593C376.953 88.9891 382.474 86.7884 387.511 83.9988C387.268 84.0918 387.025 84.0918 386.752 84.0298C386.115 83.8128 385.751 83.1309 385.964 82.48C386.024 82.294 386.085 82.108 386.146 81.922C381.352 84.5567 376.346 86.4785 367.456 85.6106C361.631 85.0217 352.954 84.0918 346.31 83.3479C344.702 83.1619 343.124 83.0069 341.577 82.8519C338.695 83.2239 335.539 83.7818 331.959 84.5877C331.868 84.6187 331.808 84.6187 331.717 84.6187C331.353 84.6187 331.079 84.4017 330.867 84.1228C330.655 84.4637 330.291 84.6807 329.866 84.6807C329.836 84.6807 329.805 84.6807 329.775 84.6807C323.525 84.1848 318.276 83.6268 313.877 82.635C300.376 83.4099 294.187 85.0526 288.726 86.5095C283.447 87.9043 278.896 89.1131 268.793 89.1131C253.532 89.1131 246.766 86.7264 238.908 83.9368C232.78 81.7671 225.862 79.3184 213.817 77.7376C188.029 74.049 179.655 77.5516 168.915 83.7818C167.489 84.7117 165.851 85.2386 163.242 86.0135C165.153 82.635 167.125 81.1781 168.733 80.3102C192.458 68.7797 210.814 74.049 230.261 79.6283C233.933 80.6822 237.664 81.7671 241.487 82.7279C244.824 83.7508 248.313 84.5257 252.045 85.0217C252.682 85.0836 253.319 84.6497 253.41 83.9678C253.501 83.2859 253.077 82.6659 252.409 82.542C248.769 81.891 245.219 81.0852 241.73 80.1863C232.507 77.3036 224.588 72.4992 216.002 66.114C232.901 77.2726 252.5 85.0526 267.518 83.2239C311.844 78.2025 323.495 73.6771 339.574 67.4159C342.73 66.176 346.067 64.9052 349.86 63.5104C349.647 63.2624 349.404 63.0764 349.192 62.7665C348.828 62.2395 348.555 61.6816 348.252 61.1547C348.282 61.2167 348.312 61.3406 348.373 61.4026C344.823 62.7045 341.698 63.9133 338.695 65.0912C322.766 71.2904 311.237 75.7538 267.215 80.7442C245.583 83.2859 213.817 65.1842 195.583 46.1216C180.778 30.6235 168.278 29.6936 162.18 30.4995C148.618 32.2663 147.192 40.3253 147.677 48.8182ZM176.47 35.2419C181.536 37.3807 187.483 41.2242 193.915 47.9503C194.825 48.9112 195.765 49.8411 196.736 50.802C191.67 46.7105 186.087 42.2161 179.868 37.5357C178.775 36.6368 177.653 35.8929 176.47 35.2419ZM150.408 41.9991C151.379 37.3497 154.382 34.2811 161.512 33.1652C161.27 33.2272 160.996 33.3202 160.754 33.3822C156.446 34.777 152.926 37.7526 150.408 41.9991Z" fill="#333333"/>
<path d="M331.504 82.3567C331.231 82.4186 331.019 82.5736 330.867 82.7906C330.655 82.5116 330.351 82.2947 329.987 82.2637H329.957C330.594 82.2637 331.231 82.2947 331.838 82.2947C331.716 82.3257 331.595 82.3257 331.504 82.3567Z" fill="#333333"/>
<path d="M388.299 83.2555C388.633 82.2016 389.028 81.1477 389.392 80.1249C392.486 78.3271 395.702 76.4673 400.041 74.9485C404.076 73.5227 407.899 71.7869 411.388 69.8032C411.661 69.6482 411.995 69.6172 412.298 69.6792C414.027 70.1751 415.878 70.3921 417.88 70.2991L417.152 68.1604C417.061 67.9124 417.061 67.6025 417.152 67.3545C418.032 64.7198 417.911 62.6741 416.727 61.1553C415.059 58.9546 410.235 56.6298 397.037 57.5597C397.31 56.6918 397.614 55.8549 397.978 55.0181C408.991 54.3361 415.757 55.8239 418.669 59.6365C420.277 61.7442 420.581 64.4719 419.61 67.7574L420.732 71.043C420.854 71.415 420.823 71.7869 420.611 72.1279C420.399 72.4378 420.065 72.6548 419.701 72.6858C416.94 72.9648 414.482 72.8098 412.177 72.2209C408.688 74.1736 404.895 75.8784 400.86 77.3042C396.582 78.792 393.396 80.6518 390.302 82.4806C389.513 82.9455 388.694 83.4105 387.905 83.8754C388.057 83.6894 388.239 83.5034 388.299 83.2555Z" fill="#333333"/>
<path d="M349.04 56.7847C349.738 58.6444 350.345 60.2562 351.194 61.4341C350.133 59.8223 349.435 58.2725 349.04 56.7847Z" fill="#333333"/>
<path d="M346.006 36.5133C346.219 36.6993 346.522 36.7923 346.765 36.7923C347.129 36.7923 347.463 36.6373 347.705 36.3273C347.857 36.1414 347.948 35.8934 347.948 35.6454C347.978 35.8624 347.948 36.1104 347.857 36.3273C347.554 36.9473 346.825 37.1642 346.219 36.8853C342.093 34.7465 337.481 32.1739 332.869 28.7333C335.6 31.058 338.603 33.4137 341.941 35.8314C342.457 36.2033 342.608 36.8853 342.305 37.4432C342.001 38.0011 341.364 38.2491 340.788 38.0011C333.385 34.9015 326.134 30.996 318.579 26.0366C318.185 25.7577 317.851 25.5717 317.578 25.4167C321.917 29.2912 327.469 33.1037 334.083 36.7613C334.599 37.0402 334.841 37.6912 334.659 38.2491C334.477 38.838 333.901 39.148 333.294 39.055C328.167 38.0941 323.221 36.3893 318.579 33.9716C318.337 33.8166 318.094 33.7237 317.851 33.5997C320.825 36.4823 322.948 39.6439 325.042 42.7125C329.744 49.6556 333.871 55.6069 346.249 55.6689C346.37 56.4748 346.583 57.3117 346.856 58.1796C346.613 58.1796 346.37 58.1796 346.158 58.1796C332.536 58.1796 327.924 51.3604 323.039 44.1383C320.885 40.9457 318.61 37.6292 315.515 34.7465C313.695 33.1967 314.029 32.0499 314.393 31.4919C315.363 30.0351 317.882 30.748 319.732 31.7709C321.462 32.6698 323.252 33.4757 325.072 34.1576C321.401 31.7089 318.155 29.2602 315.454 26.7495C314.332 25.7887 313.998 24.2389 314.726 23.278C315.394 22.3791 316.82 21.7902 319.945 23.9289C323.95 26.5636 327.863 28.8883 331.777 30.965C328.379 28.0824 325.406 25.2617 322.827 22.4101C322.068 21.4802 322.099 20.1784 322.888 19.4035C323.161 19.1555 324.617 17.9777 326.923 20.2714C331.14 24.5178 335.539 27.7724 339.787 30.4071C341.607 32.5148 343.67 34.5606 346.006 36.5133Z" fill="#333333"/>
<path d="M359.325 22.9683C358.779 20.2096 357.96 18.9698 357.535 18.5358C357.444 18.8458 357.323 19.4657 357.414 20.5816L358.901 33.5069C358.294 34.0649 357.687 34.6228 357.08 35.1807C356.959 35.0877 356.838 35.0567 356.747 34.9328C352.165 27.8966 348.676 21.3565 346.067 14.9093C345.703 13.8244 345.309 13.2045 345.005 12.8325C345.005 13.0805 345.005 13.4215 345.096 13.8554C347.038 20.7675 348.949 26.2228 352.287 31.9261C352.59 32.4531 352.499 33.104 352.044 33.4759C351.589 33.8479 350.952 33.9099 350.497 33.5379C344.762 29.0435 339.362 23.5882 333.931 16.831C336.601 23.2472 341.061 29.0745 347.554 34.5608C347.887 34.8398 348.009 35.2427 347.978 35.6147C347.948 35.2117 347.736 34.8398 347.341 34.6228C344.944 33.3829 342.396 31.9881 339.787 30.3763C335.812 25.9439 332.93 21.2325 331.079 16.1491C330.503 14.5373 330.078 12.4606 331.383 11.7787C332.839 11.0038 334.144 12.9565 334.872 14.0724C338.968 19.3107 343.063 23.7742 347.311 27.6487C345.46 23.5882 344.125 19.3727 342.73 14.4133C342.062 10.9418 343.67 10.1979 344.186 10.0429C345.4 9.70193 347.129 10.5698 348.312 13.9794C350.284 18.8458 352.772 23.8052 355.927 29.0125L354.987 20.7675C354.683 16.6451 356.382 15.9631 357.111 15.8702C358.87 15.6532 360.387 17.5439 361.328 20.8295C360.933 20.7985 360.569 20.8915 360.236 21.1085C359.629 21.5424 359.386 22.2243 359.325 22.9683Z" fill="#333333"/>
<path d="M347.978 35.6766C347.948 35.9246 347.887 36.1415 347.736 36.3585C347.493 36.6685 347.159 36.8234 346.795 36.8234C346.522 36.8234 346.249 36.7304 346.037 36.5445C343.701 34.5607 341.638 32.546 339.817 30.4692C342.426 32.081 344.975 33.4759 347.372 34.7157C347.705 34.9017 347.918 35.2736 347.978 35.6766Z" fill="#333333"/>
<path d="M348.282 61.2481C347.705 60.2252 347.22 59.2023 346.886 58.2104C346.917 58.2104 346.947 58.2104 346.947 58.2104C347.372 59.2953 347.796 60.3182 348.282 61.2481Z" fill="#333333"/>
<path d="M395.065 55.7618C395.581 54.305 396.188 52.9102 396.946 51.6083C397.037 51.4533 397.128 51.3294 397.28 51.2364C402.377 47.4548 405.775 43.9523 407.474 40.7907L414.907 29.0122C415.514 28.0823 415.696 27.2764 415.423 26.7805C415.12 26.2535 414.3 25.9746 413.36 26.0365C412.874 26.0365 412.51 25.8506 412.268 25.4786C412.025 25.1067 411.995 24.6417 412.177 24.2388L415.575 17.2027C416.515 15.1259 416.151 13.3591 415.484 12.3673C415.18 11.9643 414.573 11.3134 413.572 11.4064C412.844 11.4684 410.933 12.1193 409.082 16.3658C408.839 16.9237 408.233 17.2027 407.656 17.0477C407.08 16.8927 406.716 16.3348 406.746 15.7458C406.958 13.3591 406.716 10.3215 406.078 6.78798C405.472 3.90535 404.44 2.54152 403.742 2.47953C403.226 2.32454 402.074 3.4714 401.224 5.79611C400.071 9.29866 399.525 11.8713 399.131 15.6219C399.07 16.2108 398.615 16.6757 398.038 16.7377C397.462 16.7687 396.916 16.4278 396.764 15.8698L394.64 8.67874C393.366 4.71124 392.486 4.21531 392.486 4.15331C392.395 4.18431 391.576 4.74224 390.575 8.64775C389.574 12.0883 389.361 14.599 389.21 19.2794C389.21 19.8373 388.815 20.3023 388.299 20.4573C387.814 20.5812 387.268 20.3643 386.995 19.8683C385.326 16.9547 384.659 15.0019 383.84 12.4603C383.263 9.94958 382.141 9.20568 381.716 9.14368C381.17 9.20568 380.533 10.1975 380.472 11.9333C380.381 16.4278 380.988 21.0462 382.323 25.6646C382.474 26.1915 382.262 26.7805 381.807 27.0594C381.352 27.3694 380.745 27.2764 380.351 26.9044C377.954 24.5797 375.891 21.8521 374.161 18.7215C372.068 14.9399 370.308 14.196 370.065 14.32C369.944 14.382 369.368 15.3739 370.187 18.2875C371.916 23.6189 373.888 27.6793 376.164 30.686C376.497 31.1199 376.497 31.7398 376.164 32.2048C375.83 32.6387 375.254 32.8247 374.738 32.6077C371.279 31.1509 367.699 28.7332 363.755 25.2306C362.723 24.2698 362.056 23.8048 361.661 23.5879C361.692 23.9908 361.783 24.7347 362.117 25.9126C362.481 27.4934 363.027 28.8882 364.089 30.8409C364.362 31.3369 364.24 31.9878 363.816 32.3597L362.875 33.1966C354.805 40.3567 346.522 47.7648 349.01 56.7537C348.98 56.6607 348.949 56.5987 348.919 56.5057C348.737 56.0098 348.221 55.5758 347.736 55.6998C347.22 55.7308 346.765 55.6998 346.279 55.6998C345.066 47.7958 350.8 41.0387 357.019 35.1804C357.353 35.4284 357.717 35.5523 358.112 35.3974C358.627 35.2114 358.961 34.6535 358.901 34.0955L358.84 33.5066C359.659 32.7627 360.478 32.0498 361.267 31.3369L361.479 31.1509C360.6 29.4151 360.084 28.0203 359.72 26.5015C359.386 25.2616 359.174 23.9908 359.265 22.9369C359.265 22.9679 359.265 22.9679 359.265 22.9989C359.386 23.6808 360.023 24.1148 360.691 23.9598C361.358 23.8358 361.783 23.1849 361.631 22.503C361.51 21.9141 361.388 21.3871 361.237 20.8602C362.481 20.9222 363.907 22.0381 365.302 23.3399C367.517 25.3236 369.61 26.9044 371.613 28.1753C370.217 25.6026 368.943 22.565 367.79 18.9694C366.789 15.3739 367.244 12.7702 369.034 11.9953C371.127 11.0964 373.767 13.1422 376.194 17.4506C376.983 18.8765 377.863 20.2403 378.803 21.4801C378.196 18.2255 377.923 14.9709 378.014 11.7783C378.105 8.43077 379.804 6.75699 381.443 6.602C383.142 6.44702 385.235 7.71786 386.145 11.7164C386.449 12.7082 386.722 13.5451 387.025 14.351C387.268 12.1503 387.632 10.2285 388.269 7.99683C389.331 3.75036 390.636 1.76662 392.395 1.70462C394.185 1.70462 395.581 3.56439 396.977 7.93484L397.553 9.91858C397.887 8.33778 398.342 6.75698 398.918 4.99021C400.557 0.46478 402.802 -0.0621534 403.894 0.0308349C405.108 0.123823 407.322 1.05371 408.445 6.32304C408.779 8.2138 409.021 9.91858 409.143 11.4994C410.781 9.54663 412.359 9.0507 413.33 8.95771C414.998 8.80273 416.454 9.54663 417.456 10.9725C418.821 12.9252 418.942 15.7458 417.759 18.3185L415.12 23.7738C416.151 24.0838 417.031 24.7037 417.516 25.5406C417.971 26.3155 418.487 27.9893 416.94 30.376L409.567 42.0615C407.747 45.5021 404.288 49.0976 398.918 53.0961C398.554 53.716 398.281 54.398 397.978 55.0799C397.31 55.1109 396.673 55.1419 395.975 55.2039C395.581 55.2349 395.278 55.4518 395.065 55.7618Z" fill="#333333"/>
<path d="M387.541 84.0302C387.662 83.9682 387.784 83.9062 387.875 83.8442C387.753 83.9372 387.662 83.9992 387.541 84.0302Z" fill="#333333"/>
<path d="M394.883 56.3506C394.883 56.4126 394.853 56.4746 394.853 56.5366C394.914 57.2185 395.46 57.7764 396.158 57.6834C396.461 57.6524 396.734 57.6524 397.007 57.6214C396.218 60.1631 395.793 62.9217 395.824 66.0214C395.824 66.2383 395.763 66.4553 395.642 66.6723C393.154 70.9497 391.06 75.4752 389.361 80.1556C389.24 80.2176 389.149 80.2795 389.028 80.3415C388.057 80.8995 387.116 81.4574 386.146 81.9843C387.996 76.3121 390.423 70.8257 393.366 65.7114C393.427 62.2398 393.943 59.1712 394.883 56.3506Z" fill="#333333"/>
<path d="M351.376 62.5189C351.498 62.147 351.437 61.744 351.194 61.4341C351.194 61.4341 351.194 61.4341 351.194 61.4651C352.287 63.0149 353.075 63.0769 355.836 62.7359C356.018 62.7049 356.2 62.7359 356.382 62.7979C355.594 62.8599 354.835 62.9219 353.986 62.9839C353.348 63.0459 352.924 63.6348 352.984 64.2547C353.045 64.8746 353.591 65.3396 354.228 65.2776C355.23 65.1536 356.14 65.0916 357.08 65.0296C355.624 76.6842 339.483 80.1557 320.187 81.2716C323.13 81.6745 326.377 81.9845 329.957 82.2635C326.134 82.2015 321.674 82.2944 316.092 82.5734C315.333 82.6044 314.605 82.6664 313.907 82.6974C312.481 82.3874 311.146 82.0155 309.902 81.6125C309.326 81.4266 308.992 80.8376 309.083 80.2487C309.174 79.6598 309.66 79.1948 310.266 79.1948C332.111 78.6679 352.499 76.5912 354.623 65.3396C352.772 65.4636 351.285 65.1226 349.89 63.6038C350.132 63.5108 350.375 63.4178 350.648 63.3248C350.982 63.2009 351.255 62.8909 351.376 62.5189Z" fill="#D12B39"/>
<path d="M329.926 82.263H329.957C330.321 82.294 330.624 82.5109 330.837 82.7899C330.624 83.0689 330.533 83.4098 330.594 83.7508C330.624 83.9368 330.745 84.0298 330.867 84.1847C330.654 84.5257 330.29 84.7427 329.866 84.7427C329.835 84.7427 329.805 84.7427 329.775 84.7427C323.525 84.2467 318.276 83.6888 313.877 82.6969C314.605 82.6659 315.303 82.6039 316.061 82.5729C321.674 82.294 326.104 82.201 329.926 82.263Z" fill="#333333"/>
<path d="M347.736 55.7307C348.221 55.6067 348.737 56.0407 348.919 56.5366C348.949 56.6296 348.98 56.6916 349.01 56.7846C349.435 58.2724 350.102 59.8222 351.164 61.434C351.407 61.7439 351.467 62.1469 351.346 62.5188C351.225 62.8908 350.952 63.2008 350.588 63.3247C350.345 63.4177 350.102 63.5107 349.829 63.6037C349.617 63.3557 349.374 63.1698 349.162 62.8598C348.798 62.3329 348.524 61.7749 348.221 61.248C347.736 60.3181 347.311 59.2953 346.916 58.2104C346.886 58.2104 346.856 58.2104 346.856 58.2104C346.583 57.3735 346.37 56.5366 346.249 55.6997C346.765 55.7307 347.25 55.7307 347.736 55.7307Z" fill="#333333"/>
<path d="M386.783 84.061C386.146 83.8441 385.781 83.1621 385.994 82.5112C386.055 82.3252 386.115 82.1393 386.176 81.9533C387.147 81.4264 388.087 80.8994 389.058 80.3105C389.179 80.2485 389.27 80.1865 389.392 80.1245C389.028 81.1784 388.633 82.2013 388.3 83.2551C388.209 83.5031 388.057 83.6891 387.875 83.844C387.754 83.906 387.632 83.968 387.541 84.03C387.298 84.123 387.025 84.154 386.783 84.061Z" fill="#333333"/>
<path d="M396.158 57.6525C395.46 57.7455 394.914 57.1875 394.853 56.5056C394.853 56.4436 394.883 56.3817 394.883 56.3197C394.944 56.1337 395.005 55.9167 395.065 55.7307C395.278 55.4208 395.581 55.2038 395.976 55.1728C396.673 55.1108 397.31 55.1108 397.978 55.0488C397.614 55.8547 397.31 56.7226 397.037 57.5905C396.734 57.6215 396.461 57.6525 396.158 57.6525Z" fill="#333333"/>
<path d="M360.751 24.022C360.084 24.146 359.447 23.712 359.325 23.0611C359.325 23.0301 359.325 23.0301 359.325 22.9991C359.416 22.2242 359.629 21.5733 360.235 21.2013C360.569 20.9844 360.933 20.9224 361.328 20.9224C361.479 21.4493 361.601 21.9762 361.722 22.5652C361.843 23.2161 361.419 23.867 360.751 24.022Z" fill="#333333"/>
<path d="M358.931 34.1265C358.992 34.6845 358.658 35.2424 358.142 35.4284C357.748 35.5833 357.353 35.4593 357.05 35.2114C357.657 34.6535 358.263 34.0955 358.87 33.5376L358.931 34.1265Z" fill="#333333"/>
<path d="M352.802 80.3412C357.323 80.6822 360.964 79.2874 362.784 76.6217C364.999 71.9723 367.244 68.1908 369.55 65.1222C366.182 64.6262 362.026 64.6262 357.05 65.0292C357.08 64.6882 357.171 64.3783 357.171 64.0063C357.202 63.6343 357.05 63.2934 356.777 63.0454C356.656 62.9214 356.504 62.8285 356.322 62.7665C362.693 62.2085 367.851 62.3325 371.856 63.2004C372.25 63.2934 372.584 63.5724 372.705 63.9753C372.826 64.3783 372.766 64.7812 372.493 65.0912C369.853 68.2528 367.335 72.3442 364.695 77.7996C362.329 81.3021 357.96 83.0999 352.529 82.6659C349.435 82.263 345.855 82.356 341.546 82.8829C338.452 82.6039 335.357 82.387 331.747 82.294C340.818 80.2792 347.523 79.6593 352.802 80.3412Z" fill="#D12B39"/>
<path d="M330.867 82.7904C331.019 82.6044 331.231 82.4184 331.504 82.3564C331.625 82.3254 331.716 82.3254 331.838 82.2944C335.448 82.3874 338.543 82.6044 341.637 82.8834C338.755 83.2553 335.6 83.8132 332.02 84.6191C331.929 84.6501 331.868 84.6501 331.777 84.6501C331.413 84.6501 331.14 84.4332 330.928 84.1542C331.049 83.9682 331.11 83.7822 331.14 83.5653C331.11 83.2863 331.019 83.0073 330.867 82.7904Z" fill="#333333"/>
<path d="M357.202 64.0067C357.171 64.3476 357.111 64.6886 357.08 65.0296C356.14 65.0915 355.23 65.1845 354.228 65.2775C353.561 65.3395 353.045 64.8746 352.984 64.2547C352.924 63.6037 353.379 63.0458 353.986 62.9838C354.835 62.8908 355.563 62.8598 356.383 62.7979C356.534 62.8598 356.686 62.9528 356.838 63.0768C357.08 63.2938 357.202 63.6347 357.202 64.0067Z" fill="#D12B39"/>
<path d="M330.867 82.7905C331.019 83.0075 331.14 83.2865 331.11 83.5964C331.079 83.8134 331.019 83.9994 330.897 84.1853C330.806 84.0614 330.685 83.9374 330.624 83.7514C330.533 83.3795 330.655 83.0385 330.867 82.7905Z" fill="#333333"/>
<path d="M408.536 63.604C409.386 63.604 410.053 64.2239 410.053 65.0298C410.053 65.8047 409.386 66.4556 408.536 66.4556C407.687 66.4556 407.019 65.8357 407.019 65.0298C407.019 64.2549 407.717 63.604 408.536 63.604Z" fill="#333333"/>
<path d="M397.766 18.2563C398.19 18.2563 398.524 18.5973 398.524 19.0312V34.1883C398.524 34.6223 398.19 34.9632 397.766 34.9632C397.341 34.9632 397.007 34.6223 397.007 34.1883V19.0312C397.007 18.6283 397.341 18.2563 397.766 18.2563Z" fill="#333333"/>
<path d="M388.724 22.6891C389.119 22.5651 389.543 22.7821 389.665 23.185L393.123 33.9717C393.245 34.3746 393.032 34.8086 392.638 34.9326C392.547 34.9636 392.486 34.9636 392.395 34.9636C392.062 34.9636 391.788 34.7466 391.667 34.4366L388.208 23.65C388.117 23.247 388.33 22.8131 388.724 22.6891Z" fill="#333333"/>
<path d="M382.353 28.2988C382.687 28.0508 383.172 28.1128 383.415 28.4538L387.754 34.498C387.996 34.839 387.936 35.3349 387.602 35.5829C387.48 35.6758 387.298 35.7378 387.147 35.7378C386.904 35.7378 386.692 35.6139 386.54 35.4279L382.201 29.3836C381.928 29.0427 381.989 28.5467 382.353 28.2988Z" fill="#333333"/>
<path d="M378.834 33.0726L383.233 36.2962C383.567 36.5441 383.658 37.0401 383.415 37.381C383.263 37.598 383.021 37.691 382.808 37.691C382.657 37.691 382.505 37.629 382.353 37.536L377.954 34.3124C377.62 34.0644 377.529 33.5685 377.772 33.2275C378.015 32.9176 378.5 32.8246 378.834 33.0726Z" fill="#333333"/>
<path d="M407.019 18.318C407.413 18.473 407.626 18.9069 407.474 19.3099L402.347 33.971C402.225 34.281 401.952 34.498 401.619 34.498C401.528 34.498 401.437 34.498 401.376 34.467C400.981 34.312 400.769 33.878 400.921 33.4751L406.048 18.8139C406.2 18.38 406.655 18.163 407.019 18.318Z" fill="#333333"/>
</svg>
