<svg width="255" height="199" viewBox="0 0 255 199" fill="none" xmlns="http://www.w3.org/2000/svg">
<path opacity="0.9" d="M208.119 47.8521L210.853 55.7034L200.731 74.9931L195.524 84.9147L191.068 93.4153L186.09 102.903L180.509 113.527L175.7 122.685L170.493 132.607L165.827 141.512L164.825 143.412C164.719 143.622 164.703 143.875 164.788 144.093C164.888 144.313 165.058 144.477 165.29 144.538C187.239 151.041 211.996 153.429 238.881 151.667C238.946 151.659 239.011 151.651 239.077 151.627C239.228 151.566 239.368 151.472 239.464 151.341C239.599 151.15 239.646 150.901 239.579 150.669L234.993 133.658L232.453 124.252L230.09 115.474L227.585 106.169L225.124 97.0281L222.639 87.8207L220.722 80.7091L218.247 71.5507L213.801 55.0668L217.08 48.5879C221.138 39.8303 206.154 38.8212 208.119 47.8521ZM233.566 134.357C230.546 135.829 227.385 137.141 224.074 138.258C208.05 143.673 188.821 144.876 167.471 141.749L172.174 132.801C195.446 135.722 215.64 133.044 231.054 124.986L233.566 134.357ZM228.646 116.059C226.898 116.782 225.139 117.471 223.308 118.088C210.012 122.583 194.513 124.173 177.422 122.805L182.253 113.602C199.039 114.469 213.925 112.181 226.167 106.805L228.646 116.059ZM223.657 97.5465C223.474 97.6035 223.306 97.6781 223.123 97.7351C212.64 101.274 200.772 103.013 187.84 102.93L192.857 93.3834C203.244 93.0376 212.747 91.3535 221.168 88.3705L223.657 97.5465ZM219.235 81.1294C212.444 83.0562 205.134 84.2805 197.374 84.7788L202.622 74.7826C207.589 74.1908 212.315 73.234 216.762 71.9553L219.235 81.1294Z" fill="#D12B39"/>
<path d="M185.615 20.5751L82.2771 21.4712L83.4431 157.6L186.781 156.704L185.615 20.5751Z" fill="white" stroke="#333333" stroke-width="2" stroke-miterlimit="10" stroke-linecap="round" stroke-linejoin="round"/>
<path d="M187.548 59.0453L155.945 59.406L163.597 53.5206C163.685 53.4519 163.773 53.3832 163.848 53.2969C167.555 49.6458 168.559 45.0513 166.498 40.9993C164.354 36.7294 159.315 34.0596 154.778 34.7848C153.803 34.9342 152.201 35.3879 150.663 36.5991L150.458 19.2096L142.556 19.3076L142.922 51.8809L138.705 46.3319C138.637 46.2436 138.568 46.1553 138.482 46.0808C134.85 42.3588 130.257 41.3551 126.195 43.3833C121.927 45.5293 119.259 50.5539 119.968 55.091C120.135 56.1801 120.679 58.0816 122.284 59.7808L80.9756 60.2536L81.008 68.1663L136.729 67.5312L131.737 71.5162C131.701 71.5437 131.682 71.5732 131.648 71.5849C125.978 76.5376 127.261 81.4495 128.062 83.3352C128.988 85.4918 130.756 87.291 132.889 88.466C134.917 89.5802 137.271 90.1292 139.594 89.9088C140.965 89.777 142.215 89.343 143.329 88.7167L144.123 158.719L152.025 158.621L151.022 71.133L156.681 78.1535C156.71 78.1731 156.722 78.2064 156.752 78.226C158.021 79.676 159.283 80.6786 160.491 81.3396C164.011 83.2778 167.1 82.4037 168.515 81.799C172.726 79.9807 175.544 75.0228 175.053 70.2737C174.941 69.1276 174.643 68.0699 174.174 67.1025L187.582 66.9424L187.548 59.0453ZM152.212 44.8765C152.519 42.9218 153.374 40.5411 155.668 40.1736C157.847 39.8238 160.592 41.3303 161.649 43.4555C162.838 45.8043 161.522 47.9202 160.155 49.2962L150.954 56.3594L152.212 44.8765ZM128.675 48.285C130.172 47.531 131.557 47.7996 132.736 48.4411C133.407 48.8118 134 49.3003 134.51 49.8104L141.522 59.009L130.111 57.7282C128.157 57.4205 125.777 56.5654 125.41 54.2714C125.06 52.0911 126.567 49.3452 128.675 48.285ZM143.243 80.0798C142.814 81.9875 141.737 84.2289 139.107 84.4905C136.735 84.7207 134.006 83.2161 133.127 81.193C132.199 79.0521 133.754 77.0618 135.241 75.7485L143.156 69.4176L144.27 68.5362L143.279 79.6697L143.243 80.0798ZM169.692 70.8323C169.924 73.1892 168.418 75.9351 166.413 76.801C164.273 77.7297 162.283 76.174 160.971 74.6867L155.036 67.3287L153.725 65.6982L165.295 66.7278C165.776 66.8356 166.282 66.9945 166.767 67.1984C168.189 67.8065 169.488 68.8934 169.692 70.8323Z" fill="#D12B39" stroke="#D12B39" stroke-miterlimit="10"/>
<path d="M11.9961 93.5625L4.50643 153.569L100.24 165.518L107.73 105.511" fill="white"/>
<path d="M11.9961 93.5625L4.50643 153.569L100.24 165.518L107.73 105.511" stroke="#333333" stroke-width="2" stroke-miterlimit="10" stroke-linecap="round" stroke-linejoin="round"/>
<path d="M107.03 123.506L8.25146 111.177L6.22913 127.38L105.007 139.709L107.03 123.506Z" fill="#D12B39"/>
<path d="M111.604 91.8371L11.6016 79.3555L9.86142 93.2974L109.864 105.779L111.604 91.8371Z" fill="white" stroke="#333333" stroke-width="2" stroke-miterlimit="10" stroke-linecap="round" stroke-linejoin="round"/>
<path d="M102.945 61.6082C100.128 59.6621 92.4532 57.301 82.4551 63.7227C76.6509 67.4469 68.5674 73.5972 62.7121 76.8367C57.8327 72.2574 51.509 64.3088 46.7982 59.2722C38.6853 50.5901 30.6658 50.9923 27.4566 52.1862C20.8361 54.6605 18.9203 60.6878 18.8975 65.596C18.8864 70.9202 23.1007 75.0817 27.921 77.5808C34.715 81.1234 38.9603 82.3549 44.9732 83.7272C37.0404 87.1379 29.4608 91.1667 21.5891 96.1317L27.3764 97.7788L26.6436 104.161C38.2698 96.8264 48.7427 91.8353 61.3129 87.6641C73.5962 95.1128 82.064 102.484 92.2781 112.465L93.1542 106.467L98.9275 105.673C92.1096 99.0021 85.796 93.2711 78.6271 87.8798C84.6025 88.0197 88.9772 87.8323 96.2843 86.1134C101.573 84.8601 106.697 81.8642 107.977 76.7143C109.13 71.9471 108.754 65.6339 102.945 61.6082ZM28.375 69.0909C26.2146 64.9466 29.4684 59.9474 34.0844 60.1249C38.3041 60.2849 42.1574 64.1462 44.7061 67.0952C48.2024 71.1351 49.8152 73.0266 53.4686 77.8515C53.8944 78.3989 53.659 79.0074 52.9253 78.8839C46.3181 77.8041 39.6991 76.4358 33.6311 73.4621C31.5417 72.4519 29.4562 71.1552 28.375 69.0909ZM97.8683 77.7646C96.3129 79.4998 93.9726 80.2441 91.6971 80.7255C85.1 82.1184 78.3477 81.8178 71.6621 81.2384C70.9049 81.1758 70.842 80.5302 71.3893 80.1042C76.1165 76.3253 78.1447 74.8883 82.5268 71.8317C85.7222 69.5996 90.4064 66.8039 94.5359 67.6861C99.0716 68.6348 100.979 74.2942 97.8683 77.7646Z" fill="#D12B39" stroke="white" stroke-width="0.4" stroke-miterlimit="10" stroke-linecap="round" stroke-linejoin="round"/>
<path d="M17.0826 145.522L17.5531 143.54L17.459 143.528L16.6274 145.083L13.9894 148.596L13.3459 148.516L11.5445 144.433L11.1029 142.735L11.0244 142.725L11.0561 144.77L10.3976 150.046L8.51435 149.811L9.78223 139.652L11.6027 139.88L13.7378 144.866L14.0793 146.088L14.142 146.096L14.7304 144.958L17.8804 140.663L19.6852 140.888L18.4173 151.047L16.4242 150.798L17.0826 145.522Z" fill="#333333"/>
<path d="M25.9813 151.354C25.6694 151.555 25.2378 151.692 24.7317 151.788C24.2099 151.883 23.6822 151.897 23.1172 151.826C21.9402 151.679 21.1358 151.228 20.6708 150.484C20.2057 149.741 20.0565 148.765 20.2054 147.572C20.3642 146.3 20.7819 145.38 21.4743 144.813C22.1667 144.245 23.0534 144.037 24.1677 144.176C24.5286 144.221 24.8837 144.313 25.2172 144.451C25.5507 144.588 25.845 144.784 26.0844 145.037C26.3238 145.29 26.5062 145.616 26.6318 146.014C26.7574 146.413 26.7771 146.893 26.7066 147.459C26.6811 147.663 26.638 147.881 26.5929 148.114C26.5321 148.346 26.4713 148.577 26.3929 148.823L22.0613 148.282C22.0163 148.898 22.1164 149.373 22.3597 149.722C22.603 150.072 23.0385 150.286 23.682 150.366C24.0743 150.415 24.4432 150.397 24.7727 150.311C25.1023 150.224 25.3514 150.144 25.5417 150.024L25.9813 151.354ZM23.9462 145.695C23.4597 145.634 23.0811 145.731 22.8084 146C22.5358 146.268 22.3456 146.643 22.2377 147.124L24.9214 147.459C25.0175 146.945 24.9899 146.527 24.8369 146.221C24.6662 145.928 24.3699 145.748 23.9462 145.695Z" fill="#333333"/>
<path d="M33.9435 150.387C33.8926 150.796 33.8417 151.204 33.8064 151.614C33.7711 152.024 33.7477 152.468 33.7634 152.98L32.4137 152.811L32.2645 151.836L32.2017 151.828C31.9703 152.15 31.6545 152.382 31.2681 152.541C30.8816 152.7 30.4442 152.757 29.9419 152.694C29.0317 152.581 28.3627 152.194 27.9349 151.535C27.5072 150.876 27.3737 149.902 27.5324 148.631C27.6872 147.39 28.0892 146.468 28.7405 145.847C29.3917 145.227 30.2509 144.984 31.3338 145.119C31.6319 145.156 31.8811 145.203 32.0655 145.258C32.2499 145.313 32.4461 145.401 32.6246 145.503L32.993 142.551L34.8763 142.787L33.9279 150.385L33.9435 150.387ZM30.597 151.15C30.9579 151.195 31.2679 151.138 31.4934 150.991C31.7347 150.845 31.9093 150.596 32.0446 150.278L32.4287 147.201C32.3011 147.073 32.1697 146.977 32.0029 146.908C31.8519 146.842 31.6361 146.783 31.3693 146.75C30.8357 146.683 30.4218 146.807 30.1099 147.135C29.798 147.462 29.5961 148.059 29.4883 148.923C29.4119 149.535 29.459 150.051 29.6317 150.455C29.8044 150.859 30.1261 151.091 30.597 151.15Z" fill="#333333"/>
<path d="M36.3243 143.829C36.3596 143.547 36.4988 143.325 36.7283 143.146C36.9578 142.967 37.2678 142.91 37.6287 142.956C37.9897 143.001 38.2761 143.132 38.4861 143.365C38.696 143.599 38.7765 143.848 38.7412 144.131C38.7059 144.413 38.5667 144.635 38.3077 144.794C38.0645 144.955 37.7545 145.012 37.3779 144.965C37.0169 144.92 36.7305 144.789 36.55 144.575C36.3695 144.361 36.289 144.112 36.3243 143.829ZM36.3501 145.921L38.2334 146.156L37.328 153.41L35.4447 153.175L36.3501 145.921Z" fill="#333333"/>
<path d="M44.3685 153.827C44.0585 154.011 43.678 154.123 43.2562 154.182C42.8344 154.241 42.4029 154.251 41.9634 154.196C41.3827 154.124 40.908 153.969 40.5235 153.729C40.1389 153.49 39.8564 153.2 39.6464 152.839C39.4365 152.478 39.2991 152.046 39.248 151.561C39.197 151.076 39.1989 150.55 39.2714 149.97C39.4242 148.745 39.8243 147.838 40.4578 147.232C41.0914 146.625 41.931 146.411 42.9825 146.542C43.5161 146.609 43.934 146.709 44.2537 146.828C44.5735 146.948 44.8403 147.109 45.0914 147.268L44.4443 148.75C44.2383 148.612 44.0284 148.506 43.8165 148.416C43.6046 148.326 43.3574 148.263 43.0749 148.228C42.557 148.163 42.1274 148.285 41.8175 148.597C41.5076 148.909 41.2978 149.441 41.2037 150.195C41.1645 150.509 41.1606 150.795 41.1901 151.07C41.2196 151.345 41.302 151.578 41.404 151.782C41.5217 151.988 41.6748 152.167 41.8808 152.304C42.0868 152.442 42.33 152.536 42.6282 152.573C42.9421 152.612 43.2305 152.6 43.46 152.549C43.6895 152.498 43.9073 152.414 44.0936 152.325L44.3685 153.827Z" fill="#333333"/>
<path d="M46.265 147.573C46.6789 147.449 47.1516 147.365 47.697 147.337C48.2423 147.31 48.7995 147.316 49.3801 147.388C49.8823 147.451 50.2982 147.566 50.6121 147.733C50.9417 147.902 51.187 148.108 51.3479 148.351C51.5088 148.594 51.6324 148.881 51.6717 149.205C51.7109 149.529 51.7149 149.88 51.6659 150.272C51.613 150.696 51.5444 151.118 51.4582 151.554C51.3739 151.974 51.3053 152.396 51.2524 152.82C51.1994 153.244 51.1504 153.636 51.1328 154.033C51.1152 154.429 51.131 154.814 51.2134 155.175L49.6754 154.983L49.5026 153.941L49.4242 153.931C49.1986 154.206 48.8985 154.439 48.5278 154.6C48.157 154.761 47.7019 154.832 47.1526 154.764C46.8073 154.72 46.515 154.636 46.262 154.493C46.0069 154.365 45.7911 154.179 45.6263 153.967C45.4615 153.755 45.332 153.516 45.2554 153.235C45.1769 152.97 45.1671 152.666 45.2063 152.352C45.2611 151.912 45.4023 151.547 45.6455 151.259C45.8868 150.986 46.2006 150.77 46.6008 150.629C47.001 150.487 47.4561 150.417 47.9838 150.403C48.5115 150.389 49.0941 150.446 49.718 150.555C49.8493 150.014 49.865 149.633 49.7531 149.38C49.6413 149.127 49.3274 148.96 48.8252 148.897C48.4485 148.85 48.0522 148.833 47.6187 148.858C47.1852 148.884 46.8281 148.935 46.5457 149.027L46.265 147.573ZM47.992 153.274C48.3687 153.321 48.6767 153.28 48.9179 153.134C49.1592 152.989 49.3534 152.838 49.4731 152.645L49.5906 151.703C49.2964 151.635 49.0139 151.6 48.7294 151.58C48.445 151.56 48.2037 151.578 47.9761 151.614C47.7486 151.649 47.5779 151.739 47.4386 151.833C47.2974 151.943 47.215 152.093 47.1915 152.281C47.1582 152.548 47.2092 152.777 47.3485 152.938C47.4996 153.133 47.7095 153.239 47.992 153.274Z" fill="#333333"/>
<path d="M56.7729 155.837L57.2648 151.896C57.349 151.221 57.345 150.742 57.2548 150.444C57.1645 150.146 56.9153 149.971 56.523 149.922C56.1934 149.881 55.9148 149.942 55.6893 150.089C55.4637 150.236 55.2773 150.452 55.1322 150.721L54.5286 155.557L52.6454 155.322L53.5507 148.068L55.0102 148.251L55.1104 149.236L55.1732 149.243C55.4321 148.957 55.7479 148.725 56.1226 148.533C56.4972 148.34 56.9504 148.285 57.4997 148.354C57.9705 148.413 58.3354 148.554 58.6101 148.78C58.8848 149.005 59.0653 149.347 59.183 149.808C59.4498 149.458 59.7695 149.195 60.1579 149.021C60.5306 148.844 60.9681 148.787 61.4546 148.848C61.8626 148.899 62.202 148.989 62.4728 149.118C62.7435 149.248 62.9574 149.45 63.1006 149.707C63.2438 149.964 63.3459 150.295 63.3734 150.713C63.4009 151.131 63.3873 151.624 63.3108 152.236L62.768 156.585L60.8847 156.35L61.3942 152.268C61.4648 151.703 61.4569 151.256 61.3666 150.957C61.2763 150.659 61.0272 150.484 60.6191 150.433C60.2738 150.39 59.9953 150.451 59.7834 150.616C59.5559 150.779 59.3833 151.013 59.2499 151.315L58.6562 156.072L56.7729 155.837Z" fill="#333333"/>
<path d="M70.2074 156.874C69.8955 157.075 69.4639 157.212 68.9578 157.308C68.436 157.403 67.9083 157.417 67.3433 157.346C66.1662 157.199 65.3619 156.748 64.8968 156.004C64.4318 155.261 64.2826 154.285 64.4315 153.092C64.5903 151.82 65.008 150.9 65.7004 150.333C66.3928 149.765 67.2795 149.557 68.3938 149.696C68.7547 149.741 69.1098 149.833 69.4433 149.971C69.7768 150.108 70.0711 150.304 70.3105 150.557C70.5498 150.81 70.7323 151.136 70.8579 151.534C70.9835 151.933 71.0032 152.413 70.9327 152.979C70.9072 153.183 70.8641 153.401 70.819 153.634C70.7582 153.866 70.6974 154.097 70.619 154.343L66.2874 153.802C66.2424 154.418 66.3425 154.893 66.5858 155.242C66.8291 155.592 67.2646 155.806 67.9081 155.886C68.3004 155.935 68.6692 155.917 68.9988 155.831C69.3284 155.744 69.5775 155.664 69.7677 155.544L70.2074 156.874ZM68.1723 151.215C67.6858 151.154 67.3072 151.251 67.0345 151.52C66.7619 151.788 66.5716 152.163 66.4638 152.644L69.1475 152.979C69.2436 152.465 69.216 152.047 69.063 151.741C68.8923 151.448 68.596 151.268 68.1723 151.215Z" fill="#333333"/>
<path d="M76.1393 158.254L76.6527 154.141C76.7272 153.544 76.7016 153.11 76.5603 152.838C76.421 152.549 76.1542 152.388 75.7461 152.337C75.3852 152.292 75.0733 152.365 74.7967 152.538C74.5201 152.711 74.3142 152.956 74.1671 153.24L73.5811 157.935L71.6978 157.7L72.6032 150.446L74.0941 150.632L74.1943 151.618L74.2571 151.625C74.516 151.339 74.8475 151.109 75.2378 150.919C75.6282 150.728 76.1284 150.679 76.7091 150.751C77.0701 150.797 77.3781 150.883 77.6488 151.012C77.9196 151.142 78.1354 151.328 78.2963 151.571C78.4572 151.815 78.5769 152.133 78.622 152.537C78.6692 152.925 78.6575 153.402 78.5869 153.968L78.0245 158.474L76.1412 158.238L76.1393 158.254Z" fill="#333333"/>
<path d="M79.7441 151.337L80.7485 151.463L80.919 150.097L82.8689 149.798L82.6318 151.698L84.4052 151.919L84.2053 153.52L82.4319 153.299L82.0851 156.078C82.0224 156.58 82.0244 156.947 82.1068 157.181C82.1735 157.413 82.3638 157.548 82.6306 157.581C82.819 157.605 82.9936 157.611 83.1407 157.581C83.2858 157.567 83.4506 157.524 83.6331 157.467L83.7824 158.953C83.4999 159.045 83.188 159.118 82.8329 159.153C82.4759 159.204 82.111 159.191 81.7657 159.147C81.1066 159.065 80.6259 158.83 80.3551 158.445C80.0844 158.061 79.998 157.476 80.096 156.691L80.5525 153.033L79.5481 152.907L79.7441 151.337Z" fill="#333333"/>
<path d="M84.6903 155.638C84.8432 154.414 85.2589 153.509 85.9396 152.908C86.6182 152.323 87.5069 152.099 88.5898 152.235C89.1704 152.307 89.6609 152.464 90.0611 152.705C90.4613 152.947 90.791 153.243 91.0166 153.606C91.2579 153.971 91.411 154.404 91.4935 154.893C91.5759 155.382 91.5741 155.908 91.5015 156.489C91.3487 157.713 90.9329 158.618 90.2523 159.219C89.5736 159.804 88.7007 160.03 87.6178 159.894C87.0371 159.822 86.5466 159.665 86.1464 159.424C85.7462 159.182 85.4166 158.886 85.1752 158.521C84.9339 158.156 84.7651 157.721 84.6827 157.232C84.6336 156.732 84.6198 156.204 84.6903 155.638ZM86.6364 155.881C86.5972 156.195 86.5913 156.498 86.6208 156.772C86.6503 157.047 86.6993 157.292 86.7994 157.512C86.8995 157.732 87.0212 157.907 87.1958 158.04C87.3704 158.173 87.5823 158.264 87.8491 158.297C88.3356 158.358 88.7338 158.232 89.0143 157.9C89.2947 157.568 89.4908 157.019 89.5869 156.25C89.6692 155.59 89.6279 155.027 89.4591 154.591C89.2904 154.156 88.9392 153.905 88.4056 153.838C87.9348 153.779 87.5522 153.907 87.258 154.221C86.9324 154.531 86.7363 155.081 86.6364 155.881Z" fill="#333333"/>
<path d="M95.6312 158.647C95.6548 158.458 95.5959 158.291 95.4389 158.144C95.282 157.997 95.1054 157.879 94.8661 157.754C94.6424 157.63 94.3874 157.503 94.1029 157.356C93.8322 157.226 93.583 157.051 93.3554 156.832C93.1416 156.63 92.9669 156.369 92.8276 156.08C92.7059 155.778 92.6549 155.421 92.7098 154.981C92.7999 154.259 93.0862 153.753 93.557 153.429C94.0278 153.105 94.6634 152.993 95.4638 153.093C96.013 153.161 96.5074 153.287 96.9331 153.452C97.3589 153.616 97.7022 153.803 97.9357 153.975L97.3414 155.288C97.1315 155.182 96.8608 155.053 96.5292 154.9C96.1957 154.763 95.872 154.674 95.511 154.629C94.9461 154.559 94.6361 154.743 94.5813 155.183C94.5597 155.356 94.6205 155.507 94.7795 155.638C94.9227 155.768 95.1149 155.887 95.3543 156.013C95.5779 156.137 95.833 156.264 96.1175 156.411C96.3862 156.556 96.6354 156.731 96.8669 156.919C97.0808 157.121 97.2573 157.367 97.3967 157.655C97.5203 157.942 97.5714 158.299 97.5165 158.738C97.4244 159.476 97.1165 160.028 96.5947 160.377C96.071 160.742 95.3393 160.858 94.4133 160.743C93.8954 160.678 93.4324 160.557 92.993 160.374C92.5535 160.192 92.2121 159.99 91.9512 159.782L92.6455 158.433C92.8495 158.586 93.132 158.749 93.4773 158.92C93.8226 159.09 94.1914 159.2 94.5838 159.249C94.8663 159.285 95.0919 159.265 95.2782 159.176C95.4842 159.059 95.5999 158.898 95.6312 158.647Z" fill="#333333"/>
<path d="M93.4949 27.7587C93.9912 27.7409 93.9618 27.8488 94.105 28.1059C94.8369 29.3931 95.6002 30.6843 96.3478 31.9735C96.4008 32.0598 96.4616 32.0833 96.5577 32.0794C97.5288 32.089 98.5018 32.0829 99.463 32.1709C99.7789 32.1944 100.093 32.2336 100.379 32.365C100.515 32.4298 100.632 32.5082 100.644 32.6691C100.654 32.8458 100.532 32.9263 100.397 32.9891C100.026 33.1501 99.6221 33.1953 99.218 33.2406C98.3293 33.3369 97.4328 33.3685 96.552 33.4021C96.4716 33.408 96.4206 33.4335 96.3794 33.5081C95.6302 34.9135 94.883 36.3031 94.1338 37.7084C94.0906 37.7987 94.0377 37.8399 93.9278 37.8262C93.7375 37.8184 93.5453 37.8263 93.3687 37.8361C93.2726 37.8401 93.2412 37.8362 93.2706 37.7282C93.4529 36.9059 93.6215 36.0659 93.8039 35.2436C93.9215 34.6842 94.0391 34.1249 94.1744 33.5518C94.2038 33.4439 94.1587 33.4223 94.0626 33.4263C93.4093 33.4244 92.7443 33.3893 92.0812 33.3384C91.7026 33.3071 91.324 33.2758 90.9473 33.2288C90.8689 33.219 90.8179 33.2445 90.7786 33.3034C90.5472 33.6253 90.3157 33.9472 90.1 34.2711C90.0412 34.3594 89.9705 34.4143 89.8607 34.4006C89.7194 34.383 89.586 34.4301 89.4487 34.3811C89.4958 34.2594 89.5448 34.122 89.5919 34.0003C89.6899 33.7256 89.8037 33.4528 89.8998 33.1937C89.9723 32.9955 89.9684 32.7717 89.8977 32.5716C89.7525 32.2027 89.5916 31.8318 89.4287 31.4766C89.3934 31.3765 89.3954 31.3608 89.5091 31.3431C89.8348 31.2881 90.0761 31.398 90.2468 31.6903C90.4057 31.9493 90.6019 32.1652 90.7942 32.4124C90.8354 32.4654 90.8648 32.485 90.9296 32.4771C91.9712 32.3042 93.0031 32.2098 94.0624 32.1506C94.1742 32.1486 94.1938 32.1192 94.1605 32.0034C93.8209 30.6376 93.4657 29.2698 93.1261 27.904C93.0947 27.7725 93.0966 27.7568 93.2398 27.7587C93.3183 27.7685 93.4144 27.7646 93.4949 27.7587ZM108.318 33.8821C108.524 33.7643 108.689 33.5936 108.811 33.3855C108.932 33.1775 108.993 32.9459 108.993 32.6907C108.993 32.4356 108.926 32.2041 108.807 32.0137C108.689 31.8077 108.518 31.6429 108.31 31.5212C108.102 31.3996 107.871 31.3388 107.616 31.3389C107.361 31.339 107.129 31.4057 106.923 31.5235C106.717 31.6413 106.553 31.8121 106.431 32.0202C106.309 32.2282 106.249 32.4598 106.249 32.7149C106.249 32.9701 106.315 33.2016 106.433 33.4076C106.551 33.6137 106.722 33.7785 106.93 33.9001C107.138 34.0218 107.369 34.0825 107.624 34.0825C107.881 34.0667 108.113 33.9999 108.318 33.8821ZM114.459 36.6576L114.413 30.6406L116.358 36.6395L117.602 36.6353L119.457 30.5845L119.499 36.6329L121.109 36.6267L121.044 28.7256L118.731 28.7399L116.958 34.3865L115.094 28.7643L112.781 28.7786L112.847 36.6796L114.459 36.6576ZM127.151 36.4878C127.438 36.3641 127.695 36.2208 127.893 36.0383C128.091 35.8557 128.256 35.6849 128.391 35.4945L128.405 36.5327L129.49 36.5246L129.448 32.3896L126.146 32.4081L126.152 33.509L127.781 33.489L127.72 33.9757C127.702 34.117 127.653 34.2544 127.587 34.4055C127.52 34.5567 127.408 34.6862 127.281 34.8138C127.153 34.9414 126.996 35.0494 126.812 35.1221C126.627 35.1947 126.414 35.2477 126.19 35.2517C125.951 35.2537 125.702 35.2067 125.472 35.1302C125.242 35.0537 125.023 34.8987 124.84 34.7006C124.658 34.5024 124.516 34.2296 124.401 33.8803C124.285 33.531 124.228 33.0934 124.228 32.5832C124.228 31.9453 124.292 31.4272 124.455 31.017C124.616 30.6225 124.844 30.332 125.122 30.1436C125.401 29.9551 125.715 29.8667 126.066 29.8627C126.352 29.8666 126.617 29.9156 126.841 30.0392C127.064 30.1628 127.235 30.3275 127.384 30.5375C127.533 30.7475 127.618 30.9653 127.665 31.2263L129.34 31.2121C129.32 30.8589 129.234 30.5292 129.067 30.2054C128.9 29.8817 128.683 29.5834 128.394 29.3402C128.108 29.0812 127.766 28.8791 127.386 28.7359C127.005 28.5928 126.568 28.5222 126.105 28.5282C125.371 28.5323 124.743 28.7091 124.192 29.0389C123.657 29.3707 123.231 29.8438 122.931 30.46C122.631 31.0763 122.494 31.7927 122.5 32.6385C122.508 33.4687 122.659 34.1732 122.949 34.7834C123.242 35.378 123.661 35.845 124.193 36.1824C124.727 36.5041 125.36 36.6629 126.094 36.6588C126.492 36.6607 126.849 36.6096 127.151 36.4878ZM132.266 36.5043L132.909 34.6712L135.749 34.6431L136.415 36.4641L138.01 36.4559L135.121 28.5693L133.446 28.5834L130.686 36.5145L132.266 36.5043ZM134.289 30.1238L135.365 33.2557L133.258 33.2797L134.289 30.1238Z" fill="#333333"/>
<path d="M43.8944 159.922L52.3737 91.9865C55.3024 90.7416 58.0977 89.799 61.2265 88.6109C63.9967 90.2961 66.1175 91.5653 68.6268 93.5527L60.0907 161.943L43.8944 159.922Z" fill="#D12B39" stroke="#D12B39" stroke-width="0.1" stroke-miterlimit="10" stroke-linecap="round" stroke-linejoin="round"/>
<path d="M52.5259 106.482L42.728 145.769L68.0795 152.094L77.8774 112.807L52.5259 106.482Z" fill="white" stroke="#333333" stroke-width="2" stroke-miterlimit="10" stroke-linecap="round" stroke-linejoin="round"/>
<path d="M66.8161 136.282L62.0608 135.051C61.9215 135.017 61.8292 134.862 61.8783 134.725L63.0821 130.06C63.1155 129.921 63.037 129.783 62.8997 129.734L58.2365 128.53C58.0972 128.497 57.9599 128.575 57.9108 128.713L56.707 133.378C56.6736 133.517 56.5187 133.61 56.3814 133.561L51.7809 132.365C51.6417 132.331 51.5043 132.41 51.4553 132.547L50.2514 137.212C50.2181 137.352 50.2966 137.489 50.4339 137.538L55.0343 138.734C55.1736 138.767 55.2658 138.922 55.2168 139.06L54.0208 143.662C53.9875 143.801 54.0659 143.939 54.2033 143.988L58.8664 145.192C59.0057 145.225 59.1431 145.147 59.1921 145.009L60.3881 140.407C60.4214 140.267 60.5764 140.175 60.7137 140.224L65.4691 141.456C65.6084 141.489 65.7457 141.41 65.7947 141.273L66.9986 136.608C67.0339 136.453 66.9554 136.315 66.8161 136.282Z" fill="#D12B39"/>
<path d="M174.641 129.379C175.21 124.826 177.483 121.427 180.951 121.86L181.629 116.937L199.646 119.186L199.156 124.132C202.562 124.557 203.898 128.407 203.33 132.96L199.642 162.508C199.074 167.061 195.602 171.252 191.82 170.78L177.02 168.933C173.803 168.531 170.346 163.667 170.938 158.926L174.626 129.377L174.641 129.379Z" fill="white" stroke="#333333" stroke-width="1.5" stroke-miterlimit="10" stroke-linecap="round" stroke-linejoin="round"/>
<path d="M178.076 164.567C177.882 166.121 176.469 167.22 174.916 167.026C173.362 166.833 172.263 165.42 172.457 163.865C172.651 162.311 174.063 161.212 175.617 161.406C176.339 161.496 176.949 161.843 177.397 162.345C177.914 162.92 178.181 163.719 178.076 164.567Z" fill="#D12B39"/>
<path d="M197.995 138.035C197.801 139.589 196.389 140.688 194.835 140.494C193.281 140.3 192.183 138.888 192.377 137.333C192.571 135.779 193.983 134.68 195.537 134.874C196.258 134.964 196.869 135.311 197.316 135.813C197.832 136.404 198.099 137.202 197.995 138.035Z" fill="#D12B39"/>
<path d="M202.02 135.028C201.826 136.583 200.414 137.682 198.86 137.488C197.306 137.294 196.207 135.881 196.401 134.327C196.595 132.773 198.008 131.673 199.561 131.867C200.283 131.957 200.893 132.305 201.341 132.807C201.841 133.396 202.124 134.196 202.02 135.028Z" fill="#D12B39"/>
<path d="M200.429 136.282C200.235 137.837 198.823 138.936 197.269 138.742C195.716 138.548 194.617 137.135 194.811 135.581C195.005 134.027 196.417 132.927 197.971 133.121C198.693 133.211 199.303 133.558 199.75 134.061C200.266 134.651 200.535 135.434 200.429 136.282Z" fill="#D12B39"/>
<path d="M199.45 132.763C199.256 134.317 197.844 135.416 196.29 135.222C194.736 135.028 193.637 133.616 193.831 132.061C194.025 130.507 195.438 129.408 196.991 129.602C197.713 129.692 198.323 130.039 198.771 130.541C199.273 131.114 199.556 131.915 199.45 132.763Z" fill="#D12B39"/>
<path d="M194.089 136.128C193.895 137.682 192.482 138.782 190.929 138.588C189.375 138.394 188.276 136.981 188.47 135.427C188.664 133.872 190.077 132.773 191.63 132.967C192.352 133.057 192.962 133.404 193.41 133.906C193.912 134.479 194.195 135.28 194.089 136.128Z" fill="#D12B39"/>
<path d="M181.443 128.904C181.249 130.458 179.836 131.558 178.283 131.364C176.729 131.17 175.63 129.757 175.824 128.203C176.018 126.649 177.431 125.549 178.984 125.743C179.706 125.833 180.316 126.181 180.764 126.683C181.282 127.258 181.549 128.056 181.443 128.904Z" fill="#D12B39"/>
<path d="M188.272 133.312C188.078 134.867 186.666 135.966 185.112 135.772C183.559 135.578 182.46 134.166 182.654 132.611C182.848 131.057 184.26 129.957 185.814 130.151C186.536 130.242 187.146 130.589 187.593 131.091C188.109 131.682 188.376 132.48 188.272 133.312Z" fill="#D12B39"/>
<path d="M198.373 164.247C198.179 165.801 196.767 166.901 195.213 166.707C193.659 166.513 192.561 165.1 192.755 163.546C192.949 161.991 194.361 160.892 195.915 161.086C196.637 161.176 197.247 161.523 197.694 162.026C198.196 162.598 198.479 163.399 198.373 164.247Z" fill="#D12B39"/>
<path d="M194.429 166.608C194.235 168.163 192.822 169.262 191.269 169.068C189.715 168.874 188.616 167.461 188.81 165.907C189.004 164.353 190.416 163.253 191.97 163.447C192.692 163.537 193.302 163.885 193.75 164.387C194.268 164.962 194.534 165.76 194.429 166.608Z" fill="#D12B39"/>
<path d="M190.232 167.026C190.038 168.58 188.626 169.679 187.072 169.486C185.519 169.292 184.42 167.879 184.614 166.325C184.808 164.77 186.22 163.671 187.774 163.865C188.496 163.955 189.106 164.302 189.553 164.804C190.054 165.393 190.338 166.178 190.232 167.026Z" fill="#D12B39"/>
<path d="M184.087 159.818C183.893 161.372 182.481 162.471 180.927 162.278C179.374 162.084 178.275 160.671 178.469 159.117C178.663 157.562 180.075 156.463 181.629 156.657C182.351 156.747 182.961 157.094 183.408 157.596C183.909 158.185 184.191 158.986 184.087 159.818Z" fill="#D12B39"/>
<path d="M186.283 165.083C186.089 166.637 184.677 167.737 183.123 167.543C181.569 167.349 180.471 165.936 180.665 164.382C180.859 162.827 182.271 161.728 183.825 161.922C184.547 162.012 185.157 162.359 185.604 162.862C186.104 163.45 186.387 164.251 186.283 165.083Z" fill="#D12B39"/>
<path d="M182.511 166.062C182.317 167.617 180.905 168.716 179.351 168.522C177.797 168.328 176.699 166.915 176.893 165.361C177.087 163.807 178.499 162.707 180.053 162.901C180.775 162.992 181.385 163.339 181.832 163.841C182.348 164.432 182.617 165.215 182.511 166.062Z" fill="#D12B39"/>
<path d="M183.7 133.682C183.506 135.237 182.093 136.336 180.54 136.142C178.986 135.948 177.887 134.536 178.081 132.981C178.275 131.427 179.687 130.328 181.241 130.522C181.963 130.612 182.573 130.959 183.021 131.461C183.537 132.052 183.803 132.85 183.7 133.682Z" fill="#D12B39"/>
<path d="M179.494 135.07C179.3 136.625 177.887 137.724 176.334 137.53C174.78 137.336 173.681 135.923 173.875 134.369C174.069 132.815 175.482 131.715 177.035 131.909C177.757 131.999 178.367 132.347 178.815 132.849C179.331 133.439 179.598 134.238 179.494 135.07Z" fill="#D12B39"/>
<path d="M183.168 151.348C182.974 152.902 181.562 154.001 180.008 153.807C178.454 153.613 177.356 152.201 177.55 150.646C177.744 149.092 179.156 147.993 180.71 148.187C181.432 148.277 182.042 148.624 182.489 149.126C183.005 149.717 183.272 150.515 183.168 151.348Z" fill="#D12B39"/>
<path d="M199.247 157.245C199.053 158.799 197.641 159.899 196.087 159.705C194.533 159.511 193.434 158.098 193.628 156.544C193.822 154.989 195.235 153.89 196.788 154.084C197.51 154.174 198.121 154.521 198.568 155.024C199.068 155.612 199.353 156.397 199.247 157.245Z" fill="#D12B39"/>
<path d="M178.386 153.397C178.192 154.952 176.779 156.051 175.226 155.857C173.672 155.663 172.573 154.25 172.767 152.696C172.961 151.142 174.373 150.042 175.927 150.236C176.649 150.326 177.259 150.674 177.707 151.176C178.223 151.767 178.49 152.565 178.386 153.397Z" fill="#D12B39"/>
<path d="M194.382 156.638C194.188 158.192 192.776 159.291 191.222 159.097C189.668 158.903 188.57 157.491 188.764 155.936C188.958 154.382 190.37 153.283 191.924 153.477C192.646 153.567 193.256 153.914 193.703 154.416C194.203 155.005 194.488 155.79 194.382 156.638Z" fill="#D12B39"/>
<path d="M190.254 156.122C190.06 157.677 188.648 158.776 187.094 158.582C185.541 158.388 184.442 156.975 184.636 155.421C184.83 153.867 186.242 152.768 187.796 152.961C188.518 153.052 189.128 153.399 189.575 153.901C190.076 154.49 190.36 155.275 190.254 156.122Z" fill="#D12B39"/>
<path d="M185.499 155.529C185.305 157.083 183.893 158.183 182.339 157.989C180.786 157.795 179.687 156.382 179.881 154.828C180.075 153.274 181.487 152.174 183.041 152.368C183.763 152.458 184.373 152.806 184.82 153.308C185.336 153.898 185.605 154.681 185.499 155.529Z" fill="#D12B39"/>
<path d="M179.683 156.413C179.489 157.967 178.076 159.067 176.523 158.873C174.969 158.679 173.87 157.266 174.064 155.712C174.258 154.157 175.671 153.058 177.224 153.252C177.946 153.342 178.556 153.689 179.004 154.192C179.52 154.782 179.787 155.581 179.683 156.413Z" fill="#D12B39"/>
<path d="M181.125 160.691C180.931 162.246 179.519 163.345 177.965 163.151C176.412 162.957 175.313 161.544 175.507 159.99C175.701 158.436 177.113 157.336 178.667 157.53C179.389 157.62 179.999 157.968 180.446 158.47C180.947 159.059 181.231 159.844 181.125 160.691Z" fill="#D12B39"/>
<path d="M177.531 160.243C177.337 161.797 175.925 162.896 174.371 162.702C172.817 162.508 171.719 161.096 171.913 159.541C172.107 157.987 173.519 156.888 175.073 157.082C175.795 157.172 176.405 157.519 176.852 158.021C177.368 158.612 177.637 159.395 177.531 160.243Z" fill="#D12B39"/>
<path d="M189.706 160.519C189.512 162.073 188.099 163.173 186.546 162.979C184.992 162.785 183.893 161.372 184.087 159.818C184.281 158.263 185.694 157.164 187.247 157.358C187.969 157.448 188.579 157.795 189.027 158.298C189.527 158.886 189.81 159.687 189.706 160.519Z" fill="#D12B39"/>
<path d="M195.015 161.914C194.821 163.468 193.408 164.567 191.855 164.373C190.301 164.179 189.202 162.767 189.396 161.212C189.59 159.658 191.002 158.559 192.556 158.752C193.278 158.843 193.888 159.19 194.335 159.692C194.851 160.283 195.12 161.066 195.015 161.914Z" fill="#D12B39"/>
<path d="M198.896 160.056C198.702 161.61 197.29 162.709 195.736 162.515C194.182 162.321 193.084 160.909 193.278 159.354C193.472 157.8 194.884 156.701 196.438 156.895C197.16 156.985 197.77 157.332 198.217 157.834C198.717 158.423 199.002 159.208 198.896 160.056Z" fill="#D12B39"/>
<path d="M180.858 110.734L180.295 115.24C180.192 116.072 180.782 116.832 181.614 116.936L199.615 119.182C200.447 119.286 201.206 118.695 201.31 117.863L201.872 113.357C201.976 112.525 201.385 111.766 200.554 111.662L182.553 109.415C181.721 109.311 180.962 109.902 180.858 110.734Z" fill="#D12B39" stroke="#333333" stroke-width="2" stroke-miterlimit="10"/>
<path d="M202.721 137.97L174.016 134.388L171.835 151.862L200.54 155.445L202.721 137.97Z" fill="white" stroke="#333333" stroke-width="1.5" stroke-miterlimit="10"/>
<path d="M188.347 139.478C189.446 139.615 190.327 139.964 191.023 140.514C191.718 141.079 192.208 141.746 192.505 142.564C192.803 143.367 192.905 144.209 192.813 145.074L189.282 144.633C189.278 144.41 189.245 144.166 189.184 143.888C189.123 143.609 188.995 143.354 188.817 143.124C188.638 142.895 188.352 142.763 187.975 142.716C187.41 142.646 186.926 142.825 186.537 143.254C186.133 143.682 185.872 144.367 185.757 145.294C185.637 146.251 185.733 147.013 186.03 147.576C186.324 148.155 186.764 148.465 187.329 148.535C187.69 148.58 188.001 148.508 188.233 148.313C188.464 148.119 188.653 147.887 188.78 147.632C188.908 147.377 188.998 147.165 189.033 147.01L192.47 147.439C192.368 148.255 192.066 149.015 191.586 149.673C191.088 150.344 190.45 150.854 189.642 151.2C188.834 151.545 187.912 151.654 186.844 151.52C185.73 151.381 184.773 151.007 183.957 150.395C183.14 149.782 182.522 148.988 182.132 148.03C181.726 147.071 181.606 145.987 181.753 144.81C181.902 143.617 182.286 142.58 182.918 141.734C183.534 140.886 184.33 140.252 185.273 139.844C186.195 139.481 187.218 139.337 188.347 139.478Z" fill="#333333"/>
<path d="M135.308 90.7922L143.2 123.46L168.939 117.217L158.684 74.8787L141.525 79.0354L135.308 90.7922Z" fill="white" stroke="#333333" stroke-width="2" stroke-miterlimit="10" stroke-linecap="round" stroke-linejoin="round"/>
<path d="M171.401 176.92L153.678 170.658L151.903 171.856C151.658 172.032 151.519 171.872 151.426 171.717L151.048 170.792C150.214 170.194 149.404 169.662 148.672 169.268L147.783 169.875L145.726 172.95C146.84 173.345 148.029 173.652 149.273 173.903C149.579 174.005 150.214 173.893 150.487 173.624C150.917 173.247 151.085 173.3 151.215 173.795L151.764 175.904L169.641 182.218L171.312 180.832C171.473 180.692 171.606 180.773 171.708 180.977L172.073 181.883L174.284 183.323L175.259 182.791C176.197 181.792 176.846 180.805 177.332 179.717C175.914 179.206 174.554 178.733 173.64 178.651C173.371 178.633 172.92 178.673 172.698 178.916C172.186 179.442 171.951 179.413 171.875 179.004L171.401 176.92Z" stroke="#D12B39" stroke-miterlimit="10" stroke-linecap="round" stroke-linejoin="round"/>
<path d="M153.68 170.643C152.523 171.997 151.89 173.752 151.798 175.893L169.674 182.206C171.055 180.72 171.627 178.942 171.405 176.889L153.68 170.643Z" fill="#D12B39" stroke="#D12B39" stroke-width="2" stroke-miterlimit="10" stroke-linecap="round" stroke-linejoin="round"/>
<path d="M214.256 184.869L195.659 187.65L194.657 189.55C194.512 189.819 194.33 189.748 194.182 189.65L193.417 189.013C192.399 188.869 191.438 188.781 190.608 188.789L190.108 189.732L189.728 193.415C190.897 193.242 192.096 192.961 193.304 192.602C193.63 192.547 194.142 192.148 194.251 191.779C194.445 191.246 194.64 191.222 194.977 191.583L196.451 193.186L215.208 190.393L216.034 188.375C216.106 188.177 216.265 188.181 216.456 188.316L217.205 188.952L219.838 189.185L220.448 188.257C220.82 186.932 220.92 185.748 220.845 184.559C219.353 184.771 217.938 184.993 217.083 185.333C216.83 185.445 216.465 185.687 216.377 186.01C216.177 186.719 215.959 186.803 215.696 186.484L214.256 184.869Z" stroke="#D12B39" stroke-miterlimit="10" stroke-linecap="round" stroke-linejoin="round"/>
<path d="M195.659 187.65C195.267 189.387 195.532 191.222 196.453 193.17L215.21 190.377C215.726 188.416 215.412 186.591 214.254 184.884L195.659 187.65Z" fill="#D12B39" stroke="#D12B39" stroke-width="2" stroke-miterlimit="10" stroke-linecap="round" stroke-linejoin="round"/>
<path d="M231.56 166.14L213.837 159.878L212.062 161.076C211.816 161.252 211.677 161.091 211.585 160.936L211.206 160.012C210.372 159.414 209.562 158.882 208.83 158.488L207.942 159.094L205.884 162.17C206.999 162.564 208.187 162.872 209.431 163.123C209.737 163.225 210.373 163.113 210.646 162.844C211.075 162.467 211.244 162.52 211.373 163.015L211.923 165.124L229.799 171.437L231.47 170.051C231.631 169.912 231.764 169.992 231.866 170.196L232.231 171.103L234.442 172.543L235.417 172.011C236.355 171.012 237.004 170.024 237.491 168.937C236.072 168.425 234.713 167.953 233.798 167.87C233.53 167.853 233.078 167.892 232.857 168.136C232.345 168.662 232.109 168.632 232.033 168.224L231.56 166.14Z" stroke="#D12B39" stroke-miterlimit="10" stroke-linecap="round" stroke-linejoin="round"/>
<path d="M213.837 159.879C212.679 161.233 212.046 162.988 211.954 165.129L229.83 171.442C231.211 169.956 231.784 168.178 231.562 166.125L213.837 159.879Z" fill="#D12B39" stroke="#D12B39" stroke-width="2" stroke-miterlimit="10" stroke-linecap="round" stroke-linejoin="round"/>
</svg>
