<svg width="359" height="132" viewBox="0 0 359 132" fill="none" xmlns="http://www.w3.org/2000/svg">
<path opacity="0.9" d="M330.201 9.56319L325.22 57.568L288.225 26.9492C301.734 22.4884 315.768 16.6044 330.201 9.56319Z" fill="#D12B39" stroke="#D12B39" stroke-miterlimit="10" stroke-linecap="round" stroke-linejoin="round"/>
<path opacity="0.9" d="M138.611 72.5199L125.004 117.535L94.5526 80.3787C108.324 78.7167 122.703 75.6674 138.611 72.5199Z" stroke="#333333" stroke-width="1.5" stroke-miterlimit="10" stroke-linecap="round" stroke-linejoin="round"/>
<path opacity="0.9" d="M207.106 54.3758L197 101.566L163.498 67.1381C177.401 64.153 191.973 59.8173 207.106 54.3758Z" fill="#D12B39" stroke="#D12B39" stroke-miterlimit="10" stroke-linecap="round" stroke-linejoin="round"/>
<path opacity="0.9" d="M70.8632 84.2039L52.613 128.878L25.6763 89.1086C39.9067 88.62 55.0315 86.9087 70.8632 84.2039Z" fill="#D12B39" stroke="#D12B39" stroke-miterlimit="10" stroke-linecap="round" stroke-linejoin="round"/>
<path d="M-5.33099 90.1964C115.716 84.8414 234.799 53.5777 352.222 -0.000125373" stroke="#333333" stroke-miterlimit="10"/>
<path opacity="0.9" d="M268.538 35.3563L262.129 81.9382L226.242 50.0061C239.607 46.2308 253.333 40.961 268.538 35.3563Z" stroke="#333333" stroke-width="1.5" stroke-miterlimit="10" stroke-linecap="round" stroke-linejoin="round"/>
</svg>
