<svg width="462" height="319" viewBox="0 0 462 319" fill="none" xmlns="http://www.w3.org/2000/svg">
<path d="M231.2 139.4V115.4H235.1V139" fill="white"/>
<path d="M232 139.4H230.5V115.4C230.5 115 230.8 114.6 231.3 114.6H235.2C235.6 114.6 236 114.9 236 115.4V139H234.5V116.2H232V139.4Z" fill="#333333"/>
<path d="M241.4 139.4V115.4H245.3V139" fill="white"/>
<path d="M242.2 139.4H240.7V115.4C240.7 115 241 114.6 241.5 114.6H245.4C245.8 114.6 246.2 114.9 246.2 115.4V139H244.7V116.2H242.3V139.4H242.2Z" fill="#333333"/>
<path d="M209.7 142.2V115.4H213.6V141.7" fill="white"/>
<path d="M210.5 142.2H209V115.4C209 115 209.3 114.6 209.8 114.6H213.7C214.1 114.6 214.5 114.9 214.5 115.4V141.7H213V116.1H210.6V142.2H210.5Z" fill="#333333"/>
<path d="M219.9 142.2V115.4H223.8V141.7" fill="white"/>
<path d="M220.7 142.2H219.2V115.4C219.2 115 219.5 114.6 220 114.6H223.9C224.3 114.6 224.7 114.9 224.7 115.4V141.7H223.2V116.1H220.8V142.2H220.7Z" fill="#333333"/>
<path d="M211.7 102.9L209.1 109.3C207.1 114.7 216.1 114.6 214.5 109.3L211.7 102.9Z" fill="url(#paint0_linear)"/>
<path d="M221.9 102.9L219.3 109.3C217.3 114.7 226.3 114.6 224.7 109.3L221.9 102.9Z" fill="url(#paint1_linear)"/>
<path d="M233.2 102.9L230.6 109.3C228.6 114.7 237.6 114.6 236 109.3L233.2 102.9Z" fill="url(#paint2_linear)"/>
<path d="M243.4 102.9L240.8 109.3C238.8 114.7 247.8 114.6 246.2 109.3L243.4 102.9Z" fill="url(#paint3_linear)"/>
<path d="M195.2 162.9V143.7L261 137.2V170.9L195.2 162.9Z" fill="white"/>
<path d="M261 172.4C260.9 172.4 260.9 172.4 260.8 172.4L195 164.4C194.2 164.3 193.7 163.7 193.7 162.9V143.7C193.7 142.9 194.3 142.3 195.1 142.2L260.9 135.7C261.3 135.7 261.7 135.8 262.1 136.1C262.4 136.4 262.6 136.8 262.6 137.2V170.9C262.6 171.3 262.4 171.7 262.1 172C261.7 172.2 261.3 172.4 261 172.4ZM196.7 161.6L259.5 169.2V138.9L196.7 145.1V161.6Z" fill="#333333"/>
<path opacity="0.9" d="M140.8 219.3L143.1 224L138.3 236.8L135.8 243.4L133.7 249.1L131.3 255.4L128.6 262.5L126.3 268.6L123.8 275.2L121.6 281.1L121.1 282.4C121 282.5 121.1 282.7 121.1 282.8C121.2 282.9 121.3 283 121.4 283C135.6 285.4 151.3 284.9 167.9 281.7H168C168.1 281.7 168.2 281.6 168.2 281.5C168.3 281.4 168.3 281.2 168.2 281.1L164 270.8L161.7 265.1L159.5 259.8L157.2 254.2L155 248.7L152.7 243.1L150.9 238.8L148.6 233.3L144.5 223.3L146 219C148.3 213.3 138.9 213.9 140.8 219.3ZM163.4 271.4C161.6 272.6 159.8 273.6 157.8 274.6C148.2 279.2 136.3 281.5 122.7 281.2L124.9 275.2C139.7 275.2 152.1 272 161.1 265.7L163.4 271.4ZM158.9 260.3C157.9 260.9 156.8 261.5 155.7 262C147.7 265.8 138.2 268 127.4 268.5L129.7 262.4C140.3 261.6 149.4 259 156.6 254.7L158.9 260.3ZM154.4 249.2C154.3 249.3 154.2 249.3 154.1 249.4C147.8 252.4 140.5 254.4 132.5 255.4L134.9 249C141.4 248 147.2 246.2 152.2 243.7L154.4 249.2ZM150.3 239.3C146.2 241 141.7 242.4 136.9 243.3L139.4 236.6C142.5 235.8 145.3 234.9 148 233.7L150.3 239.3Z" fill="#D12B39"/>
<path d="M124.6 204.1L60.0999 212.7L71.3999 297.7L135.9 289.1L124.6 204.1Z" fill="white"/>
<path d="M71.4999 298.6C71.2999 298.6 71.0999 298.5 70.8999 298.4C70.6999 298.2 70.5999 298 70.4999 297.7L59.1999 212.7C59.0999 212.2 59.4999 211.6 60.0999 211.6L124.6 203C124.9 203 125.1 203 125.3 203.2C125.5 203.4 125.6 203.6 125.7 203.9L137 288.9C137.1 289.4 136.7 290 136.1 290L71.5999 298.6C71.4999 298.6 71.4999 298.6 71.4999 298.6ZM61.1999 213.5L72.2999 296.5L134.8 288.1L123.7 205.1L61.1999 213.5Z" fill="#333333"/>
<path d="M128.8 227.9L109.1 230.6L113.4 226.3C113.4 226.3 113.5 226.2 113.5 226.1C115.5 223.5 115.8 220.6 114.2 218.2C112.5 215.7 109.2 214.4 106.4 215.2C105.8 215.4 104.8 215.8 104 216.7L102.5 205.9L97.6 206.6L100.4 226.9L97.3001 223.8C97.3001 223.8 97.2 223.7 97.1 223.7C94.5 221.7 91.6 221.4 89.2 223C86.7 224.7 85.4 228 86.2 230.8C86.4 231.5 86.9 232.6 88 233.6L62.3 237L62.9001 241.9L97.7 237.2L94.9001 240.1C94.9001 240.1 94.9001 240.1 94.9001 240.2C91.7001 243.7 92.9 246.7 93.6 247.8C94.3 249.1 95.6 250.1 97 250.6C98.4001 251.1 99.9001 251.3 101.3 251C102.1 250.8 102.9 250.4 103.5 250L109.5 293.7L114.4 293L107 238.4L111.1 242.3C111.1 242.3 111.1 242.3 111.2 242.3C112.1 243.1 113 243.6 113.8 244C116.1 244.9 118 244.1 118.8 243.7C121.3 242.2 122.7 238.9 122 236C121.8 235.3 121.6 234.7 121.2 234.1L129.6 233L128.8 227.9ZM105.6 221.8C105.6 220.6 106 219 107.4 218.6C108.7 218.2 110.6 218.9 111.4 220.2C112.3 221.6 111.7 223 110.9 224L105.7 229.1L105.6 221.8ZM91.2 225.8C92.1 225.2 93 225.3 93.7 225.6C94.1 225.8 94.6001 226 94.9001 226.3L100 231.5L92.8001 231.6C91.6001 231.6 90 231.2 89.6 229.8C89.2 228.5 90 226.6 91.2 225.8ZM102.8 244.5C102.7 245.7 102.2 247.2 100.6 247.6C99.1 247.9 97.3 247.2 96.6 246C95.9 244.7 96.7001 243.4 97.5 242.4L102 237.8L102.6 237.2L102.8 244.2V244.5ZM118.6 236.7C118.9 238.2 118.2 240 117 240.7C115.7 241.4 114.4 240.6 113.4 239.8L109.1 235.7L108.2 234.8L115.5 234.5C115.8 234.5 116.1 234.6 116.5 234.7C117.4 234.9 118.3 235.5 118.6 236.7Z" fill="#D12B39"/>
<path d="M109 294.2L103.1 250.8C102.5 251.1 102 251.3 101.4 251.5C99.9001 251.8 98.3001 251.7 96.8001 251.1C95.2001 250.5 93.9 249.4 93.1 248.1C92.4 246.9 91.1 243.7 94.5 239.9L94.6 239.8L96.4001 238L62.6 242.6L61.8 236.7L87.1 233.3C86.4 232.4 86.0001 231.6 85.9001 231C85.0001 228 86.4 224.4 89.1 222.6C91.7 220.9 94.8 221.2 97.6 223.4C97.6 223.4 97.7001 223.5 97.8001 223.6L99.8001 225.7L97 206.2L102.9 205.4L104.3 215.8C105.1 215.2 105.8 215 106.2 214.8C109.2 213.9 112.8 215.3 114.6 218C116.3 220.6 116.1 223.7 113.9 226.5C113.9 226.6 113.8 226.6 113.7 226.7L110.4 229.9L129.1 227.3L129.9 233.2L121.8 234.3C122 234.7 122.2 235.2 122.3 235.7C123 238.8 121.6 242.4 118.9 244C117.9 244.6 115.9 245.4 113.4 244.4C112.5 244 111.6 243.5 110.7 242.7L110.6 242.6L107.6 239.7L114.9 293.3L109 294.2ZM103.9 249L109.9 293L113.8 292.5L106.2 237L111.4 242C112.2 242.7 113 243.2 113.8 243.6C115.9 244.4 117.6 243.8 118.4 243.3C120.7 241.9 122 238.9 121.4 236.1C121.3 235.5 121 234.9 120.7 234.3L120.3 233.6L129 232.4L128.5 228.5L107.8 231.3L113.2 226L113.3 225.9C115.2 223.5 115.5 220.7 114 218.6C112.4 216.3 109.3 215.1 106.7 215.8C106.2 215.9 105.3 216.3 104.5 217.1L103.8 217.8L102.2 206.4L98.3001 206.9L101.2 228.2L97.1 224C97.1 224 97.1 223.9 97 223.9C94.6 222 91.9 221.7 89.7 223.2C87.4 224.8 86.2001 227.9 86.9001 230.4C87.1001 231 87.5 232 88.6 232.9L89.5 233.6L63.1 237.2L63.6 241.1L99.3001 236.2L95.4001 240.2C92.6001 243.3 93.4 245.9 94.2 247.2C94.9 248.3 96 249.3 97.4001 249.8C98.7001 250.3 100.1 250.4 101.4 250.2C102.1 250 102.8 249.7 103.5 249.2L103.9 249ZM99.8001 248.2C98.3001 248.2 96.8 247.4 96.1 246.3C95.6 245.5 95.4 244.1 97.1 242.1L103 236L103.3 244.5C103.1 246.4 102.2 247.7 100.7 248C100.4 248.2 100.1 248.2 99.8001 248.2ZM102.1 238.4L97.8001 242.8C96.8001 244 96.5 245 97 245.8C97.6 246.8 99.2001 247.4 100.5 247.2C101.6 247 102.2 246.1 102.4 244.6L102.1 238.4ZM115.9 241.5C115.1 241.5 114.2 241.2 113.1 240.2L107 234.3L115.5 234C115.9 234 116.3 234.1 116.6 234.2C117.9 234.6 118.8 235.4 119.1 236.6C119.5 238.3 118.7 240.3 117.3 241.1C116.9 241.3 116.5 241.5 115.9 241.5ZM109.4 235.2L113.8 239.4C115 240.4 116 240.7 116.8 240.2C117.8 239.6 118.4 238 118.2 236.8C118 236 117.4 235.4 116.4 235.1C116.1 235 115.8 235 115.5 234.9L109.4 235.2ZM92.8001 232.1C90.8001 232 89.5 231.3 89.1 229.9C88.6 228.3 89.4001 226.3 90.9001 225.4C91.8001 224.8 92.8001 224.7 93.9001 225.1C94.3001 225.3 94.8 225.5 95.2 225.9L101.2 232L92.8001 232.1ZM92.6 225.9C92.2 225.9 91.8 226 91.5 226.3C90.4 227 89.8 228.6 90.1 229.7C90.4 230.8 91.8001 231.1 92.8001 231.1L98.8001 231L94.5 226.6C94.2001 226.4 93.8 226.1 93.5 226C93.2001 225.9 92.9 225.9 92.6 225.9ZM105.3 230.3L105.2 221.8C105.3 219.8 106 218.5 107.4 218.1C109 217.6 111 218.5 111.9 219.9C112.8 221.2 112.6 222.7 111.4 224.2L105.3 230.3ZM106.1 221.8L106.2 227.9L110.6 223.6C111.5 222.5 111.6 221.4 111 220.5C110.3 219.4 108.7 218.8 107.6 219.1C106.4 219.4 106.2 220.8 106.1 221.8Z" fill="#D12B39"/>
<path d="M21.8 263.2V301.3H82.5V263.2" fill="white"/>
<path d="M82.6 302.3H21.8C21.2 302.3 20.8 301.9 20.8 301.3V263.2C20.8 262.6 21.2 262.2 21.8 262.2C22.4 262.2 22.8 262.6 22.8 263.2V300.3H81.5V263.2C81.5 262.6 81.9001 262.2 82.5 262.2C83.1 262.2 83.5 262.6 83.5 263.2V301.3C83.6 301.8 83.1 302.3 82.6 302.3Z" fill="#333333"/>
<path d="M83.4999 274.5H20.8999V284.8H83.5999V274.5H83.4999Z" fill="#D12B39"/>
<path d="M83.9 254.3H20.5V263.1H83.9V254.3Z" fill="white"/>
<path d="M83.9 264.2H20.5C19.9 264.2 19.5 263.8 19.5 263.2V254.4C19.5 253.8 19.9 253.4 20.5 253.4H83.9C84.5 253.4 84.9 253.8 84.9 254.4V263.2C84.9 263.7 84.5 264.2 83.9 264.2ZM21.5 262.2H82.9V255.4H21.5V262.2Z" fill="#333333"/>
<path d="M76.1999 236.1C74.2999 235.1 69.2999 234.2 63.5999 239C60.2999 241.8 55.6999 246.3 52.2999 248.7C48.8999 246.2 44.2999 241.7 40.9999 239C35.2999 234.2 30.2999 235.1 28.3999 236.1C24.4999 238.2 23.6999 242.1 24.0999 245.1C24.4999 248.4 27.4999 250.7 30.6999 251.9C35.1999 253.6 37.9999 254 41.7999 254.4C37.0999 257.2 32.6999 260.3 28.1999 264L31.8999 264.6V268.6C38.5999 263.1 44.6999 259.2 52.2999 255.6C60.5999 259.3 66.3999 263.2 73.5999 268.7L73.6999 264.9L77.1999 264C72.3999 260.4 67.9999 257.3 63.0999 254.5C66.7999 254.1 69.5999 253.7 73.9999 252C77.1999 250.8 80.1999 248.5 80.5999 245.2C80.7999 242.1 80.0999 238.2 76.1999 236.1ZM30.1999 246.6C28.4999 244.2 30.1999 240.8 33.0999 240.6C35.6999 240.4 38.4999 242.5 40.2999 244.1C42.7999 246.4 43.9999 247.4 46.5999 250.1C46.8999 250.4 46.7999 250.8 46.2999 250.8C42.0999 250.6 37.7999 250.3 33.7999 248.9C32.3999 248.5 30.9999 247.8 30.1999 246.6ZM74.1999 246.6C73.3999 247.8 71.9999 248.5 70.5999 248.9C66.5999 250.3 62.2999 250.6 58.0999 250.8C57.5999 250.8 57.4999 250.4 57.7999 250.1C60.4999 247.4 61.5999 246.3 64.0999 244.1C65.8999 242.5 68.5999 240.3 71.2999 240.6C74.2999 240.8 75.8999 244.2 74.1999 246.6Z" fill="#D12B39"/>
<path d="M73.5 268.9H73.4C66.2 263.4 60.5 259.6 52.2 255.9C44.7 259.5 38.6 263.3 32 268.8C31.9 268.8 31.9 268.9 31.8 268.8C31.7 268.8 31.7 268.7 31.7 268.6V264.7L28.1 264.1C28 264.1 28 264 27.9 264C27.9 263.9 27.9 263.8 28 263.8C32.4 260.2 36.7 257.2 41.1 254.5C37.3 254.1 34.7 253.6 30.5 252C26.6 250.6 24.2 248 23.8 245.1C23.6 243.1 23.5 238.3 28.2 235.9C28.8 235.6 34.1 233.1 41.1 238.8C42.4 239.9 43.8 241.2 45.3 242.5C47.7 244.7 50.2 246.9 52.3 248.4C54.4 246.9 56.9 244.6 59.3 242.5C60.8 241.1 62.3 239.8 63.5 238.8C70.4 233 75.8 235.6 76.4 235.9C81.1 238.3 81.1 243.2 80.8 245.1C80.4 248.1 78 250.6 74.1 252C70 253.5 67.3 254 63.8 254.4C68 256.8 72.1 259.6 77.4 263.6C77.5 263.6 77.5 263.7 77.5 263.8C77.5 263.9 77.4 263.9 77.4 264L74 264.9L73.9 268.6C73.7 268.8 73.6 268.9 73.5 268.9ZM52.2 255.5C60.4 259.2 66.2 263 73.3 268.4L73.4 265C73.4 264.9 73.5 264.8 73.5 264.8L76.7 264C71.4 260 67.3 257.2 63 254.7C62.9 254.7 62.9 254.6 62.9 254.5C62.9 254.4 63 254.4 63.1 254.3C66.9 253.9 69.6 253.4 73.9 251.8C75.7 251.1 79.9 249.2 80.3 245.2C80.5 243.3 80.5 238.7 76.1 236.4C74.1 235.3 69.1 234.7 63.7 239.3C62.4 240.4 61 241.6 59.5 243C57 245.2 54.5 247.5 52.4 249C52.3 249.1 52.2 249.1 52.2 249C50.1 247.5 47.6 245.2 45.1 243C43.6 241.6 42.2 240.3 40.9 239.3C35.4 234.8 30.5 235.3 28.5 236.4C24 238.7 24.1 243.4 24.3 245.2C24.8 249.2 29 251.2 30.7 251.8C35 253.4 37.7 253.9 41.8 254.3C41.9 254.3 42 254.4 42 254.5C42 254.6 42 254.7 41.9 254.7C37.4 257.3 33 260.4 28.6 264L31.9 264.5C32 264.5 32.1 264.6 32.1 264.7V268.3C38.6 262.9 44.7 259 52.2 255.5C52.1 255.5 52.1 255.5 52.2 255.5ZM58.1 251C57.8 251 57.6 250.9 57.5 250.7C57.4 250.5 57.5 250.2 57.7 250C60.4 247.3 61.6 246.2 64 244C65.8 242.3 68.6 240.2 71.3 240.4C72.7 240.5 74 241.4 74.6 242.7C75.2 244 75.1 245.5 74.3 246.7C73.4 248 71.8 248.7 70.6 249.1C66.6 250.5 62.3 250.9 58.1 251ZM71 240.8C68.5 240.8 66 242.8 64.4 244.3C61.9 246.6 60.8 247.6 58.1 250.3C58 250.4 58 250.5 58 250.6C58 250.7 58.1 250.7 58.2 250.7C62.3 250.5 66.6 250.2 70.6 248.8C71.9 248.4 73.3 247.7 74.1 246.5C74.8 245.4 74.9 244.1 74.4 242.9C73.8 241.7 72.7 240.9 71.4 240.8C71.2 240.8 71.1 240.8 71 240.8ZM46.3 251C42.2 250.8 37.8 250.5 33.7 249.1C32.4 248.7 30.9 248 30 246.7C29.2 245.5 29.1 244 29.7 242.7C30.3 241.4 31.6 240.5 33 240.4C35.7 240.1 38.5 242.3 40.3 244C42.7 246.2 43.9 247.3 46.6 250C46.8 250.2 46.9 250.5 46.8 250.7C46.8 250.9 46.5 251 46.3 251ZM30.3 246.5C31.1 247.7 32.6 248.3 33.8 248.7C37.8 250.1 42.1 250.4 46.2 250.6C46.3 250.6 46.4 250.6 46.4 250.5C46.4 250.4 46.4 250.3 46.3 250.2C43.6 247.5 42.4 246.4 40 244.2C38.2 242.6 35.6 240.5 33 240.7C31.7 240.8 30.6 241.6 30 242.8C29.5 244.1 29.6 245.4 30.3 246.5Z" fill="white"/>
<path d="M29.1 295.3L29.2 294H29.1L28.7 295L27.3 297.4H27L25.6 295L25.2 294L25.4 295.3V298.6H24V292.2H25.2L26.9 295.1L27.2 295.8L27.5 295L29.1 292.1H30.2V298.5H28.9V295.3H29.1Z" fill="#333333"/>
<path d="M35.1 298.2C34.9 298.3 34.7001 298.5 34.4001 298.6C34.1001 298.7 33.8001 298.7 33.4001 298.7C32.7001 298.7 32.1 298.5 31.8 298.1C31.5 297.7 31.3 297.1 31.3 296.3C31.3 295.5 31.5 294.9 31.9 294.5C32.3 294.1 32.8 293.9 33.5 293.9C33.7 293.9 34.0001 293.9 34.2001 294C34.4001 294.1 34.6 294.2 34.8 294.3C35 294.4 35.1001 294.6 35.2001 294.9C35.3001 295.1 35.4001 295.4 35.4001 295.8C35.4001 295.9 35.4001 296.1 35.4001 296.2C35.4001 296.3 35.4 296.5 35.3 296.7H32.6C32.6 297.1 32.7001 297.4 32.9001 297.6C33.1001 297.8 33.4 297.9 33.8 297.9C34 297.9 34.3 297.9 34.5 297.8C34.7 297.7 34.8 297.7 35 297.6L35.1 298.2ZM33.4001 294.8C33.1001 294.8 32.9001 294.9 32.7001 295.1C32.6001 295.3 32.5001 295.5 32.4001 295.8H34.1C34.1 295.5 34.1 295.2 34 295C33.8 294.9 33.6001 294.8 33.4001 294.8Z" fill="#333333"/>
<path d="M39.9999 297C39.9999 297.3 39.9999 297.5 39.9999 297.8C39.9999 298.1 39.9999 298.3 40.0999 298.7H39.1999L38.9999 298C38.8999 298.2 38.6999 298.4 38.4999 298.5C38.2999 298.6 37.9999 298.7 37.6999 298.7C37.0999 298.7 36.6999 298.5 36.3999 298.1C36.0999 297.7 35.8999 297.1 35.8999 296.3C35.8999 295.5 36.0999 294.9 36.3999 294.5C36.7999 294.1 37.2999 293.8 37.9999 293.8C38.1999 293.8 38.2999 293.8 38.4999 293.8C38.5999 293.8 38.6999 293.9 38.8999 293.9V292H39.9999V297ZM37.8999 297.7C38.0999 297.7 38.2999 297.6 38.3999 297.5C38.4999 297.4 38.5999 297.2 38.6999 297V295C38.5999 294.9 38.4999 294.9 38.3999 294.8C38.2999 294.8 38.1999 294.8 37.9999 294.8C37.6999 294.8 37.3999 294.9 37.1999 295.1C36.9999 295.3 36.9999 295.7 36.9999 296.3C36.9999 296.7 37.0999 297 37.1999 297.2C37.3999 297.6 37.5999 297.7 37.8999 297.7Z" fill="#333333"/>
<path d="M40.8999 292.7C40.8999 292.5 40.9999 292.4 41.0999 292.2C41.1999 292.1 41.3999 292 41.5999 292C41.7999 292 41.9999 292.1 42.1999 292.2C42.2999 292.3 42.3999 292.5 42.3999 292.7C42.3999 292.9 42.2999 293 42.1999 293.1C42.0999 293.2 41.8999 293.3 41.5999 293.3C41.3999 293.3 41.1999 293.2 41.0999 293.1C40.9999 293 40.8999 292.9 40.8999 292.7ZM41.0999 294H42.2999V298.6H41.0999V294Z" fill="#333333"/>
<path d="M46.7001 298.3C46.5001 298.4 46.3 298.5 46 298.6C45.7 298.7 45.5001 298.7 45.2001 298.7C44.8001 298.7 44.5 298.6 44.3 298.5C44 298.4 43.8001 298.2 43.7001 298C43.5001 297.8 43.4001 297.5 43.4001 297.2C43.3001 296.9 43.3 296.6 43.3 296.2C43.3 295.4 43.5 294.8 43.8 294.4C44.1 294 44.7 293.8 45.3 293.8C45.6 293.8 45.9 293.8 46.1 293.9C46.3 293.9 46.5001 294 46.7001 294.1L46.4001 295.1C46.3001 295 46.1 295 46 294.9C45.9 294.8 45.7 294.8 45.5 294.8C45.2 294.8 44.9001 294.9 44.7001 295.1C44.5001 295.3 44.4001 295.7 44.4001 296.1C44.4001 296.3 44.4 296.5 44.5 296.6C44.5 296.8 44.6001 296.9 44.7001 297C44.8001 297.1 44.9 297.2 45 297.3C45.1 297.4 45.3 297.4 45.5 297.4C45.7 297.4 45.9 297.4 46 297.3C46.1 297.3 46.3001 297.2 46.4001 297.1L46.7001 298.3Z" fill="#333333"/>
<path d="M47.4001 294.3C47.6001 294.2 47.9 294.1 48.3 294C48.6 293.9 49.0001 293.9 49.4001 293.9C49.7001 293.9 50.0001 293.9 50.2001 294C50.4001 294.1 50.6001 294.2 50.7001 294.3C50.8001 294.4 50.9 294.6 51 294.8C51 295 51.1 295.2 51.1 295.5C51.1 295.8 51.1 296 51.1 296.3C51.1 296.6 51.1 296.8 51.1 297.1C51.1 297.4 51.1 297.6 51.1 297.9C51.1 298.1 51.2001 298.4 51.2001 298.6H50.2001L50 298C49.9 298.2 49.7 298.4 49.5 298.5C49.3 298.6 49.0001 298.7 48.7001 298.7C48.5001 298.7 48.3 298.7 48.1 298.6C47.9 298.5 47.8001 298.4 47.7001 298.3C47.6001 298.2 47.5001 298 47.4001 297.9C47.3001 297.7 47.3 297.6 47.3 297.4C47.3 297.1 47.4 296.9 47.5 296.7C47.6 296.5 47.8 296.4 48 296.2C48.2 296.1 48.5 296 48.8 296C49.1 296 49.5001 295.9 49.9001 296C49.9001 295.7 49.9 295.4 49.8 295.3C49.7 295.2 49.5001 295.1 49.2001 295.1C49.0001 295.1 48.7001 295.1 48.4001 295.2C48.1001 295.3 47.9001 295.3 47.7001 295.4L47.4001 294.3ZM49 297.7C49.2 297.7 49.4 297.7 49.6 297.5C49.7 297.4 49.8001 297.3 49.9001 297.2V296.6C49.7001 296.6 49.5001 296.6 49.4001 296.6C49.2001 296.6 49.1001 296.6 48.9001 296.7C48.8001 296.7 48.7 296.8 48.6 296.9C48.5 297 48.5 297.1 48.5 297.2C48.5 297.4 48.5 297.5 48.6 297.6C48.7 297.6 48.8 297.7 49 297.7Z" fill="#333333"/>
<path d="M54.7 298.6V296.1C54.7 295.7 54.7 295.4 54.6 295.2C54.5 295 54.4 294.9 54.1 294.9C53.9 294.9 53.7 295 53.6 295.1C53.5 295.2 53.4 295.4 53.3 295.5V298.6H52V294H53L53.1 294.6C53.2 294.4 53.4 294.2 53.6 294.1C53.8 294 54.1 293.9 54.4 293.9C54.7 293.9 54.9 294 55.1 294.1C55.3 294.2 55.4 294.4 55.5 294.7C55.6 294.5 55.8 294.3 56 294.1C56.2 294 56.5 293.9 56.8 293.9C57.1 293.9 57.3 293.9 57.5 294C57.7 294.1 57.8 294.2 57.9 294.3C58 294.4 58.1 294.6 58.1 294.9C58.1 295.2 58.2 295.5 58.2 295.9V298.7H57V296C57 295.6 57 295.4 56.9 295.2C56.8 295 56.7 294.9 56.4 294.9C56.2 294.9 56 295 55.9 295.1C55.8 295.2 55.7 295.4 55.6 295.6V298.6H54.7Z" fill="#333333"/>
<path d="M63.1 298.2C62.9 298.3 62.7001 298.5 62.4001 298.6C62.1001 298.7 61.8001 298.7 61.4001 298.7C60.7001 298.7 60.1 298.5 59.8 298.1C59.5 297.7 59.3 297.1 59.3 296.3C59.3 295.5 59.5001 294.9 59.9001 294.5C60.3001 294.1 60.8 293.9 61.5 293.9C61.7 293.9 62.0001 293.9 62.2001 294C62.4001 294.1 62.6 294.2 62.8 294.3C63 294.4 63.1001 294.6 63.2001 294.9C63.3001 295.1 63.4001 295.4 63.4001 295.8C63.4001 295.9 63.4001 296.1 63.4001 296.2C63.4001 296.3 63.4 296.5 63.3 296.7H60.6C60.6 297.1 60.7001 297.4 60.9001 297.6C61.1001 297.8 61.4 297.9 61.8 297.9C62 297.9 62.3 297.9 62.5 297.8C62.7 297.7 62.8 297.7 63 297.6L63.1 298.2ZM61.4001 294.8C61.1001 294.8 60.9001 294.9 60.7001 295.1C60.6001 295.3 60.5001 295.5 60.4001 295.8H62.1C62.1 295.5 62.1 295.2 62 295C61.9 294.9 61.7001 294.8 61.4001 294.8Z" fill="#333333"/>
<path d="M66.9001 298.6V296C66.9001 295.6 66.9001 295.4 66.7001 295.2C66.6001 295 66.4001 295 66.2001 295C66.0001 295 65.8001 295.1 65.6001 295.2C65.4001 295.3 65.3001 295.5 65.3001 295.7V298.7H64.1001V294H65.0001L65.1001 294.6C65.2001 294.4 65.4001 294.2 65.7001 294.1C65.9001 294 66.2001 293.9 66.6001 293.9C66.8001 293.9 67.0001 293.9 67.2001 294C67.4001 294.1 67.5001 294.2 67.6001 294.3C67.7001 294.4 67.8001 294.6 67.9001 294.9C68.0001 295.1 68.0001 295.4 68.0001 295.8V298.7L66.9001 298.6Z" fill="#333333"/>
<path d="M68.7 294H69.3V293.1L70.5 292.8V294H71.6V295H70.5V296.8C70.5 297.1 70.5 297.3 70.6 297.5C70.7 297.6 70.8 297.7 71 297.7C71.1 297.7 71.2 297.7 71.3 297.7C71.4 297.7 71.5 297.6 71.6 297.6L71.8 298.5C71.6 298.6 71.4 298.6 71.2 298.7C71 298.8 70.8 298.8 70.5 298.8C70.1 298.8 69.8 298.7 69.6 298.5C69.4 298.3 69.3 297.9 69.3 297.4V295H68.7V294Z" fill="#333333"/>
<path d="M72.1001 296.3C72.1001 295.5 72.3001 294.9 72.7001 294.5C73.1001 294.1 73.6001 293.9 74.3001 293.9C74.7001 293.9 75.0001 294 75.3001 294.1C75.6001 294.2 75.8001 294.4 76.0001 294.6C76.2001 294.8 76.3001 295.1 76.4001 295.4C76.5001 295.7 76.5001 296 76.5001 296.4C76.5001 297.2 76.3001 297.8 75.9001 298.2C75.5001 298.6 75.0001 298.8 74.3001 298.8C73.9001 298.8 73.6001 298.7 73.3001 298.6C73.0001 298.5 72.8001 298.3 72.6001 298.1C72.4001 297.9 72.3001 297.6 72.2001 297.3C72.1001 297 72.1001 296.7 72.1001 296.3ZM73.3001 296.3C73.3001 296.5 73.3001 296.7 73.4001 296.9C73.4001 297.1 73.5001 297.2 73.6001 297.3C73.7001 297.4 73.8001 297.5 73.9001 297.6C74.0001 297.7 74.2001 297.7 74.3001 297.7C74.6001 297.7 74.8001 297.6 75.0001 297.4C75.1001 297.2 75.2001 296.8 75.2001 296.3C75.2001 295.9 75.1001 295.5 75.0001 295.3C74.9001 295 74.6001 294.9 74.3001 294.9C74.0001 294.9 73.8001 295 73.6001 295.2C73.4001 295.4 73.3001 295.8 73.3001 296.3Z" fill="#333333"/>
<path d="M79.2 297.3C79.2 297.2 79.2 297.1 79 297C78.9 296.9 78.8 296.9 78.6 296.8C78.5 296.7 78.3 296.7 78.1 296.6C77.9 296.5 77.8 296.5 77.6 296.3C77.5 296.2 77.3 296 77.2 295.9C77.1 295.7 77 295.5 77 295.2C77 294.7 77.1 294.4 77.4 294.2C77.7 294 78.1 293.8 78.6 293.8C78.9 293.8 79.3 293.8 79.5 293.9C79.7 294 80 294.1 80.2 294.1L79.9 295C79.8 295 79.6 294.9 79.4 294.8C79.2 294.7 79 294.7 78.7 294.7C78.3 294.7 78.2 294.8 78.2 295.1C78.2 295.2 78.2 295.3 78.4 295.4C78.5 295.5 78.6 295.5 78.8 295.6C78.9 295.7 79.1 295.7 79.3 295.8C79.5 295.9 79.6 296 79.8 296.1C79.9 296.2 80.1 296.3 80.2 296.5C80.3 296.7 80.4 296.9 80.4 297.2C80.4 297.7 80.3 298 80 298.3C79.7 298.6 79.3 298.7 78.7 298.7C78.4 298.7 78.1 298.7 77.8 298.6C77.5 298.5 77.3 298.4 77.1 298.3L77.4 297.4C77.5 297.5 77.7 297.6 78 297.6C78.2 297.7 78.5 297.7 78.7 297.7C78.9 297.7 79 297.7 79.1 297.6C79.1 297.6 79.2 297.5 79.2 297.3Z" fill="#333333"/>
<path d="M67.5999 215.7C67.8999 215.6 67.8999 215.7 67.9999 215.9C68.5999 216.6 69.0999 217.4 69.6999 218.1C69.6999 218.2 69.7999 218.2 69.7999 218.2C70.3999 218.1 70.9999 218.1 71.5999 218C71.7999 218 71.9999 218 72.1999 218C72.2999 218 72.3999 218.1 72.3999 218.2C72.3999 218.3 72.3999 218.4 72.2999 218.4C72.0999 218.5 71.7999 218.6 71.5999 218.6C71.0999 218.7 70.4999 218.8 69.8999 218.9C69.8999 218.9 69.7999 218.9 69.7999 219C69.3999 219.9 69.0999 220.9 68.6999 221.8C68.6999 221.9 68.6999 221.9 68.5999 221.9C68.4999 221.9 68.3999 221.9 68.2999 222C68.1999 222 68.1999 222 68.1999 221.9C68.1999 221.4 68.2999 220.8 68.2999 220.3C68.2999 219.9 68.3999 219.6 68.3999 219.2C68.3999 219.1 68.3999 219.1 68.2999 219.1C67.8999 219.2 67.4999 219.2 67.0999 219.2C66.8999 219.2 66.5999 219.2 66.3999 219.2C66.3999 219.2 66.2999 219.2 66.2999 219.3C66.1999 219.5 66.0999 219.7 65.9999 220C65.9999 220.1 65.8999 220.1 65.8999 220.1C65.7999 220.1 65.6999 220.1 65.5999 220.1C65.5999 220 65.5999 219.9 65.6999 219.9C65.6999 219.7 65.7999 219.5 65.7999 219.4C65.7999 219.3 65.7999 219.1 65.7999 219C65.6999 218.8 65.5999 218.6 65.3999 218.4C65.3999 218.3 65.3999 218.3 65.3999 218.3C65.5999 218.2 65.7999 218.3 65.8999 218.5C65.9999 218.6 66.1999 218.8 66.2999 218.9C66.2999 218.9 66.2999 218.9 66.3999 218.9C66.9999 218.7 67.6999 218.6 68.2999 218.5C68.3999 218.5 68.3999 218.5 68.2999 218.4C67.9999 217.6 67.6999 216.7 67.2999 215.9C67.2999 215.8 67.2999 215.8 67.3999 215.8C67.4999 215.7 67.5999 215.7 67.5999 215.7ZM77.2999 218.4C77.3999 218.3 77.4999 218.2 77.5999 218.1C77.6999 218 77.6999 217.8 77.6999 217.7C77.6999 217.5 77.5999 217.4 77.4999 217.3C77.3999 217.2 77.2999 217.1 77.1999 217C77.0999 216.9 76.8999 216.9 76.7999 216.9C76.5999 216.9 76.4999 217 76.3999 217.1C76.2999 217.2 76.1999 217.3 76.0999 217.4C75.9999 217.5 75.9999 217.7 75.9999 217.8C75.9999 218 76.0999 218.1 76.1999 218.2C76.2999 218.3 76.3999 218.4 76.4999 218.5C76.5999 218.6 76.7999 218.6 76.8999 218.6C77.0999 218.5 77.1999 218.5 77.2999 218.4ZM81.3999 219.6L80.8999 215.8L82.5999 219.4L83.3999 219.3L84.0999 215.4L84.5999 219.2L85.5999 219.1L84.8999 214.2L83.4999 214.4L82.7999 218.1L81.1999 214.7L79.7999 214.9L80.4999 219.8L81.3999 219.6ZM89.2999 218.6C89.4999 218.5 89.5999 218.4 89.6999 218.3C89.7999 218.2 89.8999 218.1 89.9999 217.9L90.0999 218.5L90.7999 218.4L90.4999 215.8L88.3999 216.1L88.4999 216.8L89.4999 216.7V217C89.4999 217.1 89.4999 217.2 89.4999 217.3C89.4999 217.4 89.3999 217.5 89.2999 217.6C89.1999 217.7 89.0999 217.8 88.9999 217.8C88.8999 217.9 88.7999 217.9 88.5999 217.9C88.4999 217.9 88.2999 217.9 88.0999 217.9C87.9999 217.9 87.7999 217.8 87.6999 217.7C87.5999 217.6 87.4999 217.4 87.3999 217.2C87.2999 217 87.1999 216.7 87.1999 216.4C87.1999 216 87.1999 215.7 87.1999 215.4C87.2999 215.1 87.3999 214.9 87.4999 214.8C87.6999 214.7 87.7999 214.6 88.0999 214.6C88.2999 214.6 88.3999 214.6 88.5999 214.7C88.6999 214.8 88.8999 214.9 88.9999 215C89.0999 215.1 89.1999 215.2 89.1999 215.4L90.1999 215.3C90.1999 215.1 90.0999 214.9 89.9999 214.7C89.8999 214.5 89.6999 214.3 89.4999 214.2C89.2999 214.1 89.0999 214 88.7999 213.9C88.5999 213.8 88.2999 213.8 87.9999 213.9C87.4999 214 87.1999 214.1 86.7999 214.4C86.4999 214.6 86.2999 215 86.0999 215.4C85.9999 215.8 85.8999 216.3 85.9999 216.8C86.0999 217.3 86.1999 217.7 86.3999 218.1C86.5999 218.4 86.8999 218.7 87.2999 218.9C87.6999 219.1 88.0999 219.1 88.4999 219C88.8999 218.7 89.0999 218.7 89.2999 218.6ZM92.4999 218.2L92.7999 217L94.5999 216.8L95.1999 217.9L96.1999 217.8L93.7999 213.1L92.7999 213.2L91.6999 218.4L92.4999 218.2ZM93.2999 214L94.1999 215.9L92.8999 216.1L93.2999 214Z" fill="#333333"/>
<path d="M46.8999 302.2V259.1C48.5999 258.1 50.2999 257.3 52.1999 256.3C54.0999 257.1 55.4999 257.8 57.1999 258.8V302.2H46.8999Z" fill="#D12B39"/>
<path d="M57.1999 302.2H46.8999V259.1C48.0999 258.4 49.1999 257.8 50.3999 257.2C50.9999 256.9 51.5999 256.6 52.1999 256.3L52.3999 256.4C54.1999 257.2 55.4999 257.8 57.1999 258.8V302.2C57.2999 302.2 57.1999 302.2 57.1999 302.2ZM46.9999 302.1H57.1999V258.8C55.5999 257.8 54.1999 257.2 52.3999 256.4L52.1999 256.3C51.5999 256.6 50.9999 256.9 50.3999 257.2C49.1999 257.8 48.0999 258.4 46.9999 259V302.1Z" fill="#D12B39"/>
<path d="M48.2001 268.1L45.1001 293.4L61.4001 295.4L64.5001 270.1L48.2001 268.1Z" fill="white"/>
<path d="M61.4001 296.4H61.3001L45.0001 294.4C44.5001 294.3 44.1001 293.8 44.1001 293.3L47.2001 268C47.2001 267.7 47.4001 267.5 47.6001 267.3C47.8001 267.1 48.1001 267.1 48.3001 267.1L64.6001 269.1C65.1001 269.2 65.5001 269.7 65.5001 270.2L62.4001 295.5C62.4001 295.8 62.2001 296 62.0001 296.2C61.9001 296.3 61.6001 296.4 61.4001 296.4ZM46.2001 292.5L60.5001 294.2L63.3001 270.9L49.0001 269.2L46.2001 292.5Z" fill="#333333"/>
<path d="M59.4001 285.6L56.3001 285.2C56.2001 285.2 56.1001 285.1 56.2001 285L56.6001 282C56.6001 281.9 56.6001 281.8 56.5001 281.8L53.5001 281.4C53.4001 281.4 53.3001 281.4 53.3001 281.5L52.9001 284.5C52.9001 284.6 52.8001 284.7 52.7001 284.6L49.7001 284.2C49.6001 284.2 49.5001 284.3 49.5001 284.3L49.1001 287.3C49.1001 287.4 49.1001 287.5 49.2001 287.5L52.2001 287.9C52.3001 287.9 52.4001 288 52.3001 288.1L51.9001 291.1C51.9001 291.2 51.9001 291.3 52.0001 291.3L55.0001 291.7C55.1001 291.7 55.2001 291.7 55.2001 291.6L55.6001 288.6C55.6001 288.5 55.7001 288.4 55.8001 288.5L58.9001 288.9C59.0001 288.9 59.1001 288.9 59.1001 288.8L59.5001 285.8C59.6001 285.7 59.5001 285.6 59.4001 285.6Z" fill="#D12B39"/>
<path d="M126.2 272.9C126.2 270 127.4 267.7 129.6 267.7V264.6H141L141.1 267.7C143.3 267.7 144.4 270 144.4 272.9V291.6C144.4 294.5 142.6 297.4 140.2 297.4H130.8C128.8 297.4 126.2 294.6 126.2 291.6V272.9Z" fill="white"/>
<path d="M140.2 298.2H130.8C128.4 298.2 125.5 295.2 125.5 291.7V273V272.9C125.5 269.7 126.8 267.6 128.9 267.2V264.7C128.9 264.3 129.2 264 129.7 264H141.1C141.5 264 141.8 264.3 141.9 264.7L142 267.2C144 267.6 145.3 269.8 145.3 273.1V291.8C145.2 294.8 143.2 298.2 140.2 298.2ZM127 273V291.6C127 294.1 129.2 296.6 130.8 296.6H140.2C142 296.6 143.7 294.2 143.7 291.6V272.9C143.7 270.9 143 268.5 141.2 268.5C140.8 268.5 140.5 268.2 140.4 267.8L140.3 265.4H130.3V267.8C130.3 268.2 130 268.5 129.5 268.5C127.6 268.5 126.9 270.9 126.9 272.9C127 272.9 127 273 127 273Z" fill="#333333"/>
<path d="M131.1 294.6C131.1 295.6 130.3 296.4 129.3 296.4C128.3 296.4 127.5 295.6 127.5 294.6C127.5 293.6 128.3 292.8 129.3 292.8C129.8 292.8 130.2 293 130.5 293.2C130.9 293.6 131.1 294.1 131.1 294.6Z" fill="#D12B39"/>
<path d="M141.5 276.5C141.5 277.5 140.7 278.3 139.7 278.3C138.7 278.3 137.9 277.5 137.9 276.5C137.9 275.5 138.7 274.7 139.7 274.7C140.2 274.7 140.6 274.9 140.9 275.1C141.3 275.5 141.5 275.9 141.5 276.5Z" fill="#D12B39"/>
<path d="M143.8 274.3C143.8 275.3 143 276.1 142 276.1C141 276.1 140.2 275.3 140.2 274.3C140.2 273.3 141 272.5 142 272.5C142.5 272.5 142.9 272.7 143.2 272.9C143.5 273.3 143.8 273.7 143.8 274.3Z" fill="#D12B39"/>
<path d="M142.9 275.2C142.9 276.2 142.1 277 141.1 277C140.1 277 139.3 276.2 139.3 275.2C139.3 274.2 140.1 273.4 141.1 273.4C141.6 273.4 142 273.6 142.3 273.8C142.6 274.2 142.9 274.6 142.9 275.2Z" fill="#D12B39"/>
<path d="M142 273.1C142 274.1 141.2 274.9 140.2 274.9C139.2 274.9 138.4 274.1 138.4 273.1C138.4 272.1 139.2 271.3 140.2 271.3C140.7 271.3 141.1 271.5 141.4 271.7C141.8 272 142 272.5 142 273.1Z" fill="#D12B39"/>
<path d="M138.9 275.6C138.9 276.6 138.1 277.4 137.1 277.4C136.1 277.4 135.3 276.6 135.3 275.6C135.3 274.6 136.1 273.8 137.1 273.8C137.6 273.8 138 274 138.3 274.2C138.7 274.6 138.9 275 138.9 275.6Z" fill="#D12B39"/>
<path d="M130.4 272.1C130.4 273.1 129.6 273.9 128.6 273.9C127.6 273.9 126.8 273.1 126.8 272.1C126.8 271.1 127.6 270.3 128.6 270.3C129.1 270.3 129.5 270.5 129.8 270.7C130.2 271 130.4 271.5 130.4 272.1Z" fill="#D12B39"/>
<path d="M135.1 274.3C135.1 275.3 134.3 276.1 133.3 276.1C132.3 276.1 131.5 275.3 131.5 274.3C131.5 273.3 132.3 272.5 133.3 272.5C133.8 272.5 134.2 272.7 134.5 272.9C134.8 273.3 135.1 273.7 135.1 274.3Z" fill="#D12B39"/>
<path d="M143.8 292.8C143.8 293.8 143 294.6 142 294.6C141 294.6 140.2 293.8 140.2 292.8C140.2 291.8 141 291 142 291C142.5 291 142.9 291.2 143.2 291.4C143.5 291.8 143.8 292.3 143.8 292.8Z" fill="#D12B39"/>
<path d="M141.5 294.6C141.5 295.6 140.7 296.4 139.7 296.4C138.7 296.4 137.9 295.6 137.9 294.6C137.9 293.6 138.7 292.8 139.7 292.8C140.2 292.8 140.6 293 140.9 293.2C141.3 293.6 141.5 294.1 141.5 294.6Z" fill="#D12B39"/>
<path d="M138.9 295.2C138.9 296.2 138.1 297 137.1 297C136.1 297 135.3 296.2 135.3 295.2C135.3 294.2 136.1 293.4 137.1 293.4C137.6 293.4 138 293.6 138.3 293.8C138.7 294.2 138.9 294.6 138.9 295.2Z" fill="#D12B39"/>
<path d="M134.5 291.2C134.5 292.2 133.7 293 132.7 293C131.7 293 130.9 292.2 130.9 291.2C130.9 290.2 131.7 289.4 132.7 289.4C133.2 289.4 133.6 289.6 133.9 289.8C134.3 290.2 134.5 290.6 134.5 291.2Z" fill="#D12B39"/>
<path d="M136.3 294.3C136.3 295.3 135.5 296.1 134.5 296.1C133.5 296.1 132.7 295.3 132.7 294.3C132.7 293.3 133.5 292.5 134.5 292.5C135 292.5 135.4 292.7 135.7 292.9C136 293.3 136.3 293.8 136.3 294.3Z" fill="#D12B39"/>
<path d="M134 295.2C134 296.2 133.2 297 132.2 297C131.2 297 130.4 296.2 130.4 295.2C130.4 294.2 131.2 293.4 132.2 293.4C132.7 293.4 133.1 293.6 133.4 293.8C133.8 294.2 134 294.6 134 295.2Z" fill="#D12B39"/>
<path d="M132.2 274.9C132.2 275.9 131.4 276.7 130.4 276.7C129.4 276.7 128.6 275.9 128.6 274.9C128.6 273.9 129.4 273.1 130.4 273.1C130.9 273.1 131.3 273.3 131.6 273.5C132 273.9 132.2 274.3 132.2 274.9Z" fill="#D12B39"/>
<path d="M129.7 276.1C129.7 277.1 128.9 277.9 127.9 277.9C126.9 277.9 126.1 277.1 126.1 276.1C126.1 275.1 126.9 274.3 127.9 274.3C128.4 274.3 128.8 274.5 129.1 274.7C129.5 275.1 129.7 275.5 129.7 276.1Z" fill="#D12B39"/>
<path d="M133.3 285.9C133.3 286.9 132.5 287.7 131.5 287.7C130.5 287.7 129.7 286.9 129.7 285.9C129.7 284.9 130.5 284.1 131.5 284.1C132 284.1 132.4 284.3 132.7 284.5C133 284.9 133.3 285.4 133.3 285.9Z" fill="#D12B39"/>
<path d="M143.8 288.4C143.8 289.4 143 290.2 142 290.2C141 290.2 140.2 289.4 140.2 288.4C140.2 287.4 141 286.6 142 286.6C142.5 286.6 142.9 286.8 143.2 287C143.5 287.4 143.8 287.8 143.8 288.4Z" fill="#D12B39"/>
<path d="M130.4 287.6C130.4 288.6 129.6 289.4 128.6 289.4C127.6 289.4 126.8 288.6 126.8 287.6C126.8 286.6 127.6 285.8 128.6 285.8C129.1 285.8 129.5 286 129.8 286.2C130.2 286.6 130.4 287.1 130.4 287.6Z" fill="#D12B39"/>
<path d="M140.7 288.4C140.7 289.4 139.9 290.2 138.9 290.2C137.9 290.2 137.1 289.4 137.1 288.4C137.1 287.4 137.9 286.6 138.9 286.6C139.4 286.6 139.8 286.8 140.1 287C140.4 287.4 140.7 287.8 140.7 288.4Z" fill="#D12B39"/>
<path d="M138.1 288.4C138.1 289.4 137.3 290.2 136.3 290.2C135.3 290.2 134.5 289.4 134.5 288.4C134.5 287.4 135.3 286.6 136.3 286.6C136.8 286.6 137.2 286.8 137.5 287C137.8 287.4 138.1 287.8 138.1 288.4Z" fill="#D12B39"/>
<path d="M135.1 288.4C135.1 289.4 134.3 290.2 133.3 290.2C132.3 290.2 131.5 289.4 131.5 288.4C131.5 287.4 132.3 286.6 133.3 286.6C133.8 286.6 134.2 286.8 134.5 287C134.8 287.4 135.1 287.8 135.1 288.4Z" fill="#D12B39"/>
<path d="M131.5 289.4C131.5 290.4 130.7 291.2 129.7 291.2C128.7 291.2 127.9 290.4 127.9 289.4C127.9 288.4 128.7 287.6 129.7 287.6C130.2 287.6 130.6 287.8 130.9 288C131.3 288.4 131.5 288.8 131.5 289.4Z" fill="#D12B39"/>
<path d="M132.7 291.9C132.7 292.9 131.9 293.7 130.9 293.7C129.9 293.7 129.1 292.9 129.1 291.9C129.1 290.9 129.9 290.1 130.9 290.1C131.4 290.1 131.8 290.3 132.1 290.5C132.5 290.9 132.7 291.4 132.7 291.9Z" fill="#D12B39"/>
<path d="M130.4 291.9C130.4 292.9 129.6 293.7 128.6 293.7C127.6 293.7 126.8 292.9 126.8 291.9C126.8 290.9 127.6 290.1 128.6 290.1C129.1 290.1 129.5 290.3 129.8 290.5C130.2 290.9 130.4 291.4 130.4 291.9Z" fill="#D12B39"/>
<path d="M138.1 291.2C138.1 292.2 137.3 293 136.3 293C135.3 293 134.5 292.2 134.5 291.2C134.5 290.2 135.3 289.4 136.3 289.4C136.8 289.4 137.2 289.6 137.5 289.8C137.8 290.2 138.1 290.6 138.1 291.2Z" fill="#D12B39"/>
<path d="M141.5 291.6C141.5 292.6 140.7 293.4 139.7 293.4C138.7 293.4 137.9 292.6 137.9 291.6C137.9 290.6 138.7 289.8 139.7 289.8C140.2 289.8 140.6 290 140.9 290.2C141.3 290.6 141.5 291.1 141.5 291.6Z" fill="#D12B39"/>
<path d="M143.8 290.2C143.8 291.2 143 292 142 292C141 292 140.2 291.2 140.2 290.2C140.2 289.2 141 288.4 142 288.4C142.5 288.4 142.9 288.6 143.2 288.8C143.5 289.1 143.8 289.6 143.8 290.2Z" fill="#D12B39"/>
<path d="M128.7 260.7V263.6C128.7 264.1 129.1 264.6 129.7 264.6H141C141.5 264.6 142 264.2 142 263.6V260.7C142 260.2 141.6 259.7 141 259.7H129.6C129.1 259.8 128.7 260.2 128.7 260.7Z" fill="#D12B39"/>
<path d="M141 265.6H129.6C128.5 265.6 127.6 264.7 127.6 263.6V260.7C127.6 259.6 128.5 258.7 129.6 258.7H141C142.1 258.7 143 259.6 143 260.7V263.6C143 264.7 142.1 265.6 141 265.6ZM129.7 260.8V263.6H141.1V260.8H129.7Z" fill="#333333"/>
<path d="M144.4 276.1H126.2V287.2H144.4V276.1Z" fill="white"/>
<path d="M145.2 287.9H125.5V275.3H145.2V287.9ZM127 286.4H143.7V276.8H127V286.4Z" fill="#333333"/>
<path d="M135.6 278.1C136.3 278.1 136.9 278.2 137.4 278.5C137.9 278.8 138.2 279.2 138.5 279.7C138.7 280.2 138.9 280.7 138.9 281.2H136.7C136.7 281.1 136.6 280.9 136.6 280.7C136.5 280.5 136.4 280.4 136.3 280.3C136.2 280.2 136 280.1 135.7 280.1C135.3 280.1 135.1 280.2 134.8 280.5C134.6 280.8 134.5 281.2 134.5 281.8C134.5 282.4 134.6 282.9 134.8 283.2C135 283.5 135.3 283.7 135.7 283.7C135.9 283.7 136.1 283.6 136.2 283.5C136.3 283.4 136.4 283.2 136.5 283C136.6 282.8 136.6 282.7 136.6 282.6H138.8C138.8 283.1 138.7 283.6 138.4 284.1C138.1 284.6 137.8 284.9 137.3 285.2C136.8 285.5 136.3 285.6 135.6 285.6C134.9 285.6 134.3 285.4 133.7 285.1C133.1 284.8 132.7 284.3 132.4 283.8C132.1 283.2 131.9 282.6 131.9 281.8C131.9 281 132.1 280.4 132.4 279.8C132.7 279.2 133.2 278.8 133.7 278.4C134.2 278.3 134.9 278.1 135.6 278.1Z" fill="#333333"/>
<path d="M251.3 48.2L249.9 62.8C249.7 64.1 249 64.7 247.8 64.8L241 64.9L239.6 79.8C239.5 81.2 238.8 81.9 237.4 81.8L223.2 81C221.9 80.9 221 79.9 221.1 78.6L222.1 65L204.9 65.5C200.7 65.7 197 64.2 196.2 59.7C196 57.8 195.9 55.9 196.3 54.1H196.9L197 54V53.7C196.8 53.7 196.7 53.7 196.4 53.6C196.4 53.4 196.4 53.4 196.5 53.3V52.8C197.1 51.1 197.9 49.1 198.7 47.3C199.8 44.7 201.1 41.9 202.4 39.2C204.8 34.4 207 30.2 209.1 26.2L223.2 1.1C223.6 0.4 224.2 0 225.1 0H238.4C245.1 0 247.5 4.6 246.7 10.8L242.5 45.4L249.2 45.8C250.5 45.9 251.5 47.2 251.3 48.2ZM201.6 45.5C201.5 45.5 201.5 45.5 201.5 45.4H200.7C200.7 45.6 200.8 45.8 200.9 45.8C201 45.8 201.1 45.8 201.2 45.9C201.5 45.7 201.6 45.6 201.6 45.5ZM203.8 52C203.8 51.9 203.7 51.8 203.5 51.6C203.4 51.6 203.2 51.6 203 51.5C202.8 51.6 202.5 51.7 202.5 51.9C202.5 52 202.5 52.1 202.6 52.1H203.5C203.8 52.1 203.8 52 203.8 52ZM205.3 57H204.6V57.3C204.7 57.3 204.8 57.4 204.9 57.4C205 57.4 205.1 57.5 205.1 57.5C205.1 57.5 205.2 57.4 205.2 57.3L205.3 57ZM209.3 41.2L209.1 40.8L208.8 40.6C208.7 40.5 208.6 40.5 208.5 40.5H208.2C208.1 40.6 208 40.6 208 40.6C207.7 40.9 207.6 41.2 207.7 41.5L208.4 41.9V41.8C208.3 41.7 208.7 41.3 209 41.4C209 41.3 209.1 41.3 209.3 41.2ZM208.4 38.4L208.7 38.9H209L209.1 38.6L208.4 38.4ZM208.2 50.8L208.1 50.7V50.6L207.9 50.8H208.2ZM210 40.8L209.4 39.8L208.8 40.1C208.9 40.2 209.1 40.4 209.4 40.5C209.5 40.7 209.8 40.8 210 40.8ZM214.2 23.2C214.5 23.2 214.9 23.1 215.1 23V22.8C215 22.8 214.9 22.7 214.9 22.7C214.8 22.7 214.8 22.7 214.7 22.6H214.4C214.3 22.6 214.3 22.6 214 22.7V23C214 23 214.1 23 214.1 23.1L214.2 23.2ZM214.1 57.4C213.9 57.3 213.8 57.3 213.6 57.3C213.5 57.2 213.4 57.2 213.4 57.1C213.4 57.1 213.3 57.1 213.3 57.3C213.2 57.3 213.2 57.4 213.2 57.4C213.5 57.4 213.9 57.5 214.1 57.4ZM215.1 47.8C215.1 47.7 214.8 47.4 214.3 47.3L213.9 47.6V47.8C214.1 47.9 214.2 47.9 214.5 47.9C214.7 48 215 48 215.1 47.8ZM214.5 52.6C214.3 52.5 214 52.3 213.9 52.3L213.7 52.5L213.9 52.7C214.1 52.8 214.4 52.7 214.5 52.6ZM217 18.5C216.9 18.4 216.8 18.4 216.7 18.4C216.7 18.3 216.6 18.3 216.5 18.2L216.1 18.5C216.2 18.6 216.6 18.8 217 19V18.5ZM216 53.5C216.1 53.5 216.2 53.5 216.5 53.4C216.4 53.3 216.2 53.3 215.9 53.3C215.8 53.3 215.6 53.3 215.4 53.2C215.4 53.4 215.4 53.5 215.5 53.6L216 53.5ZM216.3 45.6V45.8C216.4 45.8 216.5 45.7 216.8 45.6H216.7C216.7 45.6 216.6 45.5 216.5 45.5C216.5 45.5 216.4 45.5 216.3 45.6ZM217.2 57.1V56.8H217C217 56.7 216.9 56.7 216.7 56.7C216.6 56.7 216.5 56.8 216.3 56.8C215.9 56.9 216.2 57.3 216.3 57.3C216.4 57.4 216.5 57.5 216.8 57.6H217.1C217.1 57.5 217.1 57.5 217.2 57.5C217.1 57.2 217.3 57.2 217.2 57.1ZM219.5 12.1L219.7 12.3L220.8 12.4C220.9 12.4 221 12.3 221.2 12.2C220.9 12.1 220.7 11.9 220.8 11.8C220.8 11.7 220.9 11.6 221.1 11.5C220.7 11.6 220.5 11.7 220.3 11.7C219.9 11.7 219.6 11.8 219.5 12.1ZM219.2 56.1C218.7 56.1 218.3 55.8 217.8 55.4C217.7 55.5 217.7 55.6 217.7 55.9C217.7 56 218 56.5 218.5 56.5H218.7C218.8 56.6 219 56.5 219.2 56.1ZM218.4 51.5C218.3 51.7 218.3 51.8 218.6 51.9L218.8 51.7L218.4 51.5ZM224.8 44.6L226.1 34C226 34.3 225.8 34.7 225.8 34.9H225.7C224.2 37.7 222.9 41 221.3 44.5L224.8 44.6ZM222.5 63.6C222.4 63.6 222.4 63.5 222.4 63.5H221.8V63.6C221.7 63.6 221.7 63.7 221.7 63.8C221.7 64 221.8 64.2 222.3 64.2C222.4 64.1 222.5 64 222.6 63.9L222.5 63.6ZM225.8 20.1H226.7V19.8H225.8V20.1ZM225.7 45H224.8C224.8 45.3 225.1 45.6 225.7 45.6V45ZM226.8 41.6C227.2 41.5 227.4 41.4 227.4 41.2C227.4 41.1 226.6 40.7 226.5 40.6L225.9 41L226 41.8C226.1 41.8 226.2 41.7 226.5 41.7C226.7 41.6 226.8 41.6 226.8 41.6ZM227.8 14.6H228.7V14.3H227.8V14.6ZM229.2 20.8L228 21L228.3 21.4L229.1 21.3L229.2 20.8ZM227.3 44.4C227.6 44.4 227.9 44.5 227.9 44.1C227.9 43.9 227.8 43.7 227.6 43.6C227.6 43.7 227.5 43.6 227.3 43.3V44.2C227.2 44.4 227.2 44.4 227.3 44.4ZM228.6 39.2C228.6 39.2 228.6 39.1 228.7 39V38.7H227.8V39.3L228.6 39.2ZM227.4 62.5C227.2 62.5 226.5 62.7 226.4 62.9C226.4 63.4 226.7 63.6 227.4 63.7C227.6 63.7 227.8 63.5 227.8 63C227.9 62.8 228 62.5 227.4 62.5ZM228.8 44.7L229.2 44.5C229.2 44.3 229.1 44 228.9 43.9C228.6 43.9 228.2 44 228.2 44.3V44.6L228.8 44.7ZM228 46.2H228.5V45.6H228V46.2ZM229 48.8C228.8 48.7 228.5 48.5 228.3 48.5C228.2 48.6 228.1 48.7 228 48.8C227.9 48.9 227.9 49 227.9 49.1C228.4 49.2 228.8 49 229 48.8ZM229.5 23.6H230V23.1H229.5V23.6ZM231 20.7L231.3 20.1H230.6C230.4 20.1 230.1 20.1 230 20.2C230 20.4 230.4 20.5 231 20.7ZM230.9 22.5C230.9 22.4 230.8 22.3 230.8 22.1V21.9H229.9V22.6L230.9 22.5ZM229.8 39.9H229.1V40.2H229.8V39.9ZM230.8 19.5H231.4V19.2H230.8V19.5ZM229.7 60.9C229.6 60.7 229.5 60.7 229.5 60.7C229.4 60.3 229.3 60.2 228.9 60.6V61.1C228.9 61.1 229 61.1 229 61.2H229.2C229.6 61.2 229.7 61.2 229.7 60.9ZM231.9 22.3V22H231.2V22.3H231.9ZM230.3 52.3C230.3 52.2 230.3 52.1 230.2 51.9C230.1 51.9 230 52 230 52C229.9 52 229.8 52.1 229.8 52.1C229.7 52.1 229.7 52.1 229.6 52.2H229.8L229.9 52.3C230 52.4 230.1 52.4 230.2 52.4C230.2 52.4 230.2 52.3 230.3 52.3ZM232 16.9L232.2 17.4L232.7 17.2L232.4 16.8L232 16.9ZM232.2 14.7L232.3 15.3C232.5 15.2 232.8 15.2 233.1 15.2H234C234 14.7 233.8 14.6 233.3 14.6H232.8C232.7 14.6 232.5 14.7 232.2 14.7ZM231.4 31.8C231.7 31.8 232.2 31.8 232.5 31.5H231.7C231.6 31.6 231.6 31.6 231.4 31.8ZM232.3 36.7L232 36.3H231.5C231.4 36.4 231.3 36.4 231.1 36.4C231.1 36.6 231.2 36.9 231.4 37.1C231.8 37.1 232 36.9 232.3 36.7ZM232.1 21V21.6H232.9V21H232.1ZM233.1 34.5H233C232.8 34.4 232.7 34.2 232.5 34.2H231.8C231.7 34.3 231.5 34.7 231.5 35H233L233.1 34.5ZM231.8 41.5C231.8 41.4 231.7 41.4 231.5 41.4V41.6H231.6C231.7 41.4 231.7 41.4 231.8 41.5ZM233.2 18.5C233.2 18.6 233.2 18.7 233.1 18.8C233 18.8 232.9 18.8 232.9 18.9C233 19 233 19 233.1 19L233.2 19.2C233.5 19.1 233.5 18.9 233.2 18.5ZM233.3 12.4C233.5 12.4 233.9 12.3 234.5 12.2C234.3 12.1 234.2 12.1 234.1 11.8C234 11.7 233.9 11.7 233.5 11.7L233.3 12.4ZM232.9 29.5H233.1C233.4 29.5 233.6 29.4 233.6 29.2L233.3 28.9C233.2 28.8 233.1 28.8 233 28.8L232.5 29.1C232.7 29.3 232.8 29.4 232.9 29.5ZM233.2 32.9C233.4 32.9 233.5 33 233.5 33C234 33.1 234.2 33 234.2 32.5H233.5L233.1 32.8L232.9 32.4C232.8 32.4 232.8 32.5 232.8 32.5C232.8 32.5 232.7 32.6 232.6 32.6C232.6 32.6 232.4 32.6 232.2 32.7L232.4 33.2C232.7 33.2 233 33.2 233.2 33.1V32.9ZM234.5 28.5L232.6 28.2V28.7L234.5 28.5ZM234.7 22.4C234.7 22.1 234.4 21.9 233.9 21.9H233.4V22C233.3 22 233.3 22 233.2 22.1L233.9 22.6L234.7 22.4ZM234.1 23.9C233.8 23.9 233.4 24 233.1 24.2L233.3 24.7H234.2L234.1 23.9ZM234.2 11.3L234.4 12H235.1V11.7C235.2 11.7 235.2 11.6 235.2 11.5H234.9C234.9 11.5 234.5 11.3 234.2 11.3ZM233.2 30.7L233.7 30.8L233.8 30.6L233.2 30.3V30.7ZM235.6 16C235.1 15.9 234.8 15.8 234.4 15.9V16L234.3 16.1V16.7H235.1C235.3 16.5 235.6 16.3 235.6 16ZM235.3 20.1C235.2 20 235.1 20 235 20C235 19.9 234.9 19.9 234.7 19.9L234.6 20C234.5 20.1 234.5 20.3 234.5 20.6C234.8 20.5 235.2 20.3 235.3 20.1ZM234.1 36C234.2 35.9 234.3 35.8 234.5 35.6L233.6 35.4V35.7C233.5 35.9 233.7 36.3 234.1 36ZM234.3 41.1H233.8C233.7 41.1 233.6 41.1 233.6 41C233.5 41.1 233.5 41.2 233.5 41.2C233.6 41.3 233.6 41.4 233.6 41.4C233.7 41.3 233.8 41.3 234.1 41.3C234.1 41.4 234.3 41.2 234.3 41.1ZM235.9 35.4C235.9 35.5 235.9 35.5 236 35.6C236 35.7 236.1 35.7 236.1 35.6C236.3 35.5 235.9 35.4 235.9 35.4ZM238.1 35.1C237.9 35.1 237.8 35.1 237.7 35.2C237.6 35.2 237.5 35.3 237.3 35.4H237.6C237.6 35.3 237.6 35.3 237.7 35.3C237.9 35.2 238 35.2 238.1 35.1ZM240.8 37.5L240.6 37.3C240.3 36.9 239.8 37.1 239.5 37.2C239.3 37.2 239.1 37.3 239.1 37.4C239.1 37.6 239.1 38.1 239.6 38.1C240.1 38.2 240.8 38 240.8 37.5ZM239.6 35.6L240.2 35.9V35.8L239.7 35.5L239.6 35.6ZM240.2 39.7C240.2 39.6 240.1 39.6 240.1 39.6V39.5H239.6C239.5 39.5 239.4 39.6 239.4 39.7L240.1 39.9L240.2 39.7ZM242.5 34.2L242.3 34.1H241.6C241.5 34.2 241.5 34.2 241.4 34.2V34.3C241.5 34.4 241.7 34.7 242.1 34.7C242.3 34.7 242.5 34.3 242.5 34.2Z" fill="#D12B39"/>
<path d="M407.5 298.2C396.7 298.2 385.3 294.9 383.4 288.2C383.4 288.1 383.4 288 383.3 287.9C382.6 276.6 382.6 266.1 383.3 256.7C383.4 255.9 384.1 255.2 384.9 255.3C385.7 255.4 386.3 256.1 386.3 256.9C385.6 266.1 385.6 276.4 386.3 287.5C387.8 292.1 397.9 295.5 409 295.1C418.7 294.8 425.6 291.8 426.6 287.5C427.3 275.5 427.3 265.5 426.6 256.8C426.5 256 427.2 255.3 428 255.2C428.8 255.1 429.5 255.8 429.6 256.6C430.3 265.4 430.3 275.6 429.6 287.8C429.6 287.9 429.6 288 429.6 288C428 295 418 297.8 409.1 298C408.6 298.2 408 298.2 407.5 298.2Z" fill="#333333"/>
<path opacity="0.9" d="M424.6 256.5C425.3 265.2 425.4 274 424.8 284C423.2 294.1 414.6 294.6 405 294.5C392.6 294.3 385.7 292.4 384.7 286.8C384.1 276.9 384 266 384.6 257.1L424.6 256.5Z" fill="#D12B39"/>
<path d="M380.4 257.5C384.8 255 387.2 255.9 391.1 258.5C394.9 260.6 398.1 261.2 400.9 257.9C402.9 255.6 407.4 254.9 411.4 257.5C414 259.4 416.6 259.3 420 256.8C422.9 254.3 427.1 256.8 431.4 256.8C429.7 253.7 426.9 250.8 423 248C427.8 239.8 421.8 236.1 405.9 236.1C390.3 236.1 385.4 239.5 390.8 247.3C386.7 250.5 383.3 254 380.4 257.5Z" fill="white"/>
<path d="M396.5 261.8C394.3 261.8 392.2 260.8 390.5 259.9C390.5 259.9 390.4 259.9 390.4 259.8C386.6 257.2 384.9 256.8 381.2 258.8C380.6 259.2 379.8 259 379.3 258.5C378.8 258 378.8 257.2 379.3 256.6C382.1 253.1 385.2 249.9 388.9 247C387.2 244.1 386.8 241.7 387.9 239.7C389.7 236.2 395.3 234.7 406 234.7C406 234.7 406 234.7 406.1 234.7C417.2 234.7 423.3 236.4 425.4 240.1C426.6 242.1 426.5 244.7 425 247.6C428.7 250.4 431.2 253.2 432.8 256.1C433.1 256.6 433 257.1 432.8 257.6C432.5 258.1 432 258.3 431.5 258.3C429.8 258.3 428.3 258 426.8 257.7C424.1 257.1 422.3 256.9 421.1 258L421 258.1C417.1 260.9 413.8 261.2 410.6 258.8C407.3 256.7 403.6 257.2 402.2 259C400.3 261 398.4 261.8 396.5 261.8ZM392 257.3C395.8 259.4 397.9 259.4 399.8 257C402.2 254.2 407.5 253.1 412.3 256.3C414.1 257.6 415.9 258 419.1 255.7C421.5 253.6 424.5 254.2 427.3 254.8C427.7 254.9 428 254.9 428.4 255C426.9 253.1 424.8 251.2 422.2 249.2C421.6 248.7 421.4 247.9 421.8 247.2C423.2 244.8 423.5 242.9 422.8 241.5C421.8 239.7 418 237.6 406.1 237.6C406.1 237.6 406.1 237.6 406 237.6C394.7 237.6 391.4 239.5 390.6 241C390 242.2 390.5 244 392.2 246.4C392.7 247.1 392.5 248 391.9 248.4C389.4 250.3 387.2 252.3 385.2 254.4C387.3 254.5 389.4 255.6 392 257.3Z" fill="#333333"/>
<path d="M405.5 250.6C400.1 250.6 395 250.1 390.4 248.8C389.6 248.6 389.2 247.7 389.4 246.9C389.6 246.1 390.5 245.7 391.3 245.9C400 248.5 411.2 247.7 422.9 246.5C423.7 246.4 424.5 247 424.5 247.8C424.6 248.6 424 249.4 423.2 249.4C417.1 250.1 411.1 250.6 405.5 250.6Z" fill="#333333"/>
<path d="M394.7 239.4L389.2 301.4L292.4 292.9L297.9 230.9" fill="white"/>
<path d="M389.3 302.9H389.2L292.4 294.4C291.6 294.3 291 293.6 291 292.8L296.5 230.8C296.6 230 297.3 229.4 298.1 229.4C298.9 229.5 299.5 230.2 299.5 231L294.2 291.5L388 299.8L393.3 239.3C393.4 238.5 394.1 237.9 394.9 237.9C395.7 238 396.3 238.7 396.3 239.5L390.8 301.5C390.8 301.9 390.6 302.3 390.3 302.5C390 302.8 389.6 302.9 389.3 302.9Z" fill="#333333"/>
<path d="M297.6 215L296.2 230.7L396.3 239.5L397.7 223.8L297.6 215Z" fill="white"/>
<path d="M396.3 241.1H396.2L296.1 232.3C295.3 232.2 294.7 231.5 294.7 230.7L296.1 215C296.1 214.6 296.3 214.2 296.6 214C296.9 213.7 297.3 213.6 297.7 213.7L397.8 222.5C398.6 222.6 399.2 223.3 399.2 224.1L397.8 239.8C397.8 240.2 397.6 240.6 397.3 240.8C397 240.9 396.7 241.1 396.3 241.1ZM297.9 229.4L395 238L396.1 225.3L299 216.7L297.9 229.4Z" fill="#333333"/>
<path d="M344.7 220.6L338 296.9L344 297.4L350.7 221.1L344.7 220.6Z" fill="#D12B39"/>
<path d="M393.8 270.6L294.1 261.8L294.6 255.8L394.4 264.6L393.8 270.6Z" fill="#D12B39"/>
<path d="M337.5 221.5L312 234.8L321.6 253.2L347.2 239.8L337.5 221.5Z" fill="white"/>
<path d="M321.6 254.2C321.5 254.2 321.4 254.2 321.3 254.2C321 254.1 320.8 253.9 320.7 253.7L311.1 235.3C310.8 234.8 311 234.2 311.5 234L337.1 220.6C337.3 220.5 337.6 220.4 337.9 220.5C338.2 220.6 338.4 220.8 338.5 221L348.1 239.4C348.4 239.9 348.2 240.5 347.7 240.7L322 254.1C321.9 254.2 321.7 254.2 321.6 254.2ZM313.3 235.3L322 251.9L345.8 239.4L337.1 222.8L313.3 235.3Z" fill="#333333"/>
<path d="M375.4 202.3C373.4 201.1 368.1 199.8 361.4 204C357.5 206.5 352.2 210.5 348.3 212.6C344.8 209.8 340.3 204.9 336.9 201.8C331.1 196.5 325.6 196.9 323.5 197.7C319 199.4 317.9 203.2 318 206.3C318.1 209.6 321.2 212.2 324.5 213.7C329.3 215.8 332.2 216.5 336.3 217.3C331 219.6 325.9 222.3 320.7 225.5L324.7 226.4L324.4 230.4C332.1 225.6 339.1 222.2 347.6 219.4C356.2 223.9 362.2 228.4 369.5 234.5L369.9 230.7L373.8 230.1C368.9 226 364.5 222.5 359.4 219.3C363.5 219.3 366.5 219.1 371.4 217.9C375 217 378.4 215 379.1 211.8C379.9 208.7 379.5 204.7 375.4 202.3ZM324.6 208.4C323 205.8 325.1 202.6 328.2 202.7C331.1 202.7 333.8 205.1 335.7 206.9C338.2 209.4 339.4 210.5 342 213.5C342.3 213.8 342.2 214.2 341.7 214.2C337.1 213.6 332.6 212.9 328.3 211.1C326.9 210.4 325.4 209.6 324.6 208.4ZM372.4 212.6C371.4 213.7 369.8 214.2 368.3 214.6C363.8 215.6 359.2 215.5 354.6 215.3C354.1 215.3 354 214.9 354.4 214.6C357.5 212.1 358.9 211.2 361.8 209.2C363.9 207.7 367 205.9 369.9 206.4C373 206.8 374.4 210.3 372.4 212.6Z" fill="#D12B39"/>
<path d="M376.7 288.6C381 288.5 384.7 284.6 385.2 279.5L377 278.7L372.5 281.6L375.7 282.6L372.1 286.9C373 287.6 374 288.1 375.2 288.3L374.5 295.7L369.4 295.2L369.3 296.7L381 298L381.1 296.5L376 296L376.7 288.6Z" fill="#333333"/>
<path d="M369.1 282.2L374.7 278.5L368.6 277.9C368.3 281.1 369.3 284 371.1 286L373.2 283.5L369.1 282.2Z" fill="#333333"/>
<path d="M356.2 239.3C356.6 239.3 356.6 239.4 356.7 239.6C357.2 240.7 357.7 241.8 358.2 243C358.2 243.1 358.3 243.1 358.4 243.1C359.2 243.2 360 243.3 360.8 243.5C361 243.6 361.3 243.6 361.5 243.7C361.6 243.8 361.7 243.8 361.7 244C361.7 244.1 361.6 244.2 361.5 244.2C361.2 244.3 360.8 244.3 360.5 244.3C359.8 244.3 359 244.2 358.3 244.2C358.2 244.2 358.2 244.2 358.2 244.3C357.5 245.4 356.7 246.4 356 247.5C356 247.6 355.9 247.6 355.8 247.6C355.7 247.6 355.5 247.6 355.3 247.5C355.2 247.5 355.2 247.5 355.2 247.4C355.4 246.7 355.6 246.1 355.9 245.4C356 245 356.2 244.5 356.4 244.1C356.4 244 356.4 244 356.3 244C355.8 243.9 355.2 243.8 354.7 243.7C354.4 243.6 354.1 243.6 353.8 243.5C353.7 243.5 353.7 243.5 353.7 243.5C353.5 243.7 353.3 244 353.1 244.2C353 244.3 353 244.3 352.9 244.3C352.8 244.3 352.7 244.3 352.6 244.2C352.6 244.1 352.7 244 352.7 243.9C352.8 243.7 352.9 243.5 353 243.3C353.1 243.1 353.1 243 353.1 242.8C353 242.5 352.9 242.2 352.8 241.9C352.8 241.8 352.8 241.8 352.9 241.8C353.2 241.8 353.3 241.9 353.5 242.2C353.6 242.4 353.7 242.6 353.9 242.8C353.9 242.8 353.9 242.9 354 242.9C354.9 242.9 355.7 242.9 356.6 242.9C356.7 242.9 356.7 242.9 356.7 242.8C356.6 241.7 356.4 240.5 356.3 239.4C356.3 239.3 356.3 239.3 356.4 239.3C356 239.3 356.1 239.3 356.2 239.3ZM367.6 245.7C367.8 245.6 367.9 245.5 368 245.3C368.1 245.1 368.2 245 368.2 244.8C368.2 244.6 368.2 244.4 368.1 244.2C368 244 367.9 243.9 367.7 243.8C367.5 243.7 367.4 243.6 367.2 243.6C367 243.6 366.8 243.6 366.6 243.7C366.4 243.8 366.3 243.9 366.2 244.1C366.1 244.3 366 244.4 366 244.6C366 244.8 366 245 366.1 245.2C366.2 245.4 366.3 245.5 366.5 245.6C366.7 245.7 366.8 245.8 367 245.8C367.3 245.8 367.5 245.8 367.6 245.7ZM374.6 248.7C374.8 248.6 375.1 248.5 375.2 248.4C375.4 248.3 375.5 248.1 375.7 248L375.6 248.8L376.5 248.9L376.9 245.5L374.2 245.2L374.1 246.1L375.4 246.2L375.3 246.6C375.3 246.7 375.2 246.8 375.2 246.9C375.1 247 375 247.1 374.9 247.2C374.8 247.3 374.6 247.4 374.5 247.4C374.3 247.5 374.2 247.5 374 247.4C373.8 247.4 373.6 247.3 373.4 247.2C373.2 247.1 373.1 247 372.9 246.8C372.8 246.6 372.7 246.4 372.6 246.1C372.5 245.8 372.5 245.5 372.6 245C372.7 244.5 372.8 244.1 372.9 243.8C373.1 243.5 373.3 243.3 373.5 243.2C373.7 243.1 374 243 374.3 243.1C374.5 243.1 374.7 243.2 374.9 243.3C375.1 243.4 375.2 243.6 375.3 243.8C375.4 244 375.4 244.2 375.5 244.4L376.9 244.5C376.9 244.2 376.9 243.9 376.8 243.7C376.7 243.4 376.5 243.2 376.3 242.9C376.1 242.7 375.8 242.5 375.5 242.3C375.2 242.1 374.9 242 374.5 242C373.9 241.9 373.4 242 372.9 242.2C372.4 242.4 372 242.8 371.7 243.2C371.4 243.7 371.2 244.2 371.1 244.9C371 245.6 371.1 246.2 371.3 246.7C371.5 247.2 371.8 247.6 372.2 248C372.6 248.3 373.1 248.5 373.7 248.6C374 248.8 374.3 248.8 374.6 248.7ZM383.7 243.3L382.4 243.2L382 247.2C382 247.5 381.9 247.8 381.8 248C381.7 248.2 381.5 248.3 381.3 248.4C381.1 248.5 380.9 248.5 380.6 248.5C380.2 248.5 379.9 248.3 379.7 248.1C379.5 247.9 379.4 247.5 379.5 247L379.9 243L378.6 242.8L378.2 246.7C378.1 247.2 378.2 247.7 378.3 248.1C378.4 248.5 378.7 248.8 379 249.1C379.3 249.3 379.8 249.5 380.5 249.6C381.1 249.7 381.6 249.6 382 249.4C382.4 249.2 382.7 249 382.9 248.6C383.1 248.2 383.2 247.8 383.3 247.3L383.7 243.3ZM384.7 249.9L385.4 248.5L387.7 248.8L388.1 250.4L389.4 250.5L387.8 243.8L386.4 243.7L383.4 249.9H384.7ZM387 244.9L387.6 247.5L385.9 247.3L387 244.9Z" fill="#333333"/>
<path d="M334.2 231.7C333.3 230.6 332 230.2 330.6 230.5C329.2 230.8 328.3 231.7 327.9 233.1C327.8 233.5 327.7 233.9 327.6 234.4C327.2 234.3 326.8 234.2 326.4 234.1C325.3 233.8 324.3 234 323.3 234.6C322.1 235.5 321.5 236.7 321.8 238.2C322 239.7 322.9 240.7 324.3 241.1C326.9 241.9 329.6 242.6 332.2 243.3C332.5 243.4 332.7 243.3 332.8 243C333.5 240.4 334.3 237.7 335 235.1C335.3 233.7 335 232.6 334.2 231.7Z" fill="#D12B39"/>
<path d="M357 278.9L357.2 277L355.8 276.9L355.6 278.8C353.7 278.6 348.4 278.7 346.6 283.9C346.6 283.9 349.1 282.7 351.2 284.3C351.2 284.3 353.2 283.2 355.2 284.3L354.5 293.2C354.5 293.4 354.4 293.8 354.2 294C354.2 294 354 294.2 353.7 294.1C353.6 294.1 353 294 353 293.1L351.6 293C351.5 294.7 352.6 295.4 353.5 295.5C354.3 295.6 354.8 295.3 355.1 295C355.8 294.4 355.9 293.4 355.9 293.3L356.6 284.4C358.7 283.7 360.5 285.1 360.5 285.1C362.9 283.9 365.1 285.5 365.1 285.5C364.1 279.9 358.8 279 357 278.9Z" fill="#333333"/>
<path d="M386.1 311.9C386 311.9 386 311.9 385.9 311.9C385.8 311.8 385.7 311.7 385.6 311.6L385 309.3C385 309.2 385 309.2 385 309.1L385.1 308.4C385.1 308.2 385.2 308.1 385.4 308C385.9 307.8 386.5 307.7 387.2 307.5C387.3 307.5 387.4 307.5 387.5 307.5L387.7 307.6L387.8 306.6C387.8 306.4 387.9 306.3 388.1 306.2L398.5 300.6C398.7 300.5 398.8 300.5 399 300.6L399.8 301C399.9 300.7 400.1 300.4 400.2 300.3C400.6 299.9 401.4 299.5 402.4 299C402.5 298.9 402.7 298.9 402.8 299C402.9 299 403 299.1 403.1 299.3C403.4 300.1 403.6 300.9 403.7 301.7V301.8L403.5 302.5C403.5 302.7 403.3 302.8 403.1 302.9L401.5 303.3C401.4 303.3 401.3 303.3 401.2 303.3L401 303.2V304.1C401 304.3 400.9 304.4 400.7 304.5L390.2 310.1C390.1 310.2 389.9 310.2 389.7 310.1L388.8 309.6C388.7 309.9 388.5 310.2 388.2 310.4C387.5 310.9 386.8 311.3 386.2 311.7C386.3 311.9 386.2 311.9 386.1 311.9ZM386.1 309.1L386.5 310.6C386.9 310.4 387.3 310.1 387.8 309.7C387.9 309.6 388 309.5 388 309.4C388 309.3 388 308.8 388.3 308.6C388.6 308.4 389 308.6 389.1 308.6L390.1 309.1L400.1 303.7V302.6C400.1 302.4 400.2 302.2 400.3 302.1C400.2 302.1 400 302.1 399.7 302L398.8 301.5L388.8 306.8L388.6 307.9C388.6 308.2 388.4 308.3 388.3 308.4C388.1 308.5 387.9 308.5 387.7 308.5L387.2 308.3C386.7 308.4 386.3 308.5 386 308.6L386.1 309.1ZM401.1 302.8C401.1 302.9 401.1 302.9 401.1 302.8V302.8ZM400.8 302.2C400.9 302.2 401 302.2 401 302.2L401.5 302.4L402.7 302.1L402.8 301.8C402.8 301.3 402.7 300.8 402.5 300.3C401.9 300.6 401.3 301 401 301.2C400.9 301.3 400.9 301.3 400.9 301.4C400.9 301.6 400.9 302 400.6 302.3C400.6 302.2 400.7 302.2 400.8 302.2Z" fill="#D12B39"/>
<path d="M388.4 306.7C388.5 307.8 389.1 308.9 390 309.8L400.5 304.2C400.4 302.9 399.8 301.9 398.8 301.1L388.4 306.7Z" fill="#D12B39"/>
<path d="M390 310.8C389.7 310.8 389.5 310.7 389.3 310.5C388.2 309.4 387.5 308.1 387.4 306.8C387.3 306.4 387.6 306 387.9 305.8L398.3 300.2C398.6 300 399.1 300 399.4 300.3C400.7 301.2 401.4 302.5 401.5 304.1C401.5 304.5 401.3 304.9 401 305.1L390.5 310.7C390.4 310.8 390.2 310.8 390 310.8ZM389.5 307.3C389.6 307.8 389.9 308.2 390.2 308.6L399.4 303.7C399.3 303.2 399 302.8 398.6 302.4L389.5 307.3Z" fill="#D12B39"/>
<path d="M182.8 180.6C184.7 181.9 185.7 181.7 187.5 179.2C189.1 177.3 190.4 178.3 190.5 179.9C190.5 183 190.5 186 190.5 188.9C190.6 197.4 198.8 196.6 198.1 189.6C197.9 186.2 198.6 183.1 199.9 180.3C202.3 174.9 209 175 208.9 180.8C209 189.3 217.6 189.3 217.4 183.2C217.4 182.3 217.4 181 217.4 180C217.3 176.2 224.2 173.8 224.4 180.7C224.4 182.4 224.3 185 224.4 187.2C224.3 196.4 232.4 197.8 232 188.6C232 186.6 231.9 185.4 232 182.6C232.7 176.3 239.8 176.1 240.5 181C240.9 186.7 246.1 186.5 247.1 180.4C248.5 174.5 253.8 174.3 254.5 182.3C254.7 184.2 254.9 185.1 255.1 187.8C254.9 193.4 259.8 194.4 260.4 188.8L261 184.4C261.4 180.3 266.5 179.3 267.6 184C268.6 187.7 269.9 188.6 272 186.5L271.4 172L182.9 161.4V180.6H182.8Z" fill="#D12B39"/>
<path d="M260.702 146.634L194.973 151.386L195.406 157.37L261.135 152.619L260.702 146.634Z" fill="#D12B39"/>
<path d="M165.555 221.666L164.708 231.63L288.959 242.188L289.806 232.224L165.555 221.666Z" fill="#D12B39"/>
<path d="M182.8 207.9C182.4 207.9 182.1 207.8 181.8 207.5C181.5 207.2 181.3 206.8 181.3 206.4V161.4C181.3 161 181.5 160.6 181.8 160.3C182.1 160 182.6 159.9 183 159.9L271.5 170.5C272.2 170.6 272.8 171.2 272.8 171.9L273.9 197.7C273.9 198.5 273.3 199.2 272.5 199.3L182.9 207.9C182.9 207.9 182.9 207.9 182.8 207.9ZM184.3 163.1V204.8L270.9 196.5L269.9 173.4L184.3 163.1Z" fill="#333333"/>
<path d="M289.4 261.6C288.6 261.6 287.9 260.9 287.9 260.1V197.9L166.6 210V260C166.6 260.8 165.9 261.5 165.1 261.5C164.3 261.5 163.6 260.8 163.6 260V208.6C163.6 207.8 164.2 207.2 165 207.1L289.3 194.7C289.7 194.7 290.1 194.8 290.5 195.1C290.8 195.4 291 195.8 291 196.2V260C290.9 260.9 290.2 261.6 289.4 261.6Z" fill="#333333"/>
<path d="M226.8 271.1C220.6 277.7 214.5 276.8 208.4 271.1C202.3 277.4 196.3 277 190.3 271.1C184.7 277.3 178.6 277.1 172.1 271.1C166 277.2 159.9 277.2 153.7 271.1V260.1H226.5L226.8 271.1ZM226.8 271.1C233 277.7 239.1 276.8 245.2 271.1C251.3 277.4 257.3 277 263.3 271.1C268.9 277.3 274.9 277.1 281.5 271.1C287.6 277.2 293.7 277.2 299.9 271.1V260.1H227" fill="white"/>
<path d="M218 276.7C214.9 276.7 211.8 275.3 208.6 272.5C205.7 275.3 202.8 276.7 199.8 276.7H199.7C196.7 276.7 193.6 275.3 190.6 272.5C188 275.1 185.2 276.5 182.4 276.7C179.2 276.9 175.9 275.4 172.4 272.5C166.1 278.3 159.5 278.1 153.3 271.8C153.1 271.6 153 271.4 153 271.1V260.1C153 259.5 153.4 259.1 154 259.1H226.8H226.9H227H299.9C300.5 259.1 300.9 259.5 300.9 260.1V271.1C300.9 271.4 300.8 271.6 300.6 271.8C294.4 278 287.8 278.3 281.5 272.5C278.1 275.4 274.7 276.9 271.5 276.7C268.6 276.6 265.9 275.2 263.3 272.5C260.2 275.3 257.1 276.7 254.1 276.7C251.1 276.7 248.1 275.2 245.3 272.5C238.9 278.1 232.7 278.1 227 272.5C224 275.3 221 276.7 218 276.7ZM208.5 270.1C208.7 270.1 209 270.2 209.2 270.4C215.3 276.1 220.6 276.2 225.9 270.7L225.8 261.1H154.9V270.7C160.5 276.1 165.9 276 171.5 270.4C171.9 270 172.5 270 172.9 270.4C176.1 273.4 179.2 274.8 182.1 274.7C184.7 274.6 187.2 273.1 189.6 270.5C189.8 270.3 190 270.2 190.3 270.2C190.6 270.2 190.8 270.3 191 270.5C193.9 273.4 196.8 274.8 199.6 274.8C202.3 274.8 205 273.3 207.7 270.5C208 270.2 208.2 270.1 208.5 270.1ZM227.8 270.7C233.1 276.1 238.4 276 244.5 270.4C244.9 270 245.5 270 245.9 270.4C248.6 273.2 251.3 274.6 254 274.7H254.1C256.8 274.7 259.7 273.3 262.6 270.4C262.8 270.2 263 270.1 263.3 270.1C263.6 270.1 263.8 270.2 264 270.4C266.4 273.1 269 274.5 271.5 274.6C274.4 274.7 277.5 273.3 280.7 270.3C281.1 269.9 281.7 269.9 282.1 270.3C287.7 275.9 293.2 276 298.7 270.6V261H227.6L227.8 270.7Z" fill="#333333"/>
<path d="M250.5 308.7H203.7C201.8 308.7 200.7 307 200.7 305.4C200.7 304.6 200.9 303.8 201.4 303.3C201.9 302.6 202.7 302.3 203.7 302.3H250.5C252.5 302.3 253.5 303.9 253.5 305.5C253.5 307.1 252.5 308.7 250.5 308.7ZM203.8 304.2C203.5 304.2 203.3 304.3 203.1 304.5C202.9 304.7 202.8 305 202.8 305.4C202.8 305.9 203.1 306.7 203.8 306.7H250.6C251.6 306.7 251.6 305.6 251.6 305.5C251.6 305.4 251.6 304.3 250.6 304.3H203.8V304.2Z" fill="#333333"/>
<path d="M181 270.8C178 270.8 174.9 268.9 174.9 265.2C174.9 264.6 175.3 264.2 175.9 264.2H185.9C186.5 264.2 186.9 264.6 186.9 265.2C186.9 269.1 183.8 270.8 181 270.8ZM177 266.2C177.5 268 179.3 268.8 181 268.8C182.1 268.8 183.1 268.5 183.8 267.9C184.3 267.5 184.7 266.9 184.9 266.2H177Z" fill="#333333"/>
<path d="M163.1 270.4C160.1 270.4 157 268.6 157 265.2C157 264.6 157.4 264.2 158 264.2H168C168.6 264.2 169 264.6 169 265.2C169.1 268.8 166 270.4 163.1 270.4ZM159.2 266.2C159.7 267.7 161.5 268.4 163.1 268.4C164.2 268.4 165.2 268.1 165.9 267.6C166.4 267.2 166.7 266.8 166.9 266.2H159.2Z" fill="#333333"/>
<path d="M217.7 270.8C214.7 270.8 211.6 268.9 211.6 265.2C211.6 264.6 212 264.2 212.6 264.2H222.6C223.2 264.2 223.6 264.6 223.6 265.2C223.6 269.1 220.5 270.8 217.7 270.8ZM213.7 266.2C214.2 268 216 268.8 217.7 268.8C218.8 268.8 219.8 268.5 220.5 267.9C221 267.5 221.4 266.9 221.6 266.2H213.7Z" fill="#333333"/>
<path d="M199.8 270.4C196.8 270.4 193.7 268.6 193.7 265.2C193.7 264.6 194.1 264.2 194.7 264.2H204.7C205.3 264.2 205.7 264.6 205.7 265.2C205.8 268.8 202.7 270.4 199.8 270.4ZM195.9 266.2C196.4 267.7 198.2 268.4 199.8 268.4C200.9 268.4 201.9 268.1 202.6 267.6C203.1 267.2 203.4 266.8 203.6 266.2H195.9Z" fill="#333333"/>
<path d="M254 270.8C251 270.8 247.9 268.9 247.9 265.2C247.9 264.6 248.3 264.2 248.9 264.2H258.9C259.5 264.2 259.9 264.6 259.9 265.2C259.9 269.1 256.8 270.8 254 270.8ZM250 266.2C250.5 268 252.3 268.8 254 268.8C255.1 268.8 256.1 268.5 256.8 267.9C257.3 267.5 257.7 266.9 257.9 266.2H250Z" fill="#333333"/>
<path d="M236.1 270.4C233.1 270.4 230 268.6 230 265.2C230 264.6 230.4 264.2 231 264.2H241C241.6 264.2 242 264.6 242 265.2C242 268.8 239 270.4 236.1 270.4ZM232.2 266.2C232.7 267.7 234.5 268.4 236.1 268.4C237.2 268.4 238.2 268.1 238.9 267.6C239.4 267.2 239.7 266.8 239.9 266.2H232.2Z" fill="#333333"/>
<path d="M290.7 270.8C287.7 270.8 284.6 268.9 284.6 265.2C284.6 264.6 285 264.2 285.6 264.2H295.6C296.2 264.2 296.6 264.6 296.6 265.2C296.6 269.1 293.5 270.8 290.7 270.8ZM286.7 266.2C287.2 268 289 268.8 290.7 268.8C291.8 268.8 292.8 268.5 293.5 267.9C294 267.5 294.4 266.9 294.6 266.2H286.7Z" fill="#333333"/>
<path d="M272.8 270.4C269.8 270.4 266.7 268.6 266.7 265.2C266.7 264.6 267.1 264.2 267.7 264.2H277.7C278.3 264.2 278.7 264.6 278.7 265.2C278.8 268.8 275.7 270.4 272.8 270.4ZM268.9 266.2C269.4 267.7 271.2 268.4 272.8 268.4C273.9 268.4 274.9 268.1 275.6 267.6C276.1 267.2 276.4 266.8 276.6 266.2H268.9Z" fill="#333333"/>
<path d="M210.6 304.2C210.5 304.2 210.4 304.2 210.3 304.1C209.8 303.9 209.5 303.3 209.7 302.8C212.3 295.7 214.4 286.9 216.1 275.9C216.2 275.4 216.7 275 217.2 275.1C217.7 275.2 218.1 275.7 218 276.2C216.3 287.3 214.2 296.2 211.5 303.5C211.4 304 211 304.2 210.6 304.2Z" fill="#333333"/>
<path d="M243 304.2C242.6 304.2 242.2 304 242.1 303.5C239.4 296.3 237.3 287.4 235.6 276.2C235.5 275.7 235.9 275.1 236.4 275.1C236.9 275 237.5 275.4 237.5 275.9C239.2 286.9 241.2 295.7 243.9 302.8C244.1 303.3 243.8 303.9 243.3 304.1C243.2 304.2 243.1 304.2 243 304.2Z" fill="#333333"/>
<path d="M98.6001 251.8L106.1 271.6L121.7 265.7L112 240L101.6 243.9L98.6001 251.8Z" fill="white"/>
<path d="M106.1 272.6C106 272.6 105.8 272.6 105.7 272.5C105.5 272.4 105.3 272.2 105.2 271.9L97.7 252.1C97.6 251.9 97.6 251.6 97.7 251.4L100.7 243.6C100.8 243.3 101 243.1 101.3 243L111.7 239.1C111.9 239 112.2 239 112.5 239.1C112.7 239.2 112.9 239.4 113 239.7L122.7 265.4C122.9 265.9 122.6 266.5 122.1 266.7L106.5 272.6C106.4 272.6 106.2 272.6 106.1 272.6ZM99.7 251.8L106.7 270.3L120.4 265.1L111.4 241.3L102.4 244.7L99.7 251.8Z" fill="#333333"/>
<path d="M130.2 307.1C130.1 307.1 130.1 307.1 130 307L128.5 306.3C128.4 306.3 128.3 306.2 128.3 306.1L128.2 306L127.6 306.6C127.5 306.7 127.3 306.8 127.1 306.7L115.4 304.1C115.2 304.1 115.1 304 115 303.8L114.6 302.8C114.3 303 113.9 303.1 113.6 303C112.8 302.9 112 302.8 111.3 302.7C111.1 302.7 111 302.6 111 302.4C110.9 302.3 110.9 302.1 111 302L112 299.9C112 299.8 112.1 299.8 112.1 299.7L112.6 299.3C112.7 299.2 112.9 299.1 113.1 299.2C113.6 299.4 114.1 299.6 114.8 300C114.9 300 115 300.1 115 300.2L115.1 300.4L115.8 299.8C115.9 299.7 116.1 299.7 116.2 299.7L127.8 302.2C128 302.2 128.1 302.4 128.2 302.5L128.5 303.3C128.8 303.1 129.1 303.1 129.2 303.1C129.8 303.1 130.7 303.3 131.7 303.5C131.8 303.5 132 303.6 132 303.7C132 303.8 132.1 304 132 304.1C131.8 304.9 131.4 305.6 130.9 306.3L130.8 306.4L130.2 306.8C130.4 307.1 130.3 307.1 130.2 307.1ZM129.1 305.5L130.2 306L130.5 305.8C130.8 305.4 131.1 304.9 131.3 304.4C130.6 304.3 130 304.1 129.6 304.2C129.5 304.2 129.4 304.2 129.4 304.3C129.3 304.4 129 304.8 128.6 304.8C128.7 304.8 128.8 304.9 128.9 305.1L129.1 305.5ZM115.9 303.3L127 305.7L127.7 304.9C127.8 304.8 128 304.7 128.2 304.7C128.1 304.6 127.9 304.5 127.8 304.2L127.4 303.2L116.4 300.8L115.6 301.5C115.4 301.7 115.2 301.7 115.1 301.7C114.9 301.7 114.7 301.6 114.6 301.4L114.3 300.9C113.9 300.7 113.5 300.5 113.2 300.3L113 300.5L112.3 301.9C112.8 302 113.3 302 113.9 302.1C114 302.1 114.2 302.1 114.2 302C114.3 301.9 114.6 301.6 115 301.6C115.4 301.7 115.5 302 115.6 302.1L115.9 303.3Z" fill="#D12B39"/>
<path d="M116.4 300.3C115.8 301.2 115.5 302.4 115.6 303.7L127.3 306.2C128 305.2 128.3 304 128 302.7L116.4 300.3Z" fill="#D12B39"/>
<path d="M127.2 307.3C127.1 307.3 127.1 307.3 127 307.3L115.3 304.8C114.9 304.7 114.6 304.3 114.5 303.9C114.4 302.3 114.7 301 115.4 299.8C115.6 299.5 116 299.3 116.4 299.4L128 301.9C128.4 302 128.7 302.3 128.8 302.6C129.2 304.2 128.9 305.6 128 306.9C127.9 307.1 127.6 307.3 127.2 307.3ZM116.6 302.9L126.8 305.1C127 304.6 127.1 304.1 127.1 303.6L116.9 301.4C116.7 301.9 116.6 302.4 116.6 302.9Z" fill="#D12B39"/>
<path d="M140.6 312.2C140.5 312.2 140.4 312.2 140.3 312.1C140.2 312 140.1 311.9 140.1 311.7V309.4C140.1 309.3 140.1 309.3 140.1 309.2L140.3 308.6C140.4 308.4 140.5 308.3 140.7 308.3C141.2 308.2 141.8 308.2 142.5 308.2C142.6 308.2 142.7 308.2 142.8 308.3L143 308.4L143.3 307.5C143.4 307.4 143.5 307.2 143.6 307.2L155 304C155.2 304 155.3 304 155.5 304.1L156.2 304.7C156.3 304.4 156.6 304.2 156.7 304.1C157.3 303.8 158.2 303.5 159.1 303.3C159.2 303.3 159.4 303.3 159.5 303.4C159.6 303.5 159.7 303.6 159.7 303.7C159.9 304.5 159.9 305.3 159.7 306.2C159.7 306.3 159.7 306.3 159.7 306.3L159.4 306.9C159.3 307.1 159.2 307.2 159 307.2L157.3 307.3C157.2 307.3 157.1 307.3 157 307.2L156.9 307.1L156.7 308C156.7 308.2 156.5 308.3 156.4 308.4L144.9 311.6C144.7 311.6 144.6 311.6 144.4 311.5L143.6 310.8C143.4 311.1 143.1 311.4 142.8 311.5C142.1 311.8 141.3 312.1 140.6 312.3C140.7 312.2 140.7 312.2 140.6 312.2ZM141.1 309.5V311.1C141.6 310.9 142.1 310.7 142.6 310.5C142.7 310.5 142.8 310.3 142.8 310.3C142.8 310.2 142.9 309.7 143.3 309.6C143.7 309.5 144 309.7 144.1 309.8L144.9 310.5L155.9 307.4L156.2 306.4C156.2 306.2 156.4 306.1 156.5 306C156.3 306 156.1 306 155.9 305.8L155.1 305.1L144.2 308.1L143.8 309.1C143.7 309.4 143.5 309.5 143.4 309.5C143.2 309.6 143 309.6 142.8 309.5L142.3 309.2C141.8 309.2 141.4 309.2 141 309.2L141.1 309.5ZM156.8 305.9C156.9 305.9 157 305.9 157.2 306L157.6 306.3H158.8L158.9 306C159 305.5 159 305 158.9 304.4C158.2 304.6 157.6 304.8 157.3 305C157.2 305 157.2 305.1 157.2 305.1C157.2 305.3 157.1 305.8 156.8 305.9C156.7 305.9 156.8 305.9 156.8 305.9Z" fill="#D12B39"/>
<path d="M143.9 307.6C143.8 308.7 144.1 309.8 144.8 311L156.3 307.8C156.5 306.5 156.1 305.4 155.3 304.4L143.9 307.6Z" fill="#D12B39"/>
<path d="M144.8 312C144.5 312 144.1 311.8 144 311.5C143.2 310.2 142.8 308.8 142.9 307.5C142.9 307.1 143.2 306.7 143.6 306.6L155 303.4C155.4 303.3 155.8 303.4 156 303.7C157 304.9 157.5 306.3 157.3 307.8C157.2 308.2 157 308.5 156.6 308.6L145.1 311.8C145 312 144.9 312 144.8 312ZM144.9 308.4C144.9 308.9 145.1 309.4 145.3 309.9L155.4 307.1C155.4 306.6 155.2 306.1 154.9 305.7L144.9 308.4Z" fill="#D12B39"/>
<g opacity="0.9">
<path opacity="0.9" d="M169.6 128.7L165.9 152.5L148.2 136.3C155.1 134.4 162.2 131.8 169.6 128.7Z" fill="#D12B39"/>
<path opacity="0.9" d="M165.9 153C165.8 153 165.7 153 165.6 152.9L147.9 136.7C147.8 136.6 147.7 136.4 147.8 136.2C147.8 136 148 135.9 148.2 135.8C154.8 134 162 131.4 169.5 128.2C169.7 128.1 169.9 128.2 170 128.3C170.1 128.4 170.2 128.6 170.2 128.8L166.5 152.6C166.5 152.8 166.3 152.9 166.2 153C166 153 166 153 165.9 153ZM149.2 136.6L165.5 151.6L168.9 129.6C162 132.5 155.4 134.8 149.2 136.6Z" fill="#D12B39"/>
</g>
<path opacity="0.9" d="M64.3999 178.1C64.1999 178.1 63.8999 178 63.7999 177.8L49.4999 158.5C49.2999 158.3 49.2999 158 49.3999 157.7C49.4999 157.5 49.7999 157.3 49.9999 157.3C55.8999 156.9 62.1999 156 68.7999 155L72.0999 154.5C72.3999 154.5 72.5999 154.6 72.7999 154.8C72.9999 155 72.9999 155.3 72.8999 155.5L64.9999 177.6C64.8999 177.9 64.6999 178 64.3999 178.1C64.3999 178.1 64.4999 178.1 64.3999 178.1ZM51.4999 158.7L64.0999 175.8L71.0999 156.2L68.9999 156.5C62.9999 157.4 57.0999 158.2 51.4999 158.7Z" fill="#333333"/>
<g opacity="0.9">
<path opacity="0.9" d="M107 147.9L100.7 171.2L84.8 153.2C91.9 152.1 99.3 150.3 107 147.9Z" fill="#D12B39"/>
<path opacity="0.9" d="M100.8 171.7C100.7 171.7 100.5 171.6 100.4 171.5L84.5001 153.5C84.4001 153.4 84.3001 153.2 84.4001 153C84.5001 152.8 84.6001 152.7 84.8001 152.7C91.5001 151.6 98.9001 149.8 106.8 147.5C107 147.4 107.2 147.5 107.3 147.6C107.4 147.7 107.5 147.9 107.4 148.1L101.1 171.4C101.1 171.6 100.9 171.7 100.7 171.8C100.8 171.7 100.8 171.7 100.8 171.7ZM85.9001 153.5L100.5 170.2L106.3 148.7C99.0001 150.8 92.2001 152.5 85.9001 153.5Z" fill="#D12B39"/>
</g>
<g opacity="0.9">
<path opacity="0.9" d="M38.2001 159.4L28.0001 181.2L15.6001 160.6C22.6001 160.8 30.2001 160.3 38.2001 159.4Z" fill="#D12B39"/>
<path opacity="0.9" d="M28 181.7C27.8 181.7 27.7 181.6 27.6 181.5L15.2 160.9C15.1 160.7 15.1 160.5 15.2 160.4C15.3 160.3 15.4 160.1 15.6 160.1C22.4 160.2 30 159.8 38.2 158.8C38.4 158.8 38.6 158.9 38.7 159C38.8 159.1 38.8 159.3 38.7 159.5L28.4 181.3C28.3 181.6 28.2 181.7 28 181.7ZM16.4 161.2L27.9 180.2L37.4 160C29.8 160.8 22.8 161.2 16.4 161.2Z" fill="#D12B39"/>
</g>
<path d="M2.9 160.9C1.9 160.9 1 160.9 0 160.9V159.9C58.7 160.3 119.5 148.2 180.7 124L181.1 124.9C120.8 148.8 60.8 160.9 2.9 160.9Z" fill="#333333"/>
<path opacity="0.9" d="M133.8 163.9C133.6 163.9 133.4 163.8 133.3 163.7L116.2 146.8C116 146.6 115.9 146.3 116 146.1C116.1 145.8 116.3 145.6 116.6 145.6C122.4 144.3 128.5 142.4 134.9 140.4L138 139.4C138.3 139.3 138.5 139.4 138.7 139.6C138.9 139.8 139 140 138.9 140.3L134.5 163.4C134.4 163.7 134.3 163.9 134 164C133.9 163.8 133.9 163.9 133.8 163.9ZM118.2 146.7L133.3 161.6L137.2 141.1L135.3 141.7C129.3 143.6 123.6 145.3 118.2 146.7Z" fill="#333333"/>
<g opacity="0.9">
<path opacity="0.9" d="M292.4 129.9L296.1 153.7L313.8 137.5C306.9 135.6 299.8 133 292.4 129.9Z" fill="#D12B39"/>
<path opacity="0.9" d="M296.1 154.2C296 154.2 296 154.2 295.9 154.2C295.7 154.1 295.6 154 295.6 153.8L291.9 130C291.9 129.8 291.9 129.6 292.1 129.5C292.2 129.4 292.4 129.4 292.6 129.4C300.1 132.6 307.3 135.2 313.9 137C314.1 137 314.2 137.2 314.3 137.4C314.3 137.6 314.3 137.8 314.2 137.9L296.5 154.1C296.3 154.2 296.2 154.2 296.1 154.2ZM293 130.7L296.4 152.7L312.7 137.7C306.6 136 299.9 133.6 293 130.7Z" fill="#D12B39"/>
</g>
<path opacity="0.9" d="M397.6 179.3H397.5C397.2 179.3 397 179.1 396.9 178.8L389 156.7C388.9 156.5 389 156.2 389.1 156C389.3 155.8 389.5 155.7 389.8 155.7L393.3 156.2C399.9 157.2 406.1 158.1 412 158.5C412.3 158.5 412.5 158.7 412.6 158.9C412.7 159.1 412.7 159.4 412.5 159.7L398.2 179C398.1 179.2 397.8 179.3 397.6 179.3ZM390.8 157.4L397.8 177L410.4 159.9C404.9 159.5 399.1 158.6 393 157.7L390.8 157.4Z" fill="#333333"/>
<g opacity="0.9">
<path opacity="0.9" d="M355 149.1L361.3 172.4L377.2 154.3C370.1 153.3 362.7 151.5 355 149.1Z" fill="#D12B39"/>
<path opacity="0.9" d="M361.2 172.9H361.1C360.9 172.9 360.8 172.7 360.7 172.5L354.4 149.2C354.4 149 354.4 148.8 354.5 148.7C354.6 148.6 354.8 148.5 355 148.6C362.9 151 370.4 152.8 377 153.8C377.2 153.8 377.3 154 377.4 154.1C377.5 154.2 377.4 154.5 377.3 154.6L361.4 172.6C361.5 172.9 361.4 172.9 361.2 172.9ZM355.7 149.9L361.5 171.4L376.1 154.7C369.9 153.7 363 152 355.7 149.9Z" fill="#D12B39"/>
</g>
<g opacity="0.9">
<path opacity="0.9" d="M423.8 160.5L434.1 182.3L446.5 161.7C439.4 162 431.8 161.5 423.8 160.5Z" fill="#D12B39"/>
<path opacity="0.9" d="M434 182.9C433.8 182.9 433.6 182.8 433.5 182.6L423.2 160.8C423.1 160.6 423.1 160.4 423.2 160.3C423.3 160.2 423.5 160.1 423.7 160.1C431.9 161.1 439.5 161.5 446.3 161.4C446.5 161.4 446.7 161.5 446.7 161.7C446.8 161.9 446.8 162.1 446.7 162.2L434.3 182.7C434.4 182.8 434.2 182.9 434 182.9ZM424.6 161.1L434.1 181.3L445.6 162.3C439.2 162.4 432.2 162 424.6 161.1Z" fill="#D12B39"/>
</g>
<path d="M459.1 162.1C401.1 162.1 341.2 150 280.9 126.1L281.3 125.2C342.5 149.4 403.2 161.5 462 161.1V162.1C461 162.1 460.1 162.1 459.1 162.1Z" fill="#333333"/>
<path opacity="0.9" d="M328.2 165.1C328.1 165.1 328 165.1 328 165.1C327.7 165 327.5 164.8 327.5 164.5L323.1 141.4C323.1 141.1 323.1 140.9 323.3 140.7C323.5 140.5 323.8 140.5 324 140.5L327.4 141.6C333.7 143.6 339.7 145.4 345.4 146.8C345.7 146.9 345.9 147.1 346 147.3C346.1 147.6 346 147.8 345.8 148L328.7 164.9C328.6 165 328.4 165.1 328.2 165.1ZM324.8 142.3L328.7 162.8L343.8 147.9C338.4 146.6 332.9 144.9 327 143L324.8 142.3Z" fill="#333333"/>
<path d="M167 295.7C166.9 295.7 166.9 295.7 166.8 295.6L165.3 294.9C165.2 294.9 165.1 294.8 165.1 294.7L165 294.5L164.4 295.1C164.3 295.2 164.1 295.3 163.9 295.2L152.2 292.6C152 292.6 151.9 292.5 151.8 292.3L151.4 291.3C151.1 291.5 150.7 291.6 150.4 291.5C149.6 291.4 148.8 291.3 148.1 291.2C147.9 291.2 147.8 291.1 147.8 290.9C147.7 290.8 147.7 290.6 147.8 290.5L148.8 288.4C148.8 288.3 148.9 288.3 148.9 288.2L149.4 287.8C149.5 287.7 149.7 287.6 149.9 287.7C150.4 287.9 150.9 288.1 151.6 288.5C151.7 288.5 151.8 288.6 151.8 288.7L151.9 288.9L152.6 288.3C152.7 288.2 152.9 288.2 153 288.2L164.6 290.7C164.8 290.7 164.9 290.9 165 291L165.3 291.8C165.6 291.6 165.9 291.6 166 291.6C166.7 291.6 167.5 291.8 168.5 292C168.6 292 168.8 292.1 168.8 292.2C168.8 292.3 168.9 292.5 168.8 292.6C168.6 293.4 168.2 294.1 167.7 294.8L167.6 294.9L167 295.3C167.2 295.7 167.1 295.7 167 295.7ZM165.8 294.1L166.9 294.6L167.2 294.4C167.5 294 167.8 293.5 168 293C167.3 292.9 166.7 292.7 166.3 292.8C166.2 292.8 166.1 292.8 166.1 292.9C166 293 165.7 293.4 165.3 293.4C165.4 293.4 165.5 293.5 165.6 293.7L165.8 294.1ZM152.7 291.9L163.8 294.3L164.5 293.5C164.6 293.4 164.8 293.3 165 293.3C164.9 293.2 164.7 293.1 164.6 292.8L164.2 291.8L153.2 289.4L152.4 290.1C152.2 290.3 152 290.3 151.9 290.3C151.7 290.3 151.5 290.2 151.4 290L151.1 289.5C150.7 289.3 150.3 289.1 150 288.9L149.8 289.1L149.1 290.5C149.6 290.6 150.1 290.6 150.7 290.7C150.8 290.7 151 290.7 151 290.6C151.1 290.5 151.4 290.2 151.8 290.2C152.2 290.3 152.3 290.6 152.4 290.7L152.7 291.9Z" fill="#D12B39"/>
<path d="M153.1 288.9C152.5 289.8 152.2 291 152.3 292.3L164 294.9C164.7 293.9 165 292.7 164.7 291.4L153.1 288.9Z" fill="#D12B39"/>
<path d="M164 295.9C163.9 295.9 163.9 295.9 163.8 295.9L152.1 293.3C151.7 293.2 151.4 292.8 151.3 292.4C151.2 290.8 151.5 289.5 152.2 288.3C152.4 288 152.8 287.8 153.2 287.9L164.8 290.4C165.2 290.5 165.5 290.8 165.6 291.1C166 292.7 165.7 294.1 164.8 295.4C164.6 295.7 164.3 295.9 164 295.9ZM153.3 291.5L163.5 293.7C163.7 293.2 163.8 292.7 163.8 292.2L153.6 290C153.4 290.5 153.3 291 153.3 291.5Z" fill="#D12B39"/>
<path d="M217.8 299.1C217.7 299.1 217.6 299.1 217.5 299.1C217 298.9 216.7 298.4 216.8 297.9C218.5 292.5 219.8 286.4 221 279.3C221.1 278.8 221.6 278.4 222.1 278.5C222.6 278.6 223 279.1 222.9 279.6C221.7 286.8 220.3 293 218.6 298.5C218.6 298.8 218.2 299.1 217.8 299.1Z" fill="#333333"/>
<path d="M236.2 299.1C235.8 299.1 235.4 298.8 235.2 298.4C233.2 291.9 231.7 285.7 230.7 279.6C230.6 279.1 231 278.5 231.5 278.4C232 278.3 232.6 278.7 232.7 279.2C233.7 285.3 235.2 291.3 237.1 297.8C237.3 298.3 237 298.9 236.4 299C236.4 299.1 236.3 299.1 236.2 299.1Z" fill="#333333"/>
<path d="M226.8 299C226.2 299 225.8 298.6 225.8 298V279.3C225.8 278.7 226.2 278.3 226.8 278.3C227.4 278.3 227.8 278.7 227.8 279.3V298C227.8 298.6 227.4 299 226.8 299Z" fill="#333333"/>
<path d="M289.7 287.6C294.4 286.5 299.1 285.4 303.7 284.3C308.4 283.2 313.1 282.1 317.8 281C318.3 280.9 318.4 280.7 318.2 280.3C317.9 279.2 317.7 278 317.4 276.9C317.3 276.5 317.2 276.4 316.8 276.5L300.5 281.1L288.5 283.1H288.4C288.1 283.2 288 283.4 288.1 283.7C288.4 284.8 288.7 286 288.9 287.1C289.1 287.6 289.2 287.7 289.7 287.6Z" fill="white"/>
<path d="M285.4 284.3C284.9 284.5 284.9 284.6 285 285.1C286.5 291.4 288 297.8 289.4 304.1C289.7 305.4 289.7 305.4 291 305.6C291.5 305.7 291.6 305.6 291.5 305.1C290.7 301.7 289.9 298.2 289.1 294.8C288.3 291.5 287.6 288.3 286.8 285C286.5 283.9 286.5 283.9 285.4 284.3Z" fill="white"/>
<path d="M290.9 293.4C293.4 293.1 295.8 292.9 298.3 292.6C301 292.3 303.7 291.9 306.4 291.2C310.8 290 315 288.4 319.3 286.9C319.6 286.8 319.7 286.7 319.6 286.3C319.3 285.3 319.1 284.3 318.9 283.2C318.8 282.7 318.7 282.7 318.2 282.8C313.5 283.9 308.8 285 304.1 286.1C299.4 287.2 294.7 288.3 290 289.4C289.6 289.5 289.5 289.6 289.6 290.1C289.9 291.1 290.1 292.1 290.3 293.1C290.4 293.3 290.5 293.4 290.9 293.4Z" fill="white"/>
<path d="M292.2 299C294.6 299.1 296.9 299.1 299.2 299.1C301.8 299.1 304.4 298.9 307 298.4C308.7 298 310.4 297.3 312 296.6C315 295.3 317.8 293.9 320.7 292.4C320.9 292.3 321 292.2 321 291.9C320.7 290.8 320.5 289.6 320.2 288.5C320.2 288.3 320.1 288.2 319.8 288.3C318 289 316.2 289.6 314.5 290.3C311.5 291.3 308.4 292.4 305.3 293.1C300.7 294.1 296 294.5 291.3 295C290.9 295 290.8 295.1 290.9 295.5C291.2 296.5 291.4 297.6 291.6 298.6C291.7 298.9 291.8 299 292.2 299Z" fill="white"/>
<path d="M319.5 276.3C319.2 276.3 319.1 276.5 319.2 276.8C319.4 277.8 319.7 278.8 319.9 279.9C321.1 285 322.3 290.1 323.5 295.2C323.7 295.9 323.5 296.3 322.9 296.5C322.4 296.6 322 296.3 321.9 295.6C321.8 295.1 321.7 294.5 321.5 294C319.9 294.8 318.3 295.6 316.7 296.4C314.2 297.7 311.6 298.8 308.8 299.7C305.6 300.7 302.3 300.8 299.1 300.8C296.8 300.8 294.6 300.8 292.2 300.7C292.6 302.4 293 304 293.3 305.7C293.4 306 293.6 305.9 293.7 306C296.4 306.3 299.2 306.5 301.9 306.5C306.1 306.6 310.2 305.8 314 304C317.9 302.1 321.5 299.9 325.1 297.5C325.5 297.2 325.6 297 325.5 296.5C324 290.2 322.5 283.8 321.1 277.4C320.8 276.1 320.8 276.1 319.5 276.3Z" fill="white"/>
<path d="M323.8 276.4C323.4 276.4 322.9 276.7 322.7 276.4C322.5 276.2 322.5 275.7 322.4 275.3C322.2 274.6 322 274.4 321.3 274.5C320.2 274.6 319.1 274.7 318 274.8C317.6 274.8 317.3 274.9 316.9 274.9L300.4 279.6L288.1 281.6C286.8 282.1 285.5 282.6 284.1 283C283.2 283.3 283.1 283.6 283.3 284.5C283.3 284.6 283.3 284.7 283.4 284.8C283.6 285.3 283.4 285.6 282.9 285.8C278.6 287.4 276 292.1 276.8 296.6C277.7 301.5 281.8 305 286.8 304.9C287.2 304.9 287.7 304.7 287.9 304.9C288.1 305.1 288.2 305.6 288.2 306C288.3 306.5 288.6 306.8 289.1 306.9C290.6 307.1 292 307.4 293.5 307.5C296.4 307.8 299.3 308 302.3 308C306.2 308 310 307.4 313.6 305.8C318.1 303.8 322.2 301.3 326.2 298.5C327.6 297.5 327.5 297.6 327.1 296.1C327 295.7 327.1 295.6 327.4 295.4C331.1 293.9 333.2 291.1 333.8 287.2C333.9 286.5 333.8 285.8 333.9 285.1C333.7 284.4 333.6 283.6 333.4 282.9L333.3 282.8C332 279.1 328.1 276.3 323.8 276.4ZM289 287.2C288.8 286.1 288.5 284.9 288.2 283.8C288.1 283.5 288.2 283.3 288.5 283.2H288.6L300.6 281.2L316.9 276.6C317.3 276.6 317.4 276.6 317.5 277C317.7 278.1 318 279.3 318.3 280.4C318.4 280.9 318.3 281 317.9 281.1C313.2 282.2 308.5 283.3 303.8 284.4C299.1 285.5 294.4 286.6 289.8 287.7C289.2 287.7 289.1 287.6 289 287.2ZM290.3 292.9C290.1 291.9 289.9 290.9 289.6 289.9C289.5 289.5 289.6 289.3 290 289.2C294.7 288.1 299.4 287 304.1 285.9C308.8 284.8 313.5 283.7 318.2 282.6C318.7 282.5 318.8 282.6 318.9 283C319.1 284 319.3 285 319.6 286.1C319.7 286.4 319.6 286.6 319.3 286.7C315 288.3 310.8 289.9 306.4 291C303.8 291.7 301 292.1 298.3 292.4C295.8 292.7 293.4 292.9 290.9 293.2C290.5 293.4 290.4 293.3 290.3 292.9ZM291.3 295C296 294.5 300.7 294.1 305.3 293.1C308.4 292.4 311.5 291.4 314.5 290.3C316.3 289.7 318.1 289 319.8 288.3C320.1 288.2 320.1 288.3 320.2 288.5C320.4 289.6 320.7 290.8 321 291.9C321.1 292.2 320.9 292.3 320.7 292.4C317.9 293.9 315 295.4 312 296.6C310.4 297.3 308.7 297.9 307 298.4C304.4 298.9 301.8 299.1 299.2 299.1C296.9 299.1 294.5 299.1 292.2 299C291.9 299 291.7 298.9 291.6 298.5C291.4 297.5 291.1 296.4 290.9 295.4C290.8 295.1 290.9 295 291.3 295ZM287.4 302.6C287.6 303.3 287.6 303.3 286.8 303.3C282.9 303.5 279.2 300.7 278.4 296.8C277.6 292.9 279.5 289.1 283.2 287.4C283.8 287.1 283.8 287.1 284 287.8C284.6 290.3 285.1 292.7 285.7 295.2C286.2 297.7 286.8 300.1 287.4 302.6ZM291.5 305.1C291.6 305.6 291.5 305.7 291 305.6C289.7 305.4 289.7 305.4 289.4 304.1C287.9 297.8 286.5 291.4 285 285.1C284.9 284.6 285 284.5 285.4 284.3C286.5 283.9 286.5 283.9 286.8 285C287.6 288.3 288.3 291.5 289.1 294.8C289.8 298.2 290.6 301.7 291.5 305.1ZM325.5 296.4C325.6 296.9 325.5 297.1 325.1 297.4C321.6 299.8 317.9 302 314 303.9C310.2 305.8 306.1 306.5 301.9 306.4C299.2 306.4 296.4 306.2 293.7 305.9C293.5 305.9 293.3 305.9 293.3 305.6C292.9 304 292.5 302.3 292.2 300.6C294.5 300.7 296.8 300.7 299.1 300.7C302.4 300.6 305.7 300.5 308.8 299.6C311.5 298.8 314.1 297.6 316.7 296.3C318.3 295.5 319.9 294.7 321.5 293.9C321.6 294.4 321.7 295 321.9 295.5C322.1 296.2 322.4 296.5 322.9 296.4C323.4 296.3 323.7 295.9 323.5 295.1C322.3 290 321.1 284.9 319.9 279.8C319.7 278.8 319.4 277.8 319.2 276.7C319.1 276.4 319.2 276.3 319.5 276.2C320.8 276 320.8 276 321.1 277.3C322.6 283.7 324 290.1 325.5 296.4ZM332 284.3C333 288 331.2 292 327.8 293.7C326.7 294.2 326.7 294.2 326.4 293.1C325.9 290.8 325.3 288.4 324.8 286.1C324.2 283.6 323.7 281.2 323.1 278.7C323 278.2 323.1 278.1 323.5 278.1C327.4 277.8 330.9 280.4 332 284.3Z" fill="#333333"/>
<defs>
<linearGradient id="paint0_linear" x1="209.767" y1="103.417" x2="212.392" y2="113.21" gradientUnits="userSpaceOnUse">
<stop stop-color="#FF8001"/>
<stop offset="0.2236" stop-color="#FD7C06"/>
<stop offset="0.4189" stop-color="#F8730D"/>
<stop offset="0.6035" stop-color="#F06218"/>
<stop offset="0.7816" stop-color="#E44D26"/>
<stop offset="0.9535" stop-color="#D63235"/>
<stop offset="1" stop-color="#D12B39"/>
</linearGradient>
<linearGradient id="paint1_linear" x1="219.983" y1="103.417" x2="222.608" y2="113.21" gradientUnits="userSpaceOnUse">
<stop stop-color="#FF8001"/>
<stop offset="0.2236" stop-color="#FD7C06"/>
<stop offset="0.4189" stop-color="#F8730D"/>
<stop offset="0.6035" stop-color="#F06218"/>
<stop offset="0.7816" stop-color="#E44D26"/>
<stop offset="0.9535" stop-color="#D63235"/>
<stop offset="1" stop-color="#D12B39"/>
</linearGradient>
<linearGradient id="paint2_linear" x1="231.275" y1="103.417" x2="233.9" y2="113.21" gradientUnits="userSpaceOnUse">
<stop stop-color="#FF8001"/>
<stop offset="0.2236" stop-color="#FD7C06"/>
<stop offset="0.4189" stop-color="#F8730D"/>
<stop offset="0.6035" stop-color="#F06218"/>
<stop offset="0.7816" stop-color="#E44D26"/>
<stop offset="0.9535" stop-color="#D63235"/>
<stop offset="1" stop-color="#D12B39"/>
</linearGradient>
<linearGradient id="paint3_linear" x1="241.491" y1="103.417" x2="244.116" y2="113.21" gradientUnits="userSpaceOnUse">
<stop stop-color="#FF8001"/>
<stop offset="0.2236" stop-color="#FD7C06"/>
<stop offset="0.4189" stop-color="#F8730D"/>
<stop offset="0.6035" stop-color="#F06218"/>
<stop offset="0.7816" stop-color="#E44D26"/>
<stop offset="0.9535" stop-color="#D63235"/>
<stop offset="1" stop-color="#D12B39"/>
</linearGradient>
</defs>
</svg>
