<svg width="329" height="87" viewBox="0 0 329 87" fill="none" xmlns="http://www.w3.org/2000/svg">
<path d="M76.1154 36.5773C74.7014 37.9819 73.3871 39.5358 72.4312 41.3089C71.8835 42.315 71.4852 43.4008 70.9575 44.4269C70.4895 45.3433 69.7626 45.7816 68.7171 45.3632C67.9703 44.138 67.8807 43.5901 68.1794 42.2752C68.5677 40.5519 69.2448 38.9282 70.0414 37.3643C70.5094 36.4478 70.9575 35.5214 71.0371 34.4655C71.306 31.1384 69.6929 29.7936 66.4866 30.73C64.4554 31.3277 62.444 32.015 60.4127 32.6127C55.9319 33.9176 51.6602 35.8103 47.2192 37.2447C45.8849 37.6731 44.5307 38.0117 43.1467 38.1313C42.1509 38.2209 41.195 38.1313 40.6972 37.0455C41.4241 35.5214 42.9177 35.103 44.2221 34.5751C46.9105 33.4893 49.6787 32.5728 52.407 31.5867C53.7711 31.0886 55.1452 30.5906 56.36 29.7737C56.9376 29.3852 57.4354 28.9369 56.9774 28.1002C56.2605 27.7615 55.6033 28.0305 54.8963 28.2198C50.9731 29.2856 47.2192 30.8396 43.4155 32.2342C41.7128 32.8518 40.0101 33.4993 38.1381 33.4694C37.2519 33.4594 36.5947 33.2403 36.3359 32.3139C36.4952 31.3875 37.0727 30.8197 37.8693 30.3913C38.8849 29.8434 39.9205 29.3454 41.0058 28.9669C44.4312 27.7715 47.8565 26.5761 51.2818 25.3608C52.4767 24.9325 53.7014 24.5241 54.6175 23.5778C54.737 23.4582 54.7868 23.269 54.8565 23.1395C54.6673 22.492 54.2192 22.233 53.6716 22.1334C51.0229 22.6514 48.5037 23.4881 46.0144 24.4544C44.2121 25.1517 42.4098 25.8888 40.5179 26.3171C39.5122 26.5462 38.4966 26.7056 37.5805 26.1777C37.1524 25.5401 37.232 24.9624 37.5706 24.295C38.5862 23.4383 39.8707 22.9004 41.1751 22.4023C44.4511 21.1472 47.7868 20.0514 51.1822 19.1549C52.2178 18.876 53.2534 18.5473 53.6815 17.3619C52.7854 16.545 51.8593 16.9335 51.013 17.1029C49.2903 17.4416 47.6076 17.9496 45.8849 18.2783C44.6602 18.5174 43.3956 18.8063 42.2406 18.1787C41.902 17.1826 42.4497 16.7044 43.0969 16.3159C44.0329 15.7481 45.0684 15.3895 46.1239 15.0807C49.6687 14.0448 53.3131 13.4371 56.8878 12.5107C59.407 11.8632 61.9561 11.2556 64.0471 9.56215C64.0471 6.73313 64.0471 3.91406 64.0471 0.905737C64.0272 0.895776 64.0073 0.885816 63.9973 0.875854C52.2278 0.875854 40.6175 0.875854 29.0172 0.875854C29.0172 9.57211 29.0172 18.2684 29.0172 27.1539C19.4582 27.1539 10.0684 27.1539 0.579102 27.1539C0.579102 37.8026 0.579102 48.252 0.579102 58.9605C2.53074 58.9704 4.51225 58.9804 6.49376 58.9804C8.50514 58.9804 10.5066 58.9804 12.5179 58.9804C12.5777 58.8808 12.6872 58.7811 12.7071 58.6716C13.2946 55.2349 15.1168 52.5254 17.5464 50.1048C19.8764 47.7838 21.9973 45.2835 23.1324 42.1058C23.2519 41.7672 23.4312 41.4384 23.6502 41.1496C24.168 40.4622 24.7953 40.0538 25.7313 40.5419C26.4383 41.299 26.5279 42.2254 26.3088 43.2315C25.8608 45.3234 25.0343 47.2658 24.0784 49.1585C23.4112 50.4734 22.9233 51.7983 23.4909 53.3423C23.7797 54.1292 24.1381 54.7568 24.8252 55.2648C26.3487 55.6633 27.7925 55.2449 29.2562 54.8066C35.0613 53.0733 40.747 51.0014 46.4326 48.9194C47.9162 48.3716 49.4397 47.993 51.013 47.8037C52.0684 47.6742 53.0841 47.6643 53.5919 48.9095C53.1239 50.1546 51.9788 50.5232 50.9532 50.9914C48.0855 52.3063 45.0485 53.1629 42.1012 54.2786C40.9162 54.7368 39.7512 55.2648 38.6061 55.8027C38.0087 56.0816 37.4212 56.4303 37.1225 57.1176C37.1026 57.6057 37.4411 57.8448 37.9788 58.0839C41.8024 57.1076 45.6161 55.7429 49.38 54.2487C51.1225 53.5514 52.9049 52.9538 54.747 52.5453C55.7029 52.3362 56.6687 52.1867 57.5748 52.6848C58.1324 53.9499 58.1125 54.3483 57.2363 55.0257C56.4198 55.6533 55.5137 56.1414 54.5279 56.49C50.535 57.9045 46.5421 59.329 42.5592 60.7734C41.434 61.1818 40.2491 61.5106 39.5819 62.6362C40.2292 63.7917 40.4283 63.8913 41.7327 63.5825C44.2121 62.9948 46.6118 62.168 48.9717 61.2217C50.7142 60.5244 52.4866 59.9068 54.3188 59.4884C55.2946 59.2593 56.2406 59.1497 57.0272 59.9466C57.2164 60.4447 57.2164 60.9129 56.9475 61.4408C55.7626 62.6561 54.1296 63.1741 52.5364 63.7519C49.5293 64.8476 46.5122 65.9334 43.3856 66.6905C42.3302 66.9495 41.2548 67.2583 40.7171 68.4536C41.1253 69.1509 41.7029 69.131 42.4098 68.9617C44.5307 68.4636 46.6716 68.0552 48.7925 67.5471C49.6388 67.3479 50.4753 67.3479 51.3316 67.3579C51.7996 67.3579 52.1381 67.577 52.3472 68.105C52.2975 69.2406 51.3316 69.5992 50.4653 69.9976C48.6431 70.8344 46.6915 71.2926 44.7498 71.7608C41.9916 72.4282 39.2036 73.006 36.4354 73.6634C33.6972 74.3109 31.2078 75.5561 28.7484 77.2395C28.6986 80.1084 28.6588 83.0769 28.609 86.0453C40.5478 86.0453 52.4767 86.0453 64.4155 86.0453C64.4155 77.1798 64.4155 68.3042 64.4155 59.2593C74.5023 59.2593 84.38 59.2593 94.2477 59.2593C94.2477 48.3815 94.2477 37.683 94.2477 26.9845C90.0457 26.9845 85.9333 26.9845 81.6915 26.9845C81.2036 31.0189 78.8337 33.8678 76.1154 36.5773Z" fill="#D12B39"/>
<path d="M28.6487 25.8191C28.6587 17.7404 28.6587 9.66175 28.6487 1.58311C28.6487 1.47353 28.6388 1.36397 28.6388 1.25439C28.35 1.89192 28.4595 2.60914 28.4496 3.28652C28.4297 10.2296 28.4496 17.1627 28.4297 24.1057C28.4297 24.813 28.5989 25.58 28.0712 26.2175C27.414 26.855 26.5876 26.6558 25.8208 26.6558C18.2134 26.6658 10.6061 26.6558 3.00861 26.6757C2.41118 26.6757 1.78386 26.606 1.1665 26.8152C10.2675 26.8152 19.3685 26.8152 28.3102 26.8152C28.7483 26.4267 28.6487 26.1079 28.6487 25.8191Z" fill="white"/>
<path d="M0.290265 59.2093C0.290265 48.3714 0.290265 37.8124 0.290265 27.353C0.449581 27.2036 0.608901 27.0841 0.768217 26.9944C0.5392 26.9944 0.310177 26.9546 0.101074 26.8052C0.101074 37.653 0.101074 48.491 0.101074 59.3388C0.350006 59.309 0.598938 59.289 0.84787 59.2691C0.658682 59.2492 0.479453 59.2392 0.290265 59.2093Z" fill="#C64642"/>
<path d="M28.8876 0.835994C28.9175 0.816071 28.9573 0.816093 28.9872 0.796171C28.9772 0.696558 28.9672 0.596927 28.9573 0.497314C28.8378 0.497314 28.7183 0.497314 28.5889 0.497314C28.7084 0.656695 28.7482 0.835987 28.7681 1.01529C28.8079 0.94556 28.8478 0.8858 28.8876 0.835994Z" fill="#C64642"/>
<path d="M28.8884 0.83666C28.8386 0.896428 28.8087 0.956188 28.7689 1.01596C28.7789 1.19526 28.7689 1.37457 28.7689 1.55388C28.7689 9.65244 28.7689 17.751 28.7689 25.8496C28.7689 26.1484 28.7988 26.4572 28.6295 26.7461C28.2412 27.1346 27.7334 26.9852 27.2654 26.9852C18.6224 26.9951 9.97944 26.9951 1.33649 26.9852C1.1473 26.9852 0.958107 27.0051 0.758961 26.9951C0.599644 27.0947 0.440323 27.2043 0.281006 27.3537C0.281006 37.8032 0.281006 48.3721 0.281006 59.2101C0.470195 59.23 0.659389 59.2499 0.838621 59.2698C4.00505 58.9909 7.19139 59.2698 10.3578 59.1503C11.0648 59.1204 11.8016 59.3495 12.4787 58.961C10.4673 58.961 8.46593 58.971 6.45455 58.961C4.47304 58.961 2.49153 58.9511 0.539898 58.9411C0.539898 48.2327 0.539898 37.7832 0.539898 27.1346C10.0292 27.1346 19.419 27.1346 28.978 27.1346C28.978 18.2391 28.978 9.54288 28.978 0.856602C28.978 0.836679 28.978 0.806788 28.9681 0.786865C28.9581 0.806788 28.9282 0.816737 28.8884 0.83666Z" fill="#C64642"/>
<path d="M0.847872 59.2692C0.598939 59.2891 0.350007 59.309 0.101074 59.3389C0.55911 59.3389 1.0271 59.3389 1.48514 59.3389C1.26608 59.319 1.05697 59.299 0.847872 59.2692Z" fill="#C64642"/>
<path d="M10.3671 59.1596C7.19072 59.2792 4.01433 59.0002 0.8479 59.2792C1.057 59.2991 1.26611 59.329 1.47522 59.3489C4.66156 59.3489 7.84791 59.3489 11.0442 59.319C11.5222 59.319 12.1495 59.6477 12.498 58.9803C11.8109 59.3489 11.0741 59.1297 10.3671 59.1596Z" fill="#C64642"/>
<path d="M0.768218 26.9944C0.897663 26.9147 1.03706 26.855 1.1665 26.8052C0.808041 26.8052 0.449579 26.8052 0.101074 26.8052C0.310177 26.9546 0.529243 26.9944 0.768218 26.9944Z" fill="#C64642"/>
<path d="M28.7681 1.00532C28.7581 0.826014 28.7084 0.646688 28.5889 0.487305C28.5988 0.736341 28.6187 0.995348 28.6287 1.24438C28.6785 1.17465 28.7183 1.08501 28.7681 1.00532Z" fill="#C64642"/>
<path d="M27.2648 26.9845C27.7328 26.9845 28.2406 27.1439 28.6289 26.7454C28.8081 26.4466 28.7683 26.1378 28.7683 25.8489C28.7683 17.7503 28.7683 9.65175 28.7683 1.55318C28.7683 1.37388 28.7882 1.19456 28.7683 1.01526C28.7185 1.09495 28.6687 1.17464 28.6389 1.26429C28.6488 1.37387 28.6488 1.48346 28.6488 1.59303C28.6488 9.67168 28.6488 17.7503 28.6488 25.829C28.6488 26.1178 28.7484 26.4366 28.3103 26.8151C19.3586 26.8151 10.2676 26.8151 1.1666 26.8151C1.02719 26.865 0.897756 26.9247 0.768311 27.0044C0.9575 27.0044 1.15664 26.9944 1.34583 26.9944C9.97883 26.9845 18.6218 26.9944 27.2648 26.9845Z" fill="#C64642"/>
<path d="M29.0969 0.726436C29.0969 0.736397 29.087 0.746357 29.087 0.756319C29.4255 0.646744 29.7939 0.686582 30.1424 0.686582C40.9661 0.686582 51.7897 0.686582 62.6133 0.686582C63.0315 0.686582 63.4597 0.596923 63.9774 0.865879C63.9973 0.865879 64.0173 0.865879 64.0272 0.865879C64.0272 0.87584 64.0272 0.8858 64.0272 0.895761C64.087 0.925645 64.1467 0.965506 64.2064 1.00535C64.1069 3.76464 64.4156 6.66337 64.0272 9.55215C64.6346 9.26328 64.3558 8.71541 64.3558 8.28708C64.3857 5.68717 64.3857 3.09722 64.3956 0.497314C52.5863 0.497314 40.7669 0.497314 28.9575 0.497314C29.087 0.567044 29.1268 0.646745 29.0969 0.726436Z" fill="#CF2F3A"/>
<path d="M64.2164 1.00534C64.1566 0.965497 64.0969 0.925636 64.0371 0.895752C64.0371 3.90406 64.0371 6.73308 64.0371 9.55212C64.4255 6.66335 64.1168 3.77458 64.2164 1.00534Z" fill="#CF2F3A"/>
<path d="M117.398 26.9546C117.398 31.3376 117.398 35.6309 117.398 40.0637C115.915 40.0637 114.581 40.1036 113.256 40.0538C111.882 40.0039 110.488 40.2829 109.174 39.8844C109.253 35.4915 109.263 31.1981 109.194 26.9247C107.142 26.9247 105.35 26.9247 103.538 26.9247C103.538 37.6431 103.538 48.232 103.538 59.0202C105.499 59.0301 107.302 59.1796 109.184 58.9305C109.184 54.2387 109.184 49.6366 109.184 44.9647C111.972 44.9647 114.66 44.9647 117.498 44.9647C117.498 49.7063 117.498 54.3085 117.498 59.06C119.031 59.06 120.425 59.07 121.81 59.05C122.218 59.0401 122.656 59.1796 123.064 58.8708C123.064 48.2121 123.064 37.5335 123.064 26.7653C121.142 26.8849 119.34 26.6159 117.398 26.9546Z" fill="#333333"/>
<path d="M208.14 39.9442C206.736 34.7045 201.209 34.2563 198.013 36.896C197.655 37.1849 197.445 37.7128 196.629 37.6929C196.629 33.798 196.629 29.8932 196.629 25.9584C194.657 25.9584 192.915 25.9584 191.013 25.9584C191.013 37.0753 191.013 47.9929 191.013 58.9803C192.905 58.9803 194.697 58.9803 196.47 58.9803C196.808 58.3328 196.659 57.7152 196.659 57.1275C196.679 52.8043 196.639 48.491 196.679 44.1678C196.699 41.4483 197.684 40.263 200.214 39.6752C202.165 40.2829 202.773 41.02 202.912 43.0023C202.962 43.7295 202.962 44.4567 202.962 45.1938C202.962 49.3278 202.962 53.4717 202.972 57.6057C202.972 58.0639 202.783 58.5819 203.201 58.9504C205.023 58.9504 206.815 58.9504 208.618 58.9504C208.657 58.6616 208.707 58.4922 208.707 58.3129C208.707 53.2625 208.707 48.2121 208.697 43.1617C208.687 42.056 208.418 40.9901 208.14 39.9442Z" fill="#333333"/>
<path d="M163.023 55.4441C163.003 51.7285 163.003 48.0229 163.013 44.3073C163.013 42.833 162.774 41.4085 162.306 40.0239C161.549 37.7826 160.006 36.2984 157.736 35.7206C154.251 34.8341 150.925 35.4417 147.669 36.9658C147.788 38.211 148.286 39.2469 148.645 40.4025C150.068 39.9343 151.383 39.3167 152.856 39.2569C155.983 39.1274 157.417 40.6615 157.078 43.9387C155.047 44.0184 153.036 44.3372 151.114 45.1241C148.117 46.3494 145.598 49.1286 145.906 53.0633C146.115 55.7529 147.241 57.9145 149.8 58.9305C152.408 59.9665 154.928 59.6478 157.039 57.5758C157.278 57.3367 157.427 56.9482 157.885 56.9781C158.094 57.5957 157.825 58.3428 158.433 58.9803C159.956 59.0799 161.569 59.0999 163.292 58.9504C162.963 57.7352 163.023 56.5896 163.023 55.4441ZM157.148 52.8641C156.879 53.392 156.561 54.0296 156.282 54.5874C155.316 55.474 154.221 55.3445 153.145 55.2947C151.353 53.8303 150.925 52.3062 151.721 50.294C152.369 48.6703 154.519 47.6145 157.148 47.734C157.148 49.4872 157.148 51.1209 157.148 52.8641Z" fill="#333333"/>
<path d="M135.81 35.3221C132.474 35.5014 129.935 37.2048 128.381 40.1733C126.061 44.626 125.902 49.278 127.724 53.91C128.78 56.5896 130.851 58.3328 133.729 59.0301C135.839 59.5381 137.95 59.4784 140.051 59.1198C141.097 58.9405 142.232 58.9205 143.178 58.1635C142.909 56.9781 142.65 55.8325 142.362 54.5674C140.529 55.3544 138.727 55.4938 136.895 55.3444C134.844 55.1751 133.37 54.1889 132.663 52.1667C132.295 51.1308 132.205 50.0549 132.026 48.8098C136.059 48.8098 139.982 48.8098 143.875 48.8098C144.014 48.501 144.094 48.3416 144.154 48.1723C144.214 48.0029 144.293 47.8236 144.303 47.6443C144.492 44.7456 144.184 41.9165 142.82 39.3266C141.366 36.5374 138.916 35.1627 135.81 35.3221ZM132.484 45.0145C132.394 42.6836 133.041 41.2093 134.814 39.6354C135.441 39.6354 136.108 39.6354 136.865 39.6354C138.767 40.9005 138.608 42.9824 139.046 45.0145C136.726 45.0145 134.674 45.0145 132.484 45.0145Z" fill="#333333"/>
<path d="M183.923 35.6608C183.635 33.6785 184.043 31.8655 183.635 29.9828C181.703 30.5905 179.93 31.1583 178.168 31.7161C177.909 33.0509 178.258 34.3459 177.949 35.5213C176.993 35.87 176.037 35.4118 175.161 35.8799C175.071 37.0853 175.051 38.2707 175.171 39.4262C176.186 39.735 177.122 39.3863 178.078 39.7549C178.078 40.3924 178.078 40.9901 178.078 41.5878C178.078 45.1838 178.029 48.7699 178.108 52.366C178.158 54.5674 178.457 56.7589 180.408 58.2531C182.151 59.578 186.124 59.8369 188.225 58.7312C188.225 57.7251 188.235 56.6892 188.215 55.6632C188.215 55.4938 188.125 55.3245 188.046 55.0655C187.09 54.9659 186.104 55.2149 185.188 54.9061C183.993 53.8004 183.864 53.6111 183.844 52.087C183.814 48.9791 183.824 45.8811 183.814 42.7732C183.814 41.7571 183.814 40.7411 183.814 39.6653C185.517 39.3963 187.1 39.8047 188.643 39.3963C188.623 38.1113 188.822 36.9159 188.494 35.6608C186.95 35.6608 185.507 35.6608 183.923 35.6608Z" fill="#333333"/>
<path d="M167.165 26.0282C167.165 37.1152 167.165 48.0229 167.165 59.0102C169.057 59.06 170.859 59.1497 172.632 58.9704C172.99 56.6793 172.891 27.2335 172.552 26.0382C170.75 26.0282 168.967 26.0282 167.165 26.0282Z" fill="#333333"/>
<path d="M328.543 42.6935C328.185 40.8806 327.488 39.217 326.353 37.7626C323.853 34.5551 319.134 34.5152 316.555 37.6431C316.355 37.8822 316.336 38.3603 315.858 38.2507C315.549 37.4439 315.987 36.5075 315.24 35.6608C314.563 35.6608 313.777 35.6309 313 35.6708C312.243 35.7106 311.437 35.4516 310.73 35.8799C310.391 42.9824 310.64 67.0191 311.108 68.4137C312.811 68.3639 314.543 68.5532 316.455 68.2543C316.455 64.5886 316.455 60.9925 316.455 57.1873C319.502 60.8232 324.142 59.588 326.283 56.9183C327.159 55.8226 328.016 54.6372 328.225 53.2426C328.603 50.5829 329.36 46.1302 328.543 42.6935ZM322.778 51.3699C322.4 52.7744 321.852 53.9399 320.677 54.9261C319.91 55.3046 319.243 55.215 318.606 54.9261C316.943 53.91 316.614 52.2365 316.525 50.553C316.415 48.491 316.485 46.4091 316.505 44.3371C316.525 42.9226 317.023 41.6774 317.929 40.5518C320.04 39.4959 321.264 39.8645 322.26 41.9564C322.778 43.0422 323.136 44.1877 323.067 45.403C322.937 47.3953 323.306 49.3776 322.778 51.3699Z" fill="#333333"/>
<path d="M244.832 41.8963C243.1 41.8963 241.486 41.8963 239.873 41.8963C239.624 44.6556 239.505 47.3352 238.131 49.8455C236.229 47.2954 234.367 44.8051 232.505 42.3048C232.764 42.0856 232.893 41.9461 233.043 41.8565C235.801 40.193 237.932 38.0114 238.549 34.7341C239.117 31.7657 237.792 28.0899 234.277 26.7651C231.509 25.7291 228.99 26.1076 226.63 27.5819C223.752 29.3849 222.458 32.443 223.145 35.9793C223.523 37.9317 224.38 39.6551 225.485 41.2887C225.166 41.5876 224.937 41.8764 224.639 42.0756C221.074 44.5162 219.58 48.4609 220.377 52.6546C221.452 58.2628 227.218 60.4344 231.788 59.5179C233.899 59.0896 235.721 58.1333 237.294 56.9778C238.021 57.7648 238.698 58.4421 239.147 59.3486C240.282 59.3486 241.377 59.3785 242.472 59.3386C243.508 59.2988 244.583 59.508 245.828 59.1394C244.016 57.1272 242.373 55.3043 240.939 53.312C243.398 50.0447 244.982 45.4625 244.832 41.8963ZM228.811 31.7956C229.179 30.7297 230.075 30.0722 231.061 30.0922C231.967 30.1221 232.853 30.7795 233.202 31.7159C233.979 33.8177 233.541 35.6805 232.027 37.2942C231.499 37.862 230.932 38.39 230.205 39.1171C228.552 36.6866 227.915 34.3855 228.811 31.7956ZM232.276 55.2346C229.169 55.7426 226.929 54.7564 225.893 51.4692C225.893 50.4332 225.893 49.208 225.893 48.0126C226.401 46.8372 227.078 45.7912 227.885 44.6357C230.185 47.6341 232.425 50.5527 234.656 53.4515C234.198 54.5771 233.073 54.7166 232.276 55.2346Z" fill="#333333"/>
<path d="M270.811 39.9641C267.943 39.9641 265.285 39.9641 262.487 39.9641C262.487 37.6929 262.487 35.5114 262.487 33.3398C262.487 31.1782 262.477 29.0166 262.467 26.845C260.525 26.845 258.832 26.845 257 26.845C257 37.6531 257 48.2719 257 58.9803C258.832 58.9803 260.555 58.9803 262.516 58.9803C262.516 54.2686 262.516 49.6266 262.516 44.9548C265.414 44.9548 268.092 44.9548 270.9 44.9548C270.9 49.6764 270.9 54.2786 270.9 58.9803C272.872 59.1098 274.704 59.0899 276.516 59.0202C276.516 48.1623 276.516 37.5435 276.516 26.8948C274.605 26.8948 272.812 26.8948 270.811 26.8948C270.811 31.3177 270.811 35.6608 270.811 39.9641Z" fill="#333333"/>
<path d="M289.003 35.352C285.05 35.6708 282.481 37.9818 281.067 41.6277C279.752 45.0145 279.583 48.5109 280.439 51.9874C281.385 55.8226 283.755 58.4324 287.768 59.1994C289.62 59.558 291.522 59.4883 293.384 59.1496C294.42 58.9604 295.545 58.9504 296.441 58.2232C296.471 56.998 296.043 55.9321 295.814 54.687C295.077 54.8463 294.539 54.9261 294.031 55.0854C292.657 55.5237 291.253 55.454 289.879 55.3046C287.071 54.9858 285.408 52.4457 285.607 48.7899C289.511 48.7899 293.434 48.7899 297.307 48.7899C298.004 45.8513 297.636 42.2254 296.451 39.7948C294.768 36.3283 292.07 35.103 289.003 35.352ZM285.876 44.9946C285.667 43.7096 286.105 42.6836 286.484 41.6177C287.161 39.735 288.545 39.3366 290.427 39.6852C292.02 41.0101 292.099 42.9725 292.418 44.9946C290.198 44.9946 288.117 44.9946 285.876 44.9946Z" fill="#333333"/>
<path d="M300.922 58.9704C302.814 58.9704 304.606 58.9704 306.458 58.9704C306.458 47.9332 306.458 36.9658 306.458 25.9884C304.536 25.9884 302.754 25.9884 300.922 25.9884C300.922 37.0455 300.922 47.9631 300.922 58.9704Z" fill="#333333"/>
</svg>
